<?xml version="1.0" standalone="no"?>
<svg xmlns="http://www.w3.org/2000/svg" width="400" height="400" viewBox="0 0 400 400"><path d="M 115.015625,286 L 115.015625,286 L 115.015625,285.77 L 115.015625,285.54 L 115.015625,285.31 L 115.015625,285.08 L 115.015625,284.84999999999997 L 115.015625,284.62 L 115.015625,284.39 L 115.015625,284.15999999999997 L 115.015625,283.93 L 115.015625,283.7 L 115.015625,283.46999999999997 L 115.015625,283.24 L 115.015625,283.01 L 115.015625,282.78 L 115.015625,282.54999999999995 L 115.015625,282.32 L 115.015625,282.09 L 115.015625,281.85999999999996 L 115.015625,281.63 L 115.015625,281.4 L 115.015625,281.16999999999996 L 115.015625,280.94 L 115.015625,280.71 L 115.015625,280.47999999999996 L 115.015625,280.24999999999994 L 115.015625,280.02000000000004 L 115.015625,279.79 L 115.015625,279.56 L 115.015625,279.33000000000004 L 115.015625,279.1 L 115.015625,278.87 L 115.015625,278.64 L 115.015625,278.41 L 115.015625,278.18 L 115.015625,277.95 L 115.015625,277.72 L 115.015625,277.49 L 115.015625,277.26 L 115.015625,277.03000000000003 L 115.015625,276.8 L 115.015625,276.57 L 115.015625,276.34 L 115.015625,276.11 L 115.015625,275.88 L 115.015625,275.65 L 115.015625,275.42 L 115.015625,275.19 L 115.015625,274.96 L 115.015625,274.73 L 115.015625,274.5 L 115.015625,274.27 L 115.015625,274.03999999999996 L 115.015625,273.81 L 115.015625,273.58 L 115.015625,273.34999999999997 L 115.015625,273.12 L 115.015625,272.89 L 115.015625,272.65999999999997 L 115.015625,272.43 L 115.015625,272.2 L 115.015625,271.96999999999997 L 115.015625,271.73999999999995 L 115.015625,271.51 L 115.015625,271.28 L 115.015625,271.04999999999995 L 115.015625,270.82 L 115.015625,270.59 L 115.015625,270.35999999999996 L 115.015625,270.12999999999994 L 115.015625,269.9 L 115.015625,269.66999999999996 L 115.015625,269.43999999999994 L 115.015625,269.21 L 115.015625,268.97999999999996 L 115.015625,268.74999999999994 L 115.015625,268.52 L 115.015625,268.29 L 115.015625,268.06 L 115.015625,267.83 L 115.015625,267.6 L 115.015625,267.37 L 115.015625,267.14 L 115.015625,266.91 L 115.015625,266.68 L 115.015625,266.45 L 115.015625,266.22 L 115.015625,265.99 L 115.015625,265.76 L 115.015625,265.53 L 115.015625,265.3 L 115.015625,265.07 L 115.015625,264.84 L 115.015625,264.61 L 115.015625,264.38 L 115.015625,264.15 L 115.015625,263.91999999999996 L 115.015625,263.69 L 115.015625,263.46 L 115.015625,263.22999999999996 L 115.015625,263 L 115.015625,262.77 L 115.015625,262.53999999999996 L 115.015625,262.31 L 115.015625,262.08 L 115.015625,261.84999999999997 L 115.015625,261.61999999999995 L 115.015625,261.39 L 115.015625,261.15999999999997 L 115.015625,260.92999999999995 L 115.015625,260.7 L 115.015625,260.46999999999997 L 115.015625,260.23999999999995 L 115.015625,260.01 L 115.015625,259.78 L 115.015625,259.54999999999995 L 115.015625,259.32 L 115.015625,259.09 L 115.015625,258.86 L 115.015625,258.63 L 115.015625,258.4 L 115.015625,258.16999999999996 L 115.015625,257.94 L 115.015625,257.71 L 115.015625,257.47999999999996 L 115.015625,257.25 L 115.015625,257.02 L 115.015625,256.78999999999996 L 115.015625,256.55999999999995 L 115.015625,256.33 L 115.01562499999999,256.09999999999997 L 115.015625,255.86999999999998 L 115.015625,255.63999999999996 L 115.015625,255.40999999999997 L 115.015625,255.17999999999995 L 115.015625,254.94999999999996 L 115.015625,254.71999999999997 L 115.01562499999999,254.48999999999995 L 115.015625,254.25999999999996 L 115.015625,254.02999999999994 L 115.015625,253.79999999999995 L 115.015625,253.57 L 115.015625,253.33999999999997 L 115.015625,253.10999999999999 L 115.015625,252.87999999999997 L 115.015625,252.64999999999998 L 115.015625,252.42 L 115.015625,252.18999999999997 L 115.015625,251.95999999999998 L 115.015625,251.72999999999996 L 115.015625,251.49999999999997 L 115.015625,251.26999999999998 L 115.015625,251.03999999999996 L 115.015625,250.80999999999997 L 115.015625,250.57999999999996 L 115.015625,250.34999999999997 L 115.015625,250.11999999999998 L 115.015625,249.88999999999996 L 115.015625,249.65999999999997 L 115.015625,249.42999999999995 L 115.015625,249.19999999999996 L 115.015625,248.96999999999997 L 115.015625,248.73999999999995 L 115.015625,248.50999999999996 L 115.015625,248.27999999999994 L 115.015625,248.04999999999995 L 115.015625,247.81999999999994 L 115.015625,247.58999999999997 L 115.015625,247.35999999999999 L 115.015625,247.12999999999997 L 115.015625,246.89999999999998 L 115.015625,246.66999999999996 L 115.015625,246.43999999999997 L 115.015625,246.20999999999998 L 115.015625,245.97999999999996 L 115.015625,245.74999999999997 L 115.015625,245.51999999999995 L 115.015625,245.28999999999996 L 115.015625,245.05999999999997 L 115.015625,244.82999999999996 L 115.015625,244.59999999999997 L 115.015625,244.36999999999995 L 115.015625,244.13999999999996 L 115.015625,243.90999999999997 L 115.015625,243.67999999999995 L 115.015625,243.44999999999996 L 115.015625,243.21999999999994 L 115.015625,242.98999999999995 L 115.015625,242.75999999999996 L 115.015625,242.52999999999994 L 115.015625,242.29999999999995 L 115.015625,242.06999999999994 L 115.015625,241.83999999999997 L 115.015625,241.60999999999999 L 115.015625,241.37999999999997 L 115.015625,241.14999999999998 L 115.015625,240.91999999999996 L 115.015625,240.68999999999997 L 115.015625,240.45999999999998 L 115.015625,240.22999999999996 L 115.015625,239.99999999999997 L 115.015625,239.76999999999995 L 115.015625,239.53999999999996 L 115.015625,239.30999999999995 L 115.015625,239.07999999999996 L 115.015625,238.84999999999997 L 115.015625,238.61999999999995 L 115.015625,238.38999999999996 L 115.015625,238.15999999999994 L 115.015625,237.92999999999995 L 115.015625,237.69999999999996 L 115.015625,237.46999999999994 L 115.015625,237.23999999999995 L 115.015625,237.00999999999993 L 115.015625,236.77999999999994 L 115.015625,236.54999999999995 L 115.015625,236.31999999999994 L 115.015625,236.08999999999995 L 115.015625,235.85999999999996 L 115.015625,235.62999999999997 L 115.01562499999999,235.39999999999998 L 115.015625,235.16999999999996 L 115.015625,234.93999999999997 L 115.015625,234.70999999999995 L 115.015625,234.47999999999996 L 115.015625,234.24999999999997 L 115.015625,234.01999999999995 L 115.01562499999999,233.78999999999996 L 115.015625,233.55999999999995 L 115.015625,233.32999999999996 L 115.015625,233.09999999999997 L 115.015625,232.86999999999995 L 115.015625,232.63999999999996 L 115.015625,232.40999999999994 L 115.01562499999999,232.17999999999995 L 115.015625,231.94999999999993 L 115.015625,231.71999999999994 L 115.015625,231.48999999999995 L 115.015625,231.25999999999993 L 115.015625,231.02999999999994 L 115.015625,230.79999999999993 L 115.01562499999999,230.56999999999994 L 115.015625,230.33999999999995 L 115.015625,230.10999999999993 L 115.015625,229.87999999999997 L 115.015625,229.64999999999995 L 115.015625,229.41999999999996 L 115.015625,229.18999999999997 L 115.01562499999999,228.95999999999995 L 115.015625,228.72999999999996 L 115.01562499999999,228.49999999999994 L 115.015625,228.26999999999998 L 115.015625,228.03999999999996 L 115.01562500000001,227.80999999999997 L 115.015625,227.57999999999996 L 115.015625,227.34999999999997 L 115.01562499999999,227.11999999999995 L 115.015625,226.89 L 115.015625,226.65999999999994 L 115.01562500000001,226.42999999999998 L 115.015625,226.19999999999993 L 115.01562500000001,225.96999999999997 L 115.01562499999999,225.73999999999992 L 115.015625,225.50999999999996 L 115.01562499999999,225.27999999999994 L 115.015625,225.04999999999995 L 115.015625,224.81999999999994 L 115.01562500000001,224.58999999999997 L 115.015625,224.35999999999993 L 115.015625,224.13 L 115.01562499999999,223.89999999999995 L 115.015625,223.67 L 115.015625,223.43999999999994 L 115.01562500000001,223.20999999999998 L 115.015625,222.97999999999996 L 115.01562500000001,222.74999999999997 L 115.01562499999999,222.51999999999995 L 115.015625,222.28999999999996 L 115.01562499999999,222.05999999999995 L 115.015625,221.82999999999998 L 115.015625,221.59999999999994 L 115.01562500000001,221.36999999999998 L 115.015625,221.13999999999993 L 115.015625,220.90999999999997 L 115.01562499999999,220.67999999999995 L 115.015625,220.44999999999996 L 115.015625,220.21999999999994 L 115.015625,219.98999999999995 L 115.015625,219.75999999999993 L 115.01562500000001,219.52999999999997 L 115.01562499999999,219.29999999999993 L 115.015625,219.06999999999996 L 115.015625,218.83999999999992 L 115.015625,218.60999999999999 L 115.015625,218.37999999999994 L 115.01562500000001,218.14999999999998 L 115.015625,217.91999999999996 L 115.015625,217.68999999999997 L 115.01562499999999,217.45999999999995 L 115.015625,217.22999999999996 L 115.015625,216.99999999999994 L 115.015625,216.76999999999998 L 115.015625,216.53999999999994 L 115.01562500000001,216.30999999999997 L 115.01562499999999,216.07999999999993 L 115.015625,215.84999999999997 L 115.015625,215.61999999999995 L 115.015625,215.38999999999996 L 115.015625,215.15999999999994 L 115.01562500000001,214.92999999999995 L 115.015625,214.69999999999993 L 115.015625,214.46999999999997 L 115.01562499999999,214.23999999999992 L 115.015625,214.00999999999996 L 115.015625,213.77999999999992 L 115.015625,213.54999999999995 L 115.015625,213.31999999999994 L 115.01562500000001,213.08999999999997 L 115.01562499999999,212.85999999999993 L 115.015625,212.62999999999997 L 115.015625,212.39999999999992 L 115.015625,212.16999999999996 L 115.015625,211.93999999999994 L 115.01562500000001,211.70999999999998 L 115.015625,211.47999999999993 L 115.015625,211.24999999999997 L 115.01562499999999,211.01999999999992 L 115.015625,210.78999999999996 L 115.015625,210.55999999999995 L 115.015625,210.32999999999996 L 115.015625,210.09999999999994 L 115.01562500000001,209.86999999999995 L 115.01562499999999,209.63999999999993 L 115.015625,209.40999999999997 L 115.015625,209.17999999999992 L 115.015625,208.94999999999996 L 115.015625,208.7199999999999 L 115.01562500000001,208.48999999999995 L 115.015625,208.25999999999993 L 115.015625,208.02999999999994 L 115.01562499999999,207.79999999999993 L 115.015625,207.56999999999994 L 115.015625,207.33999999999992 L 115.015625,207.10999999999996 L 115.015625,206.8799999999999 L 115.015625,206.64999999999998 L 115.01562499999999,206.41999999999993 L 115.015625,206.18999999999997 L 115.015625,205.95999999999992 L 115.015625,205.72999999999996 L 115.015625,205.49999999999994 L 115.01562500000001,205.26999999999995 L 115.015625,205.03999999999994 L 115.015625,204.80999999999995 L 115.01562499999999,204.57999999999993 L 115.015625,204.34999999999997 L 115.015625,204.11999999999992 L 115.015625,203.88999999999996 L 115.015625,203.6599999999999 L 115.015625,203.42999999999995 L 115.01562499999999,203.19999999999993 L 115.015625,202.96999999999994 L 115.015625,202.73999999999992 L 115.015625,202.50999999999993 L 115.015625,202.27999999999992 L 115.01562500000001,202.04999999999995 L 115.015625,201.8199999999999 L 115.015625,201.58999999999995 L 115.01562499999999,201.3599999999999 L 115.015625,201.12999999999997 L 115.015625,200.89999999999992 L 115.015625,200.66999999999996 L 115.015625,200.43999999999994 L 115.015625,200.20999999999995 L 115.01562499999999,199.97999999999993 L 115.015625,199.74999999999994 L 115.015625,199.51999999999992 L 115.015625,199.28999999999996 L 115.015625,199.05999999999992 L 115.01562500000001,198.82999999999996 L 115.015625,198.5999999999999 L 115.015625,198.36999999999995 L 115.01562499999999,198.13999999999993 L 115.015625,197.90999999999994 L 115.015625,197.67999999999992 L 115.015625,197.44999999999993 L 115.015625,197.2199999999999 L 115.015625,196.98999999999995 L 115.01562499999999,196.7599999999999 L 115.015625,196.52999999999994 L 115.015625,196.2999999999999 L 115.015625,196.06999999999994 L 115.015625,195.83999999999992 L 115.01562500000001,195.60999999999993 L 115.015625,195.3799999999999 L 115.015625,195.14999999999995 L 115.015625,194.9199999999999 L 115.015625,194.68999999999997 L 115.015625,194.45999999999992 L 115.015625,194.22999999999996 L 115.015625,193.99999999999991 L 115.015625,193.76999999999995 L 115.01562499999999,193.53999999999994 L 115.015625,193.30999999999995 L 115.015625,193.07999999999993 L 115.015625,192.84999999999994 L 115.015625,192.61999999999992 L 115.01562500000001,192.38999999999993 L 115.015625,192.1599999999999 L 115.015625,191.92999999999995 L 115.015625,191.6999999999999 L 115.015625,191.46999999999994 L 115.015625,191.2399999999999 L 115.015625,191.00999999999993 L 115.015625,190.77999999999992 L 115.015625,190.54999999999993 L 115.01562499999999,190.3199999999999 L 115.015625,190.08999999999992 L 115.015625,189.8599999999999 L 115.015625,189.62999999999994 L 115.015625,189.3999999999999 L 115.01562500000001,189.16999999999996 L 115.015625,188.93999999999988 L 115.015625,188.70999999999995 L 115.015625,188.47999999999993 L 115.015625,188.24999999999994 L 115.015625,188.01999999999992 L 115.015625,187.78999999999994 L 115.015625,187.55999999999992 L 115.015625,187.32999999999996 L 115.01562499999999,187.0999999999999 L 115.015625,186.86999999999995 L 115.015625,186.6399999999999 L 115.015625,186.40999999999994 L 115.015625,186.17999999999992 L 115.01562500000001,185.94999999999993 L 115.015625,185.7199999999999 L 115.015625,185.48999999999992 L 115.015625,185.2599999999999 L 115.015625,185.02999999999992 L 115.015625,184.7999999999999 L 115.015625,184.56999999999994 L 115.015625,184.3399999999999 L 115.015625,184.10999999999993 L 115.015625,183.87999999999988 L 115.015625,183.64999999999992 L 115.015625,183.4199999999999 L 115.015625,183.18999999999994 L 115.015625,182.95999999999992 L 115.015625,182.72999999999996 L 115.015625,182.49999999999991 L 115.015625,182.26999999999995 L 115.015625,182.0399999999999 L 115.015625,181.80999999999995 L 115.015625,181.57999999999993 L 115.015625,181.34999999999994 L 115.015625,181.11999999999992 L 115.015625,180.88999999999993 L 115.015625,180.6599999999999 L 115.015625,180.42999999999992 L 115.015625,180.1999999999999 L 115.015625,179.96999999999994 L 115.015625,179.7399999999999 L 115.015625,179.50999999999993 L 115.015625,179.2799999999999 L 115.015625,179.04999999999993 L 115.015625,178.8199999999999 L 115.015625,178.58999999999992 L 115.015625,178.3599999999999 L 115.015625,178.1299999999999 L 115.015625,177.8999999999999 L 115.015625,177.66999999999996 L 115.015625,177.43999999999988 L 115.015625,177.20999999999995 L 115.015625,176.9799999999999 L 115.015625,176.74999999999994 L 115.015625,176.51999999999992 L 115.015625,176.28999999999994 L 115.015625,176.05999999999992 L 115.015625,175.82999999999993 L 115.015625,175.5999999999999 L 115.015625,175.36999999999995 L 115.015625,175.1399999999999 L 115.015625,174.90999999999994 L 115.015625,174.6799999999999 L 115.015625,174.44999999999993 L 115.015625,174.2199999999999 L 115.015625,173.98999999999992 L 115.015625,173.7599999999999 L 115.015625,173.52999999999992 L 115.015625,173.2999999999999 L 115.015625,173.0699999999999 L 115.015625,172.8399999999999 L 115.015625,172.60999999999993 L 115.015625,172.37999999999988 L 115.015625,172.14999999999992 L 115.015625,171.91999999999987 L 115.015625,171.68999999999994 L 115.015625,171.4599999999999 L 115.015625,171.22999999999993 L 115.015625,170.99999999999994 L 115.015625,170.76999999999992 L 115.015625,170.53999999999994 L 115.015625,170.30999999999995 L 115.015625,170.07999999999993 L 115.015625,169.84999999999994 L 115.015625,169.61999999999992 L 115.015625,169.38999999999993 L 115.015625,169.1599999999999 L 115.015625,168.92999999999992 L 115.015625,168.69999999999993 L 115.015625,168.4699999999999 L 115.015625,168.23999999999992 L 115.015625,168.0099999999999 L 115.015625,167.77999999999992 L 115.015625,167.5499999999999 L 115.015625,167.3199999999999 L 115.015625,167.08999999999992 L 115.015625,166.8599999999999 L 115.015625,166.6299999999999 L 115.015625,166.39999999999992 L 115.015625,166.1699999999999 L 115.015625,165.93999999999994 L 115.015625,165.70999999999992 L 115.015625,165.47999999999993 L 115.015625,165.24999999999994 L 115.015625,165.01999999999992 L 115.015625,164.78999999999994 L 115.015625,164.55999999999992 L 115.015625,164.32999999999993 L 115.015625,164.0999999999999 L 115.015625,163.86999999999992 L 115.015625,163.63999999999993 L 115.015625,163.4099999999999 L 115.015625,163.17999999999992 L 115.015625,162.94999999999993 L 115.015625,162.7199999999999 L 115.015625,162.48999999999992 L 115.015625,162.2599999999999 L 115.015625,162.02999999999992 L 115.015625,161.7999999999999 L 115.015625,161.5699999999999 L 115.015625,161.33999999999992 L 115.015625,161.1099999999999 L 115.015625,160.8799999999999 L 115.015625,160.6499999999999 L 115.015625,160.4199999999999 L 115.015625,160.18999999999988 L 115.015625,159.95999999999992 L 115.015625,159.72999999999993 L 115.015625,159.49999999999991 L 115.015625,159.26999999999992 L 115.015625,159.0399999999999 L 115.015625,158.80999999999992 L 115.015625,158.57999999999993 L 115.015625,158.3499999999999 L 115.015625,158.11999999999992 L 115.015625,157.88999999999993 L 115.015625,157.6599999999999 L 115.015625,157.42999999999992 L 115.015625,157.1999999999999 L 115.015625,156.9699999999999 L 115.015625,156.7399999999999 L 115.015625,156.5099999999999 L 115.015625,156.27999999999992 L 115.015625,156.0499999999999 L 115.015625,155.8199999999999 L 115.015625,155.58999999999992 L 115.015625,155.3599999999999 L 115.015625,155.1299999999999 L 115.015625,154.89999999999992 L 115.015625,154.6699999999999 L 115.015625,154.4399999999999 L 115.015625,154.20999999999992 L 115.015625,153.9799999999999 L 115.015625,153.74999999999991 L 115.015625,153.5199999999999 L 115.015625,153.2899999999999 L 115.015625,153.0599999999999 L 115.015625,152.8299999999999 L 115.015625,152.5999999999999 L 115.015625,152.36999999999992 L 115.015625,152.1399999999999 L 115.015625,151.9099999999999 L 115.015625,151.6799999999999 L 115.015625,151.4499999999999 L 115.015625,151.2199999999999 L 115.015625,150.9899999999999 L 115.015625,150.7599999999999 L 115.015625,150.52999999999992 L 115.015625,150.2999999999999 L 115.015625,150.0699999999999 L 115.015625,149.8399999999999 L 115.015625,149.6099999999999 L 115.015625,149.3799999999999 L 115.015625,149.14999999999992 L 115.015625,148.9199999999999 L 115.015625,148.6899999999999 L 115.015625,148.4599999999999 L 115.015625,148.2299999999999 L 115.015625,147.9999999999999 L 115.015625,147.7699999999999 L 115.015625,147.5399999999999 L 115.015625,147.3099999999999 L 115.015625,147.0799999999999 L 115.015625,146.8499999999999 L 115.015625,146.6199999999999 L 115.015625,146.3899999999999 L 115.015625,146.1599999999999 L 115.015625,145.9299999999999 L 115.015625,145.6999999999999 L 115.015625,145.4699999999999 L 115.015625,145.2399999999999 L 115.015625,145.0099999999999 L 115.015625,144.7799999999999 L 115.015625,144.5499999999999 L 115.015625,144.31999999999988 L 115.015625,144.0899999999999 L 115.015625,143.8599999999999 L 115.015625,143.6299999999999 L 115.015625,143.39999999999992 L 115.015625,143.1699999999999 L 115.015625,142.93999999999988 L 115.015625,142.7099999999999 L 115.015625,142.4799999999999 L 115.015625,142.2499999999999 L 115.015625,142.0199999999999 L 115.015625,141.7899999999999 L 115.015625,141.5599999999999 L 115.015625,141.3299999999999 L 115.015625,141.09999999999988 L 115.015625,140.8699999999999 L 115.015625,140.6399999999999 L 115.015625,140.4099999999999 L 115.015625,140.1799999999999 L 115.015625,139.9499999999999 L 115.015625,139.7199999999999 L 115.015625,139.4899999999999 L 115.015625,139.25999999999988 L 115.015625,139.0299999999999 L 115.015625,138.7999999999999 L 115.015625,138.56999999999988 L 115.015625,138.3399999999999 L 115.015625,138.1099999999999 L 115.015625,137.8799999999999 L 115.015625,137.6499999999999 L 115.015625,137.4199999999999 L 115.015625,137.18999999999988 L 115.015625,136.9599999999999 L 115.015625,136.7299999999999 L 115.015625,136.4999999999999 L 115.015625,136.2699999999999 L 115.015625,136.0399999999999 L 115.015625,135.8099999999999 L 115.015625,135.57999999999987 L 115.015625,135.34999999999988 L 115.015625,135.1199999999999 L 115.015625,134.8899999999999 L 115.015625,134.6599999999999 L 115.015625,134.4299999999999 L 115.015625,134.1999999999999 L 115.015625,133.96999999999989 L 115.015625,133.7399999999999 L 115.015625,133.50999999999988 L 115.015625,133.2799999999999 L 115.015625,133.0499999999999 L 115.015625,132.81999999999988 L 115.015625,132.5899999999999 L 115.015625,132.3599999999999 L 115.015625,132.12999999999988 L 115.015625,131.8999999999999 L 115.015625,131.6699999999999 L 115.015625,131.43999999999988 L 115.015625,131.2099999999999 L 115.015625,130.9799999999999 L 115.015625,130.7499999999999 L 115.015625,130.5199999999999 L 115.015625,130.28999999999988 L 115.015625,130.0599999999999 L 115.015625,129.82999999999987 L 115.015625,129.59999999999988 L 115.015625,129.3699999999999 L 115.015625,129.1399999999999 L 115.015625,128.90999999999988 L 115.015625,128.6799999999999 L 115.015625,128.44999999999987 L 115.015625,128.21999999999989 L 115.015625,127.9899999999999 L 115.015625,127.75999999999988 L 115.015625,127.52999999999989 L 115.015625,127.29999999999988 L 115.015625,127.06999999999988 L 115.015625,126.83999999999989 L 115.015625,126.60999999999987 L 115.015625,126.37999999999988 L 115.015625,126.14999999999989 L 115.015625,125.91999999999989 L 115.015625,125.68999999999988 L 115.015625,125.4599999999999 L 115.015625,125.22999999999988 L 115.015625,124.99999999999989 L 115.015625,124.76999999999988 L 115.015625,124.53999999999988 L 115.015625,124.30999999999989 L 115.015625,124.07999999999987 L 115.015625,123.84999999999988 L 115.015625,123.61999999999988 L 115.015625,123.38999999999987 L 115.015625,123.15999999999988 L 115.015625,122.9299999999999 L 115.015625,122.69999999999987 L 115.015625,122.46999999999989 L 115.015625,122.23999999999988 L 115.015625,122.00999999999988 L 115.015625,121.77999999999989 L 115.015625,121.54999999999987 L 115.015625,121.31999999999988 L 115.015625,121.08999999999988 L 115.015625,120.85999999999987 L 115.015625,120.62999999999988 L 115.015625,120.39999999999986 L 115.015625,120.16999999999989 L 115.015625,119.93999999999988 L 115.015625,119.70999999999988 L 115.015625,119.47999999999988 L 115.015625,119.24999999999989 L 115.015625,119.01999999999987 L 115.015625,118.78999999999988 L 115.015625,118.55999999999987 L 115.015625,118.32999999999987 L 115.015625,118.09999999999988 L 115.015625,117.86999999999986 L 115.015625,117.63999999999987 L 115.015625,117.40999999999988 L 115.015625,117.17999999999988 L 115.015625,116.94999999999987 L 115.015625,116.71999999999989 L 115.015625,116.48999999999988 L 115.015625,116.25999999999988 L 115.015625,116.02999999999987 L 115.015625,115.79999999999987 L 115.015625,115.56999999999988 L 115.015625,115.33999999999986 L 115.015625,115.10999999999987 L 115.015625,114.87999999999987 L 115.015625,114.64999999999986 L 115.015625,114.41999999999987 L 115.015625,114.18999999999988 L 115.015625,113.95999999999988 L 115.015625,113.72999999999988 L 115.015625,113.49999999999987 L 115.015625,113.26999999999987 L 115.015625,113.03999999999988 L 115.015625,112.80999999999987 L 115.015625,112.57999999999987 L 115.015625,112.34999999999987 L 115.015625,112.11999999999986 L 115.015625,111.88999999999987 L 115.015625,111.65999999999985 L 115.015625,111.42999999999988 L 115.015625,111.19999999999987 L 115.015625,110.96999999999987 L 115.015625,110.73999999999987 L 115.015625,110.50999999999988 L 115.015625,110.27999999999987 L 115.015625,110.04999999999987 L 115.015625,109.81999999999987 L 115.015625,109.58999999999986 L 115.015625,109.35999999999987 L 115.015625,109.12999999999987 L 115.015625,108.89999999999986 L 115.015625,108.66999999999986 L 115.015625,108.43999999999988 L 115.015625,108.20999999999987 L 115.015625,107.97999999999988 L 115.015625,107.74999999999987 L 115.015625,107.51999999999987 L 115.015625,107.28999999999986 L 115.015625,107.05999999999986 L 115.015625,106.82999999999987 L 115.015625,106.59999999999987 L 115.015625,106.36999999999986 L 115.015625,106.13999999999987 L 115.015625,105.90999999999987 L 115.015625,105.67999999999986 L 115.015625,105.44999999999987 L 115.015625,105.21999999999986 L 115.015625,104.98999999999987 L 115.015625,104.75999999999988 L 115.015625,104.52999999999986 L 115.015625,104.29999999999987 L 115.015625,104.06999999999987 L 115.015625,103.83999999999986 L 115.015625,103.60999999999986 L 115.015625,103.37999999999987 L 115.015625,103.14999999999986 L 115.015625,102.91999999999987 L 115.015625,102.68999999999986 L 115.015625,102.45999999999987 L 115.015625,102.22999999999986 L 115.015625,101.99999999999986 L 115.015625,101.76999999999987 L 115.015625,101.53999999999986 L 115.015625,101.30999999999986 L 115.015625,101.07999999999987 L 115.015625,100.84999999999985 L 115.015625,100.61999999999986 L 115.015625,100.38999999999987 L 115.015625,100.15999999999985 L 115.015625,99.92999999999986 L 115.015625,99.69999999999986 L 115.015625,99.46999999999986 L 115.015625,99.23999999999987 L 115.015625,99.00999999999986 L 115.015625,98.77999999999986 L 115.015625,98.54999999999987 L 115.015625,98.31999999999985 L 115.015625,98.08999999999986 L 115.015625,97.85999999999986 L 115.015625,97.62999999999985 L 115.015625,97.39999999999986 L 115.015625,97.16999999999986 L 115.015625,96.93999999999986 L 115.015625,96.70999999999987 L 115.015625,96.47999999999985 L 115.015625,96.24999999999986 L 115.015625,96.01999999999987 L 115.015625,95.78999999999985 L 115.015625,95.55999999999986 L 115.015625,95.32999999999986 L 115.015625,95.09999999999985 L 115.015625,94.86999999999986 L 115.015625,94.63999999999984 L 115.015625,94.40999999999985 L 115.015625,94.17999999999986 L 115.015625,93.94999999999985 L 115.015625,93.71999999999986 L 115.015625,93.48999999999985 L 115.015625,93.25999999999985 L 115.015625,93.02999999999986 L 115.015625,92.79999999999986 L 115.015625,92.56999999999985 L 115.015625,92.33999999999986 L 115.015625,92.10999999999984 L 115.015625,91.87999999999985 L 115.015625,91.64999999999985 L 115.015625,91.41999999999985 L 115.015625,91.18999999999986 L 115.015625,90.95999999999985 L 115.015625,90.72999999999985 L 115.015625,90.49999999999986 L 115.015625,90.26999999999984 L 115.015625,90.03999999999985 L 115.015625,89.80999999999986 L 115.015625,89.57999999999984 L 115.015625,89.34999999999985 L 115.015625,89.11999999999985 L 115.015625,88.88999999999984 L 115.015625,88.65999999999985 L 115.015625,88.42999999999985 L 115.015625,88.19999999999985 L 115.015625,87.96999999999986 L 115.015625,87.73999999999984 L 115.015625,87.50999999999985 L 115.015625,87.27999999999984 L 115.015625,87.04999999999986 L 115.015625,86.81999999999985 L 115.015625,86.58999999999985 L 115.015625,86.35999999999984 L 115.015625,86.12999999999985 L 115.015625,85.89999999999984 L 115.015625,85.66999999999985 L 115.015625,85.43999999999986 L 115.015625,85.20999999999984 L 115.015625,84.97999999999985 L 115.015625,84.74999999999984 L 115.015625,84.51999999999984 L 115.015625,84.28999999999985 L 115.015625,84.05999999999985 L 115.015625,83.82999999999984 L 115.015625,83.59999999999985 L 115.015625,83.36999999999985 L 115.015625,83.13999999999984 L 115.015625,82.90999999999984 L 115.015625,82.67999999999985 L 115.015625,82.44999999999985 L 115.015625,82.21999999999984 L 115.015625,81.98999999999984 L 115.015625,81.75999999999985 L 115.015625,81.52999999999984 L 115.015625,81.29999999999984 L 115.015625,81.06999999999984 L 115.015625,80.83999999999985 L 115.015625,80.60999999999984 L 115.015625,80.37999999999984 L 115.015625,80.14999999999985 L 115.015625,79.91999999999985 L 115.015625,79.68999999999984 L 115.015625,79.45999999999984 L 115.015625,79.22999999999985 L 115.015625,78.99999999999984 L 115.015625,78.76999999999984 L 115.015625,78.53999999999984 L 115.015625,78.30999999999985 L 115.015625,78.07999999999984 L 115.015625,77.84999999999984 L 115.015625,77.61999999999983 L 115.015625,77.38999999999984 L 115.015625,77.15999999999984 L 115.015625,76.92999999999984 L 115.015625,76.69999999999983 L 115.015625,76.46999999999984 L 115.015625,76.23999999999984 L 115.015625,76.00999999999985 L 115.015625,75.77999999999984 L 115.015625,75.54999999999984 L 115.015625,75.31999999999984 L 115.015625,75.08999999999983 L 115.015625,74.85999999999984 L 115.015625,74.62999999999984 L 115.015625,74.39999999999984 L 115.015625,74.16999999999983 L 115.015625,73.93999999999984 L 115.015625,73.70999999999984 L 115.015625,73.47999999999985 L 115.015625,73.24999999999983 L 115.015625,73.01999999999984 L 115.015625,72.78999999999984 L 115.015625,72.55999999999983 L 115.015625,72.32999999999984 L 115.015625,72.09999999999984 L 115.015625,71.86999999999983 L 115.015625,71.63999999999984 L 115.015625,71.40999999999983 L 115.015625,71.17999999999984 L 115.015625,70.94999999999983 L 115.015625,70.71999999999983 L 115.015625,70.48999999999984 L 115.015625,70.25999999999983 L 115.015625,70.02999999999983 L 115.015625,69.79999999999984 L 115.015625,69.56999999999984 L 115.015625,69.33999999999983 L 115.015625,69.10999999999984 L 115.015625,68.87999999999982 L 115.015625,68.64999999999984 L 115.015625,68.41999999999983 L 115.015625,68.18999999999983 L 115.015625,67.95999999999984 L 115.015625,67.72999999999983 L 115.015625,67.49999999999983 L 115.015625,67.26999999999984 L 115.015625,67.03999999999984 L 115.015625,66.80999999999983 L 115.015625,66.57999999999983 L 115.015625,66.34999999999982 L 115.015625,66.11999999999983 L 115.015625,65.88999999999983 L 115.015625,65.65999999999983 L 115.015625,65.42999999999984 L 115.015625,65.19999999999983 L 115.015625,64.96999999999983 L 115.015625,64.73999999999982 L 115.015625,64.50999999999982 L 115.015625,64.27999999999983 L 115.015625,64.04999999999983 L 115.015625,63.81999999999982 L 115.015625,63.58999999999983 L 115.015625,63.35999999999983 L 115.015625,63.129999999999825 L 115.015625,62.89999999999983 L 115.015625,62.669999999999824 L 115.015625,62.43999999999983 L 115.015625,62.20999999999982 L 115.015625,61.979999999999826 L 115.015625,61.74999999999983 L 115.015625,61.519999999999825 L 115.015625,61.28999999999983 L 115.015625,61.059999999999825 L 115.015625,60.82999999999983 L 115.015625,60.59999999999983 L 115.015625,60.36999999999983 L 115.015625,60.13999999999982 L 115.015625,59.909999999999826 L 115.015625,59.67999999999982 L 115.015625,59.44999999999982 L 115.015625,59.21999999999983 L 115.015625,58.989999999999824 L 115.015625,58.75999999999983 L 115.015625,58.52999999999982 L 115.015625,58.29999999999982 L 115.015625,58.06999999999982 L 115.015625,57.83999999999982 L 115.015625,57.60999999999983 L 115.015625,57.379999999999825 L 115.015625,57.14999999999982 L 115.015625,56.919999999999824 L 115.015625,56.68999999999982 L 115.015625,56.459999999999816 L 115.015625,56.229999999999826" stroke="black" fill="none" stroke-width="5"/><path d="M 286.015625,57 L 286.015625,57 L 286.016625,57.23 L 286.017625,57.46 L 286.018625,57.69 L 286.01962499999996,57.92 L 286.020625,58.15 L 286.021625,58.38 L 286.022625,58.61 L 286.02362500000004,58.839999999999996 L 286.024625,59.07 L 286.025625,59.3 L 286.026625,59.53 L 286.027625,59.760000000000005 L 286.028625,59.99 L 286.029625,60.22 L 286.030625,60.449999999999996 L 286.03162499999996,60.68000000000001 L 286.032625,60.910000000000004 L 286.033625,61.14 L 286.03462499999995,61.370000000000005 L 286.03562500000004,61.6 L 286.036625,61.83 L 286.037625,62.06 L 286.038625,62.290000000000006 L 286.039625,62.52 L 286.040625,62.75 L 286.041625,62.980000000000004 L 286.042625,63.21 L 286.043625,63.44 L 286.044625,63.67000000000001 L 286.045625,63.900000000000006 L 286.046625,64.13 L 286.047625,64.36000000000001 L 286.04862499999996,64.59 L 286.04962500000005,64.82000000000001 L 286.050625,65.05 L 286.051625,65.28 L 286.05262500000003,65.51 L 286.053625,65.74000000000001 L 286.054625,65.97000000000001 L 286.055625,66.2 L 286.056625,66.43 L 286.057625,66.66 L 286.058625,66.89000000000001 L 286.059625,67.12 L 286.06062499999996,67.35000000000001 L 286.061625,67.58000000000001 L 286.062625,67.81 L 286.063625,68.04 L 286.06462500000004,68.27000000000001 L 286.065625,68.50000000000001 L 286.066625,68.73 L 286.067625,68.96000000000001 L 286.068625,69.19000000000001 L 286.069625,69.42000000000002 L 286.070625,69.65 L 286.071625,69.88000000000001 L 286.07262499999996,70.11000000000001 L 286.073625,70.34 L 286.07462499999997,70.57000000000002 L 286.075625,70.80000000000001 L 286.07662500000004,71.03 L 286.077625,71.26 L 286.078625,71.49000000000001 L 286.079625,71.72000000000001 L 286.080625,71.95 L 286.081625,72.18 L 286.082625,72.41000000000001 L 286.083625,72.64000000000001 L 286.08462499999996,72.87 L 286.085625,73.10000000000001 L 286.08662499999997,73.33000000000001 L 286.08762499999995,73.56 L 286.08862500000004,73.79000000000002 L 286.089625,74.02000000000001 L 286.090625,74.25000000000001 L 286.091625,74.48000000000002 L 286.092625,74.71000000000001 L 286.093625,74.94000000000001 L 286.094625,75.17000000000002 L 286.095625,75.4 L 286.096625,75.63000000000001 L 286.097625,75.86000000000001 L 286.09862499999997,76.09000000000002 L 286.09962499999995,76.32000000000002 L 286.100625,76.55000000000001 L 286.10162499999996,76.78000000000002 L 286.10262500000005,77.01000000000002 L 286.103625,77.24000000000001 L 286.104625,77.47000000000001 L 286.10562500000003,77.70000000000002 L 286.106625,77.93 L 286.107625,78.16000000000001 L 286.108625,78.39000000000001 L 286.109625,78.62000000000002 L 286.11062499999997,78.85000000000002 L 286.111625,79.08000000000001 L 286.112625,79.31000000000002 L 286.11362499999996,79.54000000000002 L 286.114625,79.77000000000001 L 286.115625,80.00000000000001 L 286.116625,80.23000000000002 L 286.11762500000003,80.46000000000001 L 286.118625,80.69000000000003 L 286.119625,80.92000000000002 L 286.120625,81.15000000000002 L 286.121625,81.38000000000001 L 286.12262499999997,81.61000000000001 L 286.123625,81.84000000000002 L 286.124625,82.07000000000002 L 286.125625,82.30000000000003 L 286.126625,82.53000000000002 L 286.127625,82.76000000000002 L 286.128625,82.99000000000002 L 286.129625,83.22000000000003 L 286.130625,83.45000000000002 L 286.131625,83.68 L 286.132625,83.91000000000003 L 286.133625,84.14000000000001 L 286.134625,84.37000000000002 L 286.135625,84.60000000000002 L 286.136625,84.83000000000001 L 286.13762499999996,85.06000000000002 L 286.138625,85.29000000000002 L 286.139625,85.52000000000002 L 286.140625,85.75000000000001 L 286.141625,85.98000000000002 L 286.142625,86.21000000000002 L 286.143625,86.44000000000003 L 286.14462499999996,86.67000000000002 L 286.145625,86.90000000000002 L 286.146625,87.13000000000002 L 286.147625,87.36000000000001 L 286.148625,87.59000000000002 L 286.149625,87.82000000000002 L 286.150625,88.05000000000001 L 286.151625,88.28000000000002 L 286.152625,88.51000000000002 L 286.153625,88.74000000000002 L 286.154625,88.97000000000003 L 286.155625,89.20000000000002 L 286.15662499999996,89.43000000000002 L 286.157625,89.66000000000003 L 286.15862500000003,89.89000000000001 L 286.159625,90.12000000000003 L 286.160625,90.35000000000002 L 286.161625,90.58000000000001 L 286.162625,90.81000000000003 L 286.16362499999997,91.04000000000002 L 286.164625,91.27000000000001 L 286.165625,91.50000000000003 L 286.166625,91.73000000000002 L 286.167625,91.96000000000002 L 286.168625,92.19000000000003 L 286.169625,92.42000000000002 L 286.170625,92.65000000000003 L 286.171625,92.88000000000002 L 286.172625,93.11000000000003 L 286.173625,93.34000000000003 L 286.174625,93.57000000000002 L 286.17562499999997,93.80000000000003 L 286.176625,94.03000000000003 L 286.177625,94.26000000000002 L 286.178625,94.49000000000002 L 286.179625,94.72000000000003 L 286.18062499999996,94.95000000000002 L 286.181625,95.18000000000002 L 286.182625,95.41000000000003 L 286.183625,95.64000000000003 L 286.184625,95.87000000000003 L 286.185625,96.10000000000002 L 286.186625,96.33000000000003 L 286.18762499999997,96.56000000000003 L 286.188625,96.79000000000002 L 286.189625,97.02000000000004 L 286.19062499999995,97.25000000000003 L 286.191625,97.48000000000002 L 286.192625,97.71000000000004 L 286.193625,97.94000000000003 L 286.194625,98.17000000000003 L 286.195625,98.40000000000003 L 286.196625,98.63000000000002 L 286.19762499999996,98.86000000000003 L 286.198625,99.09000000000003 L 286.19962499999997,99.32000000000004 L 286.200625,99.55000000000004 L 286.201625,99.78000000000003 L 286.202625,100.01000000000003 L 286.203625,100.24000000000004 L 286.204625,100.47000000000003 L 286.205625,100.70000000000003 L 286.206625,100.93000000000004 L 286.207625,101.16000000000003 L 286.208625,101.39000000000003 L 286.20962499999996,101.62000000000003 L 286.210625,101.85000000000002 L 286.211625,102.08000000000004 L 286.212625,102.31000000000003 L 286.213625,102.54000000000003 L 286.214625,102.77000000000004 L 286.215625,103.00000000000003 L 286.21662499999996,103.23000000000003 L 286.217625,103.46000000000004 L 286.218625,103.69000000000003 L 286.219625,103.92000000000004 L 286.220625,104.15000000000003 L 286.221625,104.38000000000002 L 286.222625,104.61000000000003 L 286.22362499999997,104.84000000000003 L 286.224625,105.07000000000004 L 286.225625,105.30000000000004 L 286.226625,105.53000000000003 L 286.227625,105.76000000000003 L 286.22862499999997,105.99000000000004 L 286.229625,106.22000000000004 L 286.230625,106.45000000000005 L 286.231625,106.68000000000004 L 286.232625,106.91000000000003 L 286.233625,107.14000000000004 L 286.234625,107.37000000000003 L 286.23562499999997,107.60000000000004 L 286.236625,107.83000000000004 L 286.237625,108.06000000000003 L 286.238625,108.29000000000003 L 286.239625,108.52000000000004 L 286.240625,108.75000000000003 L 286.241625,108.98000000000005 L 286.242625,109.21000000000004 L 286.24362499999995,109.44000000000004 L 286.244625,109.67000000000004 L 286.245625,109.90000000000003 L 286.246625,110.13000000000005 L 286.24762499999997,110.36000000000004 L 286.248625,110.59000000000003 L 286.249625,110.82000000000005 L 286.25062499999996,111.05000000000004 L 286.251625,111.28000000000004 L 286.25262499999997,111.51000000000003 L 286.253625,111.74000000000004 L 286.254625,111.97000000000003 L 286.255625,112.20000000000005 L 286.256625,112.43000000000005 L 286.257625,112.66000000000004 L 286.258625,112.89000000000004 L 286.259625,113.12000000000003 L 286.260625,113.35000000000005 L 286.261625,113.58000000000004 L 286.26262499999996,113.81000000000003 L 286.263625,114.04000000000005 L 286.264625,114.27000000000004 L 286.265625,114.50000000000003 L 286.26662500000003,114.73000000000005 L 286.26762499999995,114.96000000000004 L 286.268625,115.19000000000004 L 286.26962499999996,115.42000000000004 L 286.270625,115.65000000000003 L 286.271625,115.88000000000004 L 286.272625,116.11000000000004 L 286.273625,116.34000000000003 L 286.274625,116.57000000000005 L 286.275625,116.80000000000004 L 286.276625,117.03000000000004 L 286.277625,117.26000000000003 L 286.27862500000003,117.49000000000004 L 286.279625,117.72000000000004 L 286.280625,117.95000000000005 L 286.28162499999996,118.18000000000004 L 286.282625,118.41000000000004 L 286.283625,118.64000000000004 L 286.284625,118.87000000000003 L 286.285625,119.10000000000004 L 286.286625,119.33000000000004 L 286.287625,119.56000000000003 L 286.288625,119.79000000000005 L 286.289625,120.02000000000004 L 286.29062500000003,120.25000000000006 L 286.291625,120.48000000000005 L 286.29262500000004,120.71000000000004 L 286.29362499999996,120.94000000000005 L 286.294625,121.17000000000004 L 286.295625,121.40000000000003 L 286.29662500000006,121.63000000000005 L 286.297625,121.86000000000004 L 286.298625,122.09000000000006 L 286.299625,122.32000000000004 L 286.300625,122.55000000000005 L 286.30162499999994,122.78000000000003 L 286.30262500000003,123.01000000000005 L 286.303625,123.24000000000005 L 286.304625,123.47000000000006 L 286.30562499999996,123.70000000000005 L 286.306625,123.93000000000004 L 286.307625,124.16000000000005 L 286.308625,124.39000000000006 L 286.309625,124.62000000000003 L 286.310625,124.85000000000005 L 286.311625,125.08000000000004 L 286.312625,125.31000000000006 L 286.313625,125.54000000000003 L 286.314625,125.77000000000005 L 286.31562499999995,126.00000000000006 L 286.31662500000004,126.23000000000005 L 286.317625,126.46000000000005 L 286.318625,126.69000000000005 L 286.319625,126.92000000000004 L 286.320625,127.15000000000006 L 286.321625,127.38000000000005 L 286.322625,127.61000000000006 L 286.323625,127.84000000000003 L 286.324625,128.07000000000005 L 286.325625,128.30000000000007 L 286.32662500000004,128.53000000000006 L 286.327625,128.76000000000005 L 286.328625,128.99000000000007 L 286.32962499999996,129.22000000000006 L 286.33062500000005,129.45000000000005 L 286.331625,129.68000000000006 L 286.332625,129.91000000000005 L 286.333625,130.14000000000004 L 286.334625,130.37000000000006 L 286.335625,130.60000000000005 L 286.336625,130.83000000000004 L 286.337625,131.06000000000006 L 286.33862500000004,131.29000000000005 L 286.33962499999996,131.52000000000004 L 286.34062500000005,131.75000000000006 L 286.34162499999996,131.98000000000005 L 286.342625,132.21000000000004 L 286.343625,132.44000000000005 L 286.344625,132.67000000000007 L 286.345625,132.90000000000003 L 286.346625,133.13000000000005 L 286.347625,133.36000000000004 L 286.34862499999997,133.59000000000006 L 286.34962499999995,133.82000000000005 L 286.35062500000004,134.05000000000007 L 286.351625,134.28000000000006 L 286.352625,134.51000000000005 L 286.35362499999997,134.74000000000007 L 286.354625,134.97000000000008 L 286.355625,135.20000000000005 L 286.356625,135.43000000000006 L 286.357625,135.66000000000005 L 286.358625,135.89000000000007 L 286.359625,136.12000000000006 L 286.360625,136.35000000000005 L 286.361625,136.58000000000007 L 286.36262500000004,136.81000000000006 L 286.363625,137.04000000000005 L 286.36462500000005,137.27000000000004 L 286.365625,137.50000000000006 L 286.366625,137.73000000000008 L 286.367625,137.96000000000004 L 286.368625,138.19000000000005 L 286.369625,138.42000000000004 L 286.370625,138.65000000000006 L 286.371625,138.88000000000005 L 286.372625,139.11000000000007 L 286.37362499999995,139.34000000000006 L 286.37462500000004,139.57000000000005 L 286.37562499999996,139.80000000000007 L 286.37662500000005,140.03000000000006 L 286.37762499999997,140.26000000000005 L 286.378625,140.49000000000007 L 286.379625,140.72000000000006 L 286.380625,140.95000000000007 L 286.381625,141.18000000000006 L 286.382625,141.41000000000008 L 286.383625,141.64000000000007 L 286.384625,141.87000000000006 L 286.385625,142.10000000000008 L 286.386625,142.33000000000007 L 286.38762499999996,142.56000000000006 L 286.388625,142.79000000000008 L 286.38962499999997,143.02000000000007 L 286.390625,143.25000000000006 L 286.391625,143.48000000000008 L 286.392625,143.71000000000006 L 286.393625,143.94000000000005 L 286.394625,144.17000000000007 L 286.395625,144.40000000000006 L 286.39662500000003,144.63000000000005 L 286.397625,144.86000000000007 L 286.39862500000004,145.09000000000006 L 286.399625,145.32000000000005 L 286.400625,145.55000000000007 L 286.40162499999997,145.78000000000006 L 286.40262500000006,146.01000000000008 L 286.403625,146.24000000000007 L 286.404625,146.47000000000008 L 286.405625,146.70000000000005 L 286.406625,146.93000000000006 L 286.407625,147.16000000000008 L 286.40862500000003,147.39000000000007 L 286.409625,147.62000000000006 L 286.41062500000004,147.85000000000008 L 286.41162499999996,148.08000000000007 L 286.41262500000005,148.31000000000006 L 286.41362499999997,148.54000000000008 L 286.414625,148.77000000000007 L 286.415625,149.00000000000006 L 286.416625,149.23000000000008 L 286.417625,149.46000000000006 L 286.418625,149.69000000000008 L 286.419625,149.92000000000007 L 286.420625,150.15000000000006 L 286.42162499999995,150.38000000000008 L 286.42262500000004,150.61000000000007 L 286.423625,150.84000000000006 L 286.424625,151.07000000000008 L 286.42562499999997,151.30000000000007 L 286.426625,151.5300000000001 L 286.427625,151.76000000000005 L 286.428625,151.99000000000007 L 286.429625,152.22000000000006 L 286.430625,152.45000000000007 L 286.431625,152.68000000000006 L 286.43262500000003,152.91000000000008 L 286.433625,153.14000000000007 L 286.434625,153.37000000000006 L 286.43562499999996,153.60000000000008 L 286.43662500000005,153.8300000000001 L 286.437625,154.06000000000006 L 286.438625,154.29000000000008 L 286.439625,154.52000000000007 L 286.440625,154.75000000000009 L 286.441625,154.98000000000008 L 286.442625,155.2100000000001 L 286.443625,155.44000000000008 L 286.44462500000003,155.67000000000007 L 286.445625,155.9000000000001 L 286.44662500000004,156.13000000000008 L 286.44762499999996,156.36000000000007 L 286.44862500000005,156.5900000000001 L 286.44962499999997,156.82000000000008 L 286.450625,157.05000000000007 L 286.451625,157.28000000000006 L 286.452625,157.51000000000008 L 286.453625,157.74000000000007 L 286.454625,157.97000000000008 L 286.45562499999994,158.20000000000007 L 286.45662500000003,158.43000000000006 L 286.457625,158.66000000000008 L 286.458625,158.89000000000007 L 286.45962499999996,159.12000000000006 L 286.460625,159.35000000000008 L 286.46162499999997,159.58000000000007 L 286.462625,159.8100000000001 L 286.463625,160.04000000000008 L 286.464625,160.27000000000007 L 286.465625,160.50000000000006 L 286.466625,160.73000000000008 L 286.467625,160.9600000000001 L 286.46862500000003,161.19000000000008 L 286.469625,161.42000000000007 L 286.47062500000004,161.6500000000001 L 286.471625,161.88000000000008 L 286.472625,162.1100000000001 L 286.47362499999997,162.3400000000001 L 286.474625,162.57000000000008 L 286.475625,162.80000000000007 L 286.476625,163.0300000000001 L 286.477625,163.26000000000008 L 286.478625,163.4900000000001 L 286.47962499999994,163.72000000000008 L 286.48062500000003,163.95000000000007 L 286.481625,164.1800000000001 L 286.482625,164.41000000000008 L 286.48362499999996,164.6400000000001 L 286.48462500000005,164.87000000000006 L 286.48562499999997,165.10000000000008 L 286.486625,165.3300000000001 L 286.487625,165.5600000000001 L 286.48862500000007,165.7900000000001 L 286.489625,166.02000000000007 L 286.490625,166.25000000000009 L 286.491625,166.48000000000008 L 286.492625,166.7100000000001 L 286.49362499999995,166.94000000000005 L 286.49462500000004,167.17000000000007 L 286.495625,167.4000000000001 L 286.496625,167.63000000000008 L 286.49762499999997,167.8600000000001 L 286.498625,168.0900000000001 L 286.499625,168.32000000000008 L 286.500625,168.5500000000001 L 286.501625,168.7800000000001 L 286.502625,169.0100000000001 L 286.503625,169.24000000000007 L 286.50462500000003,169.47000000000008 L 286.505625,169.70000000000007 L 286.506625,169.9300000000001 L 286.50762499999996,170.16000000000008 L 286.50862500000005,170.39000000000007 L 286.509625,170.6200000000001 L 286.510625,170.85000000000008 L 286.511625,171.0800000000001 L 286.512625,171.31000000000012 L 286.513625,171.54000000000008 L 286.514625,171.7700000000001 L 286.515625,172.00000000000006 L 286.516625,172.23000000000008 L 286.517625,172.4600000000001 L 286.518625,172.69000000000008 L 286.519625,172.9200000000001 L 286.520625,173.15000000000006 L 286.521625,173.38000000000008 L 286.522625,173.61000000000007 L 286.52362500000004,173.8400000000001 L 286.524625,174.07000000000005 L 286.525625,174.30000000000007 L 286.52662499999997,174.5300000000001 L 286.527625,174.76000000000008 L 286.52862500000003,174.9900000000001 L 286.529625,175.22000000000006 L 286.530625,175.45000000000007 L 286.53162499999996,175.68000000000006 L 286.532625,175.91000000000008 L 286.53362500000003,176.1400000000001 L 286.534625,176.37000000000006 L 286.535625,176.60000000000008 L 286.536625,176.83000000000007 L 286.537625,177.0600000000001 L 286.538625,177.29000000000008 L 286.539625,177.52000000000007 L 286.540625,177.75000000000009 L 286.541625,177.98000000000008 L 286.54262500000004,178.2100000000001 L 286.543625,178.44000000000008 L 286.544625,178.67000000000007 L 286.545625,178.9000000000001 L 286.54662499999995,179.13000000000008 L 286.547625,179.3600000000001 L 286.548625,179.5900000000001 L 286.549625,179.82000000000008 L 286.55062499999997,180.05000000000007 L 286.551625,180.2800000000001 L 286.55262500000003,180.5100000000001 L 286.553625,180.74000000000007 L 286.554625,180.97000000000008 L 286.555625,181.20000000000007 L 286.556625,181.4300000000001 L 286.55762500000003,181.66000000000008 L 286.558625,181.89000000000007 L 286.559625,182.1200000000001 L 286.56062499999996,182.35000000000008 L 286.56162500000005,182.5800000000001 L 286.562625,182.8100000000001 L 286.563625,183.04000000000008 L 286.564625,183.2700000000001 L 286.56562499999995,183.50000000000009 L 286.566625,183.7300000000001 L 286.567625,183.9600000000001 L 286.568625,184.19000000000008 L 286.569625,184.42000000000007 L 286.570625,184.6500000000001 L 286.571625,184.8800000000001 L 286.572625,185.1100000000001 L 286.573625,185.3400000000001 L 286.574625,185.57000000000008 L 286.575625,185.8000000000001 L 286.57662500000004,186.0300000000001 L 286.577625,186.2600000000001 L 286.578625,186.49000000000007 L 286.579625,186.72000000000008 L 286.580625,186.9500000000001 L 286.581625,187.1800000000001 L 286.582625,187.41000000000008 L 286.583625,187.64000000000007 L 286.58462499999996,187.8700000000001 L 286.585625,188.10000000000008 L 286.586625,188.3300000000001 L 286.587625,188.5600000000001 L 286.588625,188.79000000000008 L 286.589625,189.0200000000001 L 286.590625,189.25000000000009 L 286.591625,189.4800000000001 L 286.592625,189.7100000000001 L 286.593625,189.94000000000008 L 286.594625,190.1700000000001 L 286.595625,190.4000000000001 L 286.596625,190.6300000000001 L 286.597625,190.86000000000007 L 286.59862499999997,191.0900000000001 L 286.599625,191.3200000000001 L 286.600625,191.5500000000001 L 286.601625,191.78000000000011 L 286.602625,192.01000000000008 L 286.60362499999997,192.2400000000001 L 286.604625,192.47000000000008 L 286.60562500000003,192.7000000000001 L 286.606625,192.93000000000012 L 286.607625,193.16000000000008 L 286.608625,193.3900000000001 L 286.609625,193.6200000000001 L 286.610625,193.8500000000001 L 286.611625,194.0800000000001 L 286.612625,194.3100000000001 L 286.613625,194.5400000000001 L 286.614625,194.7700000000001 L 286.615625,195.0000000000001 L 286.616625,195.23000000000008 L 286.617625,195.4600000000001 L 286.618625,195.6900000000001 L 286.619625,195.9200000000001 L 286.620625,196.15000000000012 L 286.621625,196.38000000000008 L 286.62262499999997,196.6100000000001 L 286.623625,196.8400000000001 L 286.62462500000004,197.0700000000001 L 286.625625,197.30000000000013 L 286.626625,197.5300000000001 L 286.627625,197.7600000000001 L 286.628625,197.9900000000001 L 286.62962500000003,198.2200000000001 L 286.630625,198.4500000000001 L 286.631625,198.6800000000001 L 286.632625,198.91000000000008 L 286.633625,199.1400000000001 L 286.63462499999997,199.37000000000012 L 286.635625,199.6000000000001 L 286.636625,199.8300000000001 L 286.63762499999996,200.0600000000001 L 286.638625,200.2900000000001 L 286.639625,200.5200000000001 L 286.640625,200.75000000000009 L 286.641625,200.9800000000001 L 286.642625,201.2100000000001 L 286.64362500000004,201.4400000000001 L 286.644625,201.6700000000001 L 286.645625,201.9000000000001 L 286.64662500000003,202.1300000000001 L 286.647625,202.3600000000001 L 286.648625,202.59000000000012 L 286.649625,202.8200000000001 L 286.650625,203.0500000000001 L 286.65162499999997,203.2800000000001 L 286.652625,203.5100000000001 L 286.653625,203.74000000000012 L 286.654625,203.9700000000001 L 286.655625,204.2000000000001 L 286.65662499999996,204.4300000000001 L 286.657625,204.6600000000001 L 286.65862500000003,204.8900000000001 L 286.659625,205.12000000000012 L 286.660625,205.3500000000001 L 286.661625,205.5800000000001 L 286.662625,205.81000000000012 L 286.663625,206.0400000000001 L 286.664625,206.27000000000012 L 286.66562500000003,206.5000000000001 L 286.666625,206.7300000000001 L 286.667625,206.96000000000012 L 286.668625,207.1900000000001 L 286.669625,207.4200000000001 L 286.670625,207.6500000000001 L 286.671625,207.8800000000001 L 286.672625,208.11000000000013 L 286.673625,208.34000000000012 L 286.674625,208.5700000000001 L 286.67562499999997,208.8000000000001 L 286.676625,209.03000000000011 L 286.67762500000003,209.2600000000001 L 286.678625,209.49000000000012 L 286.679625,209.72000000000008 L 286.680625,209.9500000000001 L 286.681625,210.18000000000012 L 286.68262500000003,210.4100000000001 L 286.683625,210.64000000000013 L 286.684625,210.8700000000001 L 286.685625,211.1000000000001 L 286.686625,211.3300000000001 L 286.68762499999997,211.56000000000012 L 286.688625,211.79000000000013 L 286.689625,212.0200000000001 L 286.690625,212.2500000000001 L 286.691625,212.4800000000001 L 286.692625,212.71000000000012 L 286.693625,212.9400000000001 L 286.694625,213.1700000000001 L 286.695625,213.40000000000012 L 286.69662500000004,213.6300000000001 L 286.697625,213.86000000000013 L 286.698625,214.0900000000001 L 286.699625,214.3200000000001 L 286.700625,214.55000000000013 L 286.701625,214.78000000000011 L 286.702625,215.01000000000013 L 286.703625,215.2400000000001 L 286.70462499999996,215.4700000000001 L 286.705625,215.7000000000001 L 286.706625,215.93000000000012 L 286.707625,216.16000000000014 L 286.708625,216.3900000000001 L 286.70962499999996,216.62000000000012 L 286.710625,216.8500000000001 L 286.711625,217.08000000000013 L 286.712625,217.31000000000012 L 286.713625,217.5400000000001 L 286.714625,217.77000000000012 L 286.71562500000005,218.0000000000001 L 286.716625,218.23000000000013 L 286.717625,218.46000000000012 L 286.71862500000003,218.6900000000001 L 286.719625,218.92000000000013 L 286.720625,219.15000000000012 L 286.721625,219.38000000000014 L 286.722625,219.61000000000013 L 286.72362499999997,219.84000000000012 L 286.724625,220.0700000000001 L 286.725625,220.30000000000013 L 286.726625,220.53000000000014 L 286.727625,220.7600000000001 L 286.72862499999997,220.99000000000012 L 286.729625,221.2200000000001 L 286.73062500000003,221.45000000000013 L 286.731625,221.68000000000012 L 286.732625,221.9100000000001 L 286.733625,222.1400000000001 L 286.734625,222.37000000000012 L 286.735625,222.60000000000014 L 286.736625,222.83000000000013 L 286.737625,223.06000000000012 L 286.738625,223.2900000000001 L 286.739625,223.52000000000012 L 286.740625,223.7500000000001 L 286.741625,223.98000000000013 L 286.742625,224.21000000000012 L 286.743625,224.4400000000001 L 286.744625,224.67000000000013 L 286.745625,224.90000000000012 L 286.746625,225.13000000000014 L 286.74762499999997,225.36000000000013 L 286.748625,225.59000000000012 L 286.74962500000004,225.82000000000014 L 286.750625,226.05000000000013 L 286.751625,226.28000000000014 L 286.752625,226.5100000000001 L 286.753625,226.74000000000012 L 286.75462500000003,226.97000000000014 L 286.755625,227.20000000000013 L 286.756625,227.43000000000012 L 286.75762499999996,227.6600000000001 L 286.758625,227.89000000000013 L 286.759625,228.12000000000012 L 286.760625,228.35000000000014 L 286.761625,228.58000000000013 L 286.762625,228.81000000000012 L 286.763625,229.04000000000013 L 286.764625,229.27000000000012 L 286.765625,229.50000000000014 L 286.766625,229.7300000000001 L 286.767625,229.96000000000012 L 286.76862500000004,230.19000000000014 L 286.769625,230.42000000000013 L 286.770625,230.65000000000015 L 286.77162500000003,230.8800000000001 L 286.772625,231.11000000000013 L 286.773625,231.34000000000015 L 286.774625,231.57000000000014 L 286.775625,231.80000000000015 L 286.77662499999997,232.03000000000011 L 286.777625,232.26000000000013 L 286.778625,232.49000000000012 L 286.779625,232.72000000000014 L 286.780625,232.95000000000016 L 286.781625,233.18000000000012 L 286.782625,233.41000000000014 L 286.78362500000003,233.64000000000013 L 286.784625,233.87000000000015 L 286.785625,234.1000000000001 L 286.786625,234.33000000000013 L 286.787625,234.56000000000012 L 286.788625,234.79000000000013 L 286.789625,235.02000000000015 L 286.790625,235.2500000000001 L 286.791625,235.48000000000013 L 286.792625,235.71000000000012 L 286.793625,235.94000000000014 L 286.794625,236.17000000000016 L 286.795625,236.40000000000012 L 286.796625,236.63000000000014 L 286.797625,236.86000000000013 L 286.798625,237.09000000000015 L 286.799625,237.32000000000014 L 286.80062499999997,237.55000000000013 L 286.801625,237.78000000000014 L 286.80262500000003,238.01000000000013 L 286.803625,238.24000000000015 L 286.804625,238.47000000000014 L 286.805625,238.70000000000013 L 286.806625,238.93000000000012 L 286.807625,239.16000000000014 L 286.808625,239.39000000000016 L 286.809625,239.62000000000012 L 286.810625,239.85000000000014 L 286.811625,240.08000000000013 L 286.812625,240.31000000000014 L 286.813625,240.54000000000013 L 286.814625,240.77000000000012 L 286.815625,241.00000000000014 L 286.816625,241.23000000000013 L 286.817625,241.46000000000015 L 286.818625,241.69000000000014 L 286.819625,241.92000000000013 L 286.820625,242.15000000000015 L 286.821625,242.38000000000014 L 286.822625,242.61000000000016 L 286.823625,242.84000000000015 L 286.824625,243.07000000000014 L 286.825625,243.30000000000013 L 286.826625,243.53000000000014 L 286.827625,243.76000000000016 L 286.828625,243.99000000000015 L 286.82962499999996,244.22000000000014 L 286.830625,244.45000000000013 L 286.83162500000003,244.68000000000015 L 286.832625,244.91000000000014 L 286.833625,245.14000000000016 L 286.834625,245.37000000000012 L 286.835625,245.60000000000014 L 286.836625,245.83000000000015 L 286.837625,246.06000000000014 L 286.838625,246.29000000000013 L 286.839625,246.52000000000012 L 286.840625,246.75000000000014 L 286.841625,246.98000000000013 L 286.842625,247.21000000000015 L 286.84362500000003,247.44000000000014 L 286.844625,247.67000000000013 L 286.845625,247.90000000000015 L 286.846625,248.13000000000014 L 286.847625,248.36000000000016 L 286.84862499999997,248.59000000000015 L 286.849625,248.82000000000014 L 286.850625,249.05000000000015 L 286.851625,249.28000000000014 L 286.852625,249.51000000000016 L 286.853625,249.74000000000012 L 286.854625,249.97000000000014 L 286.85562500000003,250.20000000000016 L 286.856625,250.43000000000015 L 286.857625,250.66000000000017 L 286.858625,250.89000000000013 L 286.859625,251.12000000000015 L 286.86062499999997,251.35000000000014 L 286.861625,251.58000000000015 L 286.862625,251.81000000000017 L 286.863625,252.04000000000013 L 286.864625,252.27000000000015 L 286.865625,252.50000000000014 L 286.866625,252.73000000000016 L 286.867625,252.96000000000012 L 286.868625,253.19000000000014 L 286.869625,253.42000000000016 L 286.870625,253.65000000000015 L 286.871625,253.88000000000017 L 286.87262499999997,254.11000000000013 L 286.873625,254.34000000000015 L 286.87462500000004,254.57000000000016 L 286.875625,254.80000000000015 L 286.876625,255.03000000000017 L 286.877625,255.26000000000013 L 286.878625,255.49000000000015 L 286.879625,255.72000000000014 L 286.880625,255.95000000000016 L 286.881625,256.1800000000002 L 286.88262499999996,256.41000000000014 L 286.883625,256.64000000000016 L 286.884625,256.8700000000002 L 286.885625,257.10000000000014 L 286.886625,257.33000000000015 L 286.887625,257.5600000000001 L 286.888625,257.79000000000013 L 286.889625,258.02000000000015 L 286.890625,258.25000000000017 L 286.891625,258.4800000000002 L 286.892625,258.71000000000015 L 286.893625,258.94000000000017 L 286.894625,259.17000000000013 L 286.895625,259.40000000000015 L 286.89662500000003,259.63000000000017 L 286.897625,259.8600000000001 L 286.898625,260.09000000000015 L 286.899625,260.32000000000016 L 286.900625,260.5500000000002 L 286.90162499999997,260.78000000000014 L 286.902625,261.01000000000016 L 286.90362500000003,261.2400000000002 L 286.904625,261.47000000000014 L 286.905625,261.70000000000016 L 286.906625,261.9300000000001 L 286.907625,262.16000000000014 L 286.908625,262.3900000000001 L 286.909625,262.6200000000002 L 286.910625,262.85000000000014 L 286.911625,263.08000000000015 L 286.912625,263.3100000000002 L 286.91362499999997,263.54000000000013 L 286.914625,263.77000000000015 L 286.91562500000003,264.00000000000017 L 286.916625,264.2300000000002 L 286.91762500000004,264.46000000000015 L 286.918625,264.6900000000001 L 286.919625,264.9200000000002 L 286.92062500000003,265.15000000000015 L 286.921625,265.38000000000017 L 286.922625,265.6100000000002 L 286.923625,265.84000000000015 L 286.924625,266.07000000000016 L 286.92562499999997,266.3000000000001 L 286.926625,266.5300000000002 L 286.927625,266.76000000000016 L 286.928625,266.9900000000001 L 286.92962500000004,267.2200000000002 L 286.930625,267.45000000000016 L 286.931625,267.6800000000002 L 286.93262500000003,267.91000000000014 L 286.933625,268.14000000000016 L 286.934625,268.3700000000002 L 286.935625,268.60000000000014 L 286.936625,268.8300000000002 L 286.93762499999997,269.0600000000002 L 286.938625,269.29000000000013 L 286.939625,269.52000000000015 L 286.94062499999995,269.75000000000017 L 286.94162500000004,269.9800000000002 L 286.942625,270.21000000000015 L 286.943625,270.44000000000017 L 286.94462500000003,270.6700000000002 L 286.945625,270.90000000000015 L 286.946625,271.13000000000017 L 286.947625,271.3600000000002 L 286.948625,271.59000000000015 L 286.94962499999997,271.82000000000016 L 286.950625,272.0500000000002 L 286.951625,272.2800000000002 L 286.95262499999995,272.51000000000016 L 286.953625,272.7400000000001 L 286.95462499999996,272.9700000000002 L 286.955625,273.20000000000016 L 286.95662500000003,273.4300000000002 L 286.957625,273.6600000000002 L 286.95862500000004,273.89000000000016 L 286.959625,274.1200000000002 L 286.960625,274.35000000000014 L 286.961625,274.5800000000002 L 286.962625,274.8100000000002 L 286.963625,275.04000000000013 L 286.964625,275.2700000000002 L 286.965625,275.50000000000017 L 286.96662499999996,275.73000000000013 L 286.967625,275.96000000000015 L 286.96862500000003,276.19000000000017 L 286.969625,276.4200000000002 L 286.97062500000004,276.65000000000015 L 286.971625,276.88000000000017 L 286.972625,277.1100000000002 L 286.973625,277.34000000000015 L 286.974625,277.57000000000016 L 286.975625,277.8000000000002 L 286.976625,278.03000000000014 L 286.977625,278.26000000000016 L 286.97862499999997,278.4900000000002 L 286.979625,278.7200000000002 L 286.980625,278.95000000000016 L 286.981625,279.1800000000001 L 286.98262500000004,279.4100000000002 L 286.983625,279.64000000000016 L 286.984625,279.8700000000002 L 286.985625,280.1000000000002 L 286.986625,280.33000000000015 L 286.987625,280.5600000000002 L 286.988625,280.79000000000013 L 286.989625,281.0200000000002 L 286.99062499999997,281.25000000000017 L 286.991625,281.48000000000013 L 286.992625,281.7100000000002 L 286.99362499999995,281.94000000000017 L 286.99462500000004,282.1700000000002 L 286.995625,282.40000000000015 L 286.996625,282.63000000000017 L 286.997625,282.8600000000002 L 286.998625,283.09000000000015 L 286.999625,283.3200000000002 L 287.000625,283.5500000000002 L 287.001625,283.78000000000014 L 287.00262499999997,284.01000000000016 L 287.003625,284.2400000000002 L 287.004625,284.4700000000002 L 287.005625,284.70000000000016 L 287.006625,284.9300000000002 L 287.00762499999996,285.1600000000002 L 287.00862500000005,285.39000000000016 L 287.009625,285.6200000000002 L 287.010625,285.8500000000002 L 287.01162500000004,286.08000000000015 L 287.012625,286.3100000000002 L 287.013625,286.5400000000002 L 287.014625,286.7700000000002" stroke="black" fill="none" stroke-width="5"/><path d="M 116.015625,170 L 116.015625,170 L 116.187625,170 L 116.359625,170 L 116.531625,170 L 116.703625,170 L 116.875625,170 L 117.047625,170 L 117.219625,170 L 117.391625,170 L 117.563625,170 L 117.735625,170 L 117.907625,170 L 118.079625,170 L 118.251625,170 L 118.423625,170 L 118.595625,170 L 118.767625,170 L 118.93962499999999,170 L 119.11162499999999,170 L 119.283625,170 L 119.455625,170 L 119.627625,170 L 119.79962499999999,170 L 119.97162499999999,170 L 120.14362500000001,170 L 120.31562500000001,170 L 120.48762500000001,170 L 120.659625,170 L 120.831625,170 L 121.00362500000001,170 L 121.17562500000001,170 L 121.34762500000001,170 L 121.519625,170 L 121.691625,170 L 121.86362500000001,170 L 122.03562500000001,170 L 122.20762500000001,170 L 122.379625,170 L 122.551625,170 L 122.72362500000001,170 L 122.89562500000001,170 L 123.067625,170 L 123.239625,170 L 123.411625,170 L 123.583625,170 L 123.75562500000001,170 L 123.927625,170 L 124.099625,170 L 124.271625,170 L 124.443625,170 L 124.61562500000001,170 L 124.787625,170 L 124.959625,170 L 125.131625,170 L 125.303625,170 L 125.47562500000001,170 L 125.647625,170 L 125.819625,170 L 125.991625,170 L 126.163625,170 L 126.33562500000002,170 L 126.50762500000002,170 L 126.67962500000002,170 L 126.851625,170 L 127.02362500000001,170 L 127.195625,170 L 127.367625,170 L 127.539625,170 L 127.711625,170 L 127.883625,170 L 128.055625,170 L 128.22762500000002,170 L 128.39962500000001,170 L 128.571625,169.99999999999997 L 128.743625,170 L 128.915625,170 L 129.087625,170 L 129.259625,170 L 129.431625,170 L 129.603625,170 L 129.775625,170 L 129.94762500000002,170 L 130.119625,169.99999999999997 L 130.291625,170 L 130.463625,170 L 130.635625,170 L 130.80762500000003,170 L 130.979625,170 L 131.15162500000002,170 L 131.323625,170 L 131.49562500000002,170 L 131.66762500000002,169.99999999999997 L 131.839625,170 L 132.011625,170 L 132.183625,170 L 132.355625,170 L 132.52762500000003,170 L 132.69962500000003,170 L 132.87162500000002,170 L 133.04362500000002,170 L 133.21562500000002,170 L 133.387625,170 L 133.559625,170 L 133.731625,170 L 133.903625,170 L 134.075625,170 L 134.247625,170 L 134.41962500000002,170 L 134.59162500000002,170 L 134.76362500000002,170 L 134.93562500000002,170 L 135.107625,170 L 135.279625,170 L 135.451625,170 L 135.623625,170 L 135.795625,170 L 135.967625,170 L 136.13962500000002,170 L 136.31162500000002,170 L 136.48362500000002,170 L 136.65562500000001,170 L 136.827625,170 L 136.99962500000004,170 L 137.171625,170 L 137.34362500000003,170 L 137.515625,170 L 137.687625,170 L 137.859625,169.99999999999997 L 138.03162500000002,170 L 138.20362500000002,170 L 138.375625,170 L 138.547625,170 L 138.719625,170 L 138.89162500000003,170 L 139.063625,170 L 139.23562500000003,170 L 139.407625,169.99999999999997 L 139.57962500000002,170 L 139.75162500000002,170 L 139.92362500000002,170 L 140.095625,170 L 140.267625,170 L 140.439625,170 L 140.611625,170 L 140.78362500000003,170 L 140.955625,169.99999999999997 L 141.12762500000002,170 L 141.29962500000002,170 L 141.47162500000002,170 L 141.64362500000001,170 L 141.815625,170 L 141.987625,170 L 142.159625,170 L 142.331625,170 L 142.50362500000003,169.99999999999997 L 142.67562500000003,170 L 142.84762500000002,170 L 143.01962500000002,170 L 143.19162500000002,170 L 143.363625,170 L 143.535625,170 L 143.707625,170 L 143.879625,170 L 144.051625,169.99999999999997 L 144.22362500000003,170 L 144.39562500000002,170 L 144.56762500000002,170 L 144.73962500000002,170 L 144.91162500000002,170 L 145.08362500000004,170 L 145.255625,170 L 145.42762500000003,170 L 145.599625,169.99999999999997 L 145.77162500000003,170 L 145.94362500000003,170 L 146.11562500000002,170 L 146.28762500000002,170 L 146.45962500000002,170 L 146.631625,170 L 146.803625,170 L 146.97562500000004,170 L 147.147625,169.99999999999997 L 147.31962500000003,170 L 147.491625,170 L 147.66362500000002,170 L 147.83562500000002,170 L 148.00762500000002,170 L 148.17962500000002,170 L 148.351625,170 L 148.523625,170 L 148.69562500000004,170 L 148.86762500000003,170 L 149.03962500000003,169.99999999999997 L 149.21162500000003,170 L 149.38362500000002,170 L 149.55562500000002,170 L 149.72762500000002,170 L 149.89962500000001,170 L 150.071625,170 L 150.243625,170 L 150.41562500000003,170 L 150.58762500000003,169.99999999999997 L 150.75962500000003,170 L 150.93162500000003,170 L 151.10362500000002,170 L 151.27562500000005,170 L 151.44762500000002,170 L 151.61962500000004,170 L 151.791625,170 L 151.96362500000004,170 L 152.135625,169.99999999999997 L 152.30762500000003,170 L 152.47962500000003,170 L 152.65162500000002,170 L 152.82362500000002,170 L 152.99562500000002,170 L 153.16762500000004,170 L 153.339625,170 L 153.51162500000004,170 L 153.683625,169.99999999999997 L 153.85562500000003,170 L 154.02762500000003,170 L 154.19962500000003,170 L 154.37162500000002,170 L 154.54362500000002,170 L 154.71562500000002,170 L 154.887625,170 L 155.05962500000004,170 L 155.231625,169.99999999999997 L 155.40362500000003,170 L 155.575625,170 L 155.74762500000003,170 L 155.91962500000002,170 L 156.09162500000002,170 L 156.26362500000005,170 L 156.43562500000002,170 L 156.60762500000004,170 L 156.77962500000004,169.99999999999997 L 156.95162500000004,170 L 157.12362500000003,170 L 157.29562500000003,170 L 157.46762500000003,170 L 157.63962500000002,170 L 157.81162500000005,170 L 157.98362500000002,170 L 158.15562500000004,170 L 158.327625,170 L 158.49962500000004,170 L 158.67162500000003,170 L 158.84362500000003,170 L 159.015625,170 L 159.18762500000003,170 L 159.35962500000002,170 L 159.53162500000002,170 L 159.70362500000002,170 L 159.87562500000004,170 L 160.04762500000004,170 L 160.21962500000004,170 L 160.39162500000003,170 L 160.56362500000006,170 L 160.73562500000003,170 L 160.90762500000005,170 L 161.07962500000002,170 L 161.25162500000005,170 L 161.42362500000002,170 L 161.59562500000004,170 L 161.767625,170 L 161.93962500000004,170 L 162.11162500000003,170 L 162.28362500000003,170 L 162.45562500000003,170 L 162.62762500000002,170 L 162.79962500000002,170 L 162.97162500000005,170 L 163.14362500000004,170 L 163.31562500000004,170 L 163.48762500000004,170 L 163.65962500000003,170 L 163.83162500000003,170 L 164.00362500000006,170 L 164.17562500000003,170 L 164.34762500000005,170 L 164.51962500000002,170 L 164.69162500000004,170 L 164.863625,170 L 165.03562500000004,170 L 165.207625,170 L 165.37962500000003,170 L 165.55162500000003,170 L 165.72362500000003,170 L 165.89562500000002,170 L 166.06762500000002,170 L 166.23962500000002,170 L 166.41162500000002,170 L 166.58362500000004,170 L 166.75562500000007,170 L 166.92762500000003,170 L 167.09962500000006,170 L 167.27162500000003,170 L 167.44362500000005,170 L 167.61562500000002,170 L 167.78762500000005,170 L 167.95962500000002,170 L 168.13162500000004,170 L 168.30362500000004,170 L 168.47562500000004,170 L 168.64762500000003,170 L 168.81962500000003,170 L 168.99162500000003,170 L 169.16362500000002,170 L 169.33562500000005,170 L 169.50762500000005,170 L 169.67962500000004,170 L 169.85162500000004,170 L 170.02362500000004,170 L 170.19562500000006,170 L 170.36762500000003,170 L 170.53962500000006,170 L 170.71162500000003,170 L 170.88362500000005,170 L 171.05562500000002,170 L 171.22762500000005,170 L 171.39962500000001,170 L 171.57162500000004,170 L 171.743625,170 L 171.91562500000003,170 L 172.08762500000003,170 L 172.25962500000003,170 L 172.43162500000003,170 L 172.60362500000002,170 L 172.77562500000005,170 L 172.94762500000004,170 L 173.11962500000004,170 L 173.29162500000007,170 L 173.46362500000004,170 L 173.63562500000006,170 L 173.80762500000003,170 L 173.97962500000006,170 L 174.15162500000002,170 L 174.32362500000005,170 L 174.49562500000005,170 L 174.66762500000004,170 L 174.83962500000004,170 L 175.01162500000004,170 L 175.18362500000003,170 L 175.35562500000003,170 L 175.52762500000006,170 L 175.69962500000005,170 L 175.87162500000005,170 L 176.04362500000005,170 L 176.21562500000005,170 L 176.38762500000007,170 L 176.55962500000004,170 L 176.73162500000007,170 L 176.90362500000003,170 L 177.07562500000006,170 L 177.24762500000003,170 L 177.41962500000005,170 L 177.59162500000002,170 L 177.76362500000005,170 L 177.93562500000002,170 L 178.10762500000004,170 L 178.27962500000004,170 L 178.45162500000004,170 L 178.62362500000003,170 L 178.79562500000003,170 L 178.96762500000006,170 L 179.13962500000005,170 L 179.31162500000005,170 L 179.48362500000005,170 L 179.65562500000004,170 L 179.82762500000007,170 L 179.99962500000004,170 L 180.17162500000006,170 L 180.34362500000003,170 L 180.51562500000006,170 L 180.68762500000003,170 L 180.85962500000005,170 L 181.03162500000005,170 L 181.20362500000005,170 L 181.37562500000004,170 L 181.54762500000004,170 L 181.71962500000006,170 L 181.89162500000006,170 L 182.06362500000006,170 L 182.23562500000006,170 L 182.40762500000005,170 L 182.57962500000008,170 L 182.75162500000005,170 L 182.92362500000007,170 L 183.09562500000004,170 L 183.26762500000007,170 L 183.43962500000004,170 L 183.61162500000006,170 L 183.78362500000003,170 L 183.95562500000005,170 L 184.12762500000002,170 L 184.29962500000005,170 L 184.47162500000005,170 L 184.64362500000004,170 L 184.81562500000004,170 L 184.98762500000004,170 L 185.15962500000003,170 L 185.33162500000006,170 L 185.50362500000006,170 L 185.67562500000005,170 L 185.84762500000005,170 L 186.01962500000005,170 L 186.19162500000004,170 L 186.36362500000007,170 L 186.53562500000004,170 L 186.70762500000006,170 L 186.87962500000003,170 L 187.05162500000006,170 L 187.22362500000006,170 L 187.39562500000005,170 L 187.56762500000005,170 L 187.73962500000005,170 L 187.91162500000007,170 L 188.08362500000007,170 L 188.25562500000007,170 L 188.42762500000006,170 L 188.59962500000006,170 L 188.77162500000006,170 L 188.94362500000005,170 L 189.11562500000008,170 L 189.28762500000005,170 L 189.45962500000007,170 L 189.63162500000004,170 L 189.80362500000007,170 L 189.97562500000004,170 L 190.14762500000006,170 L 190.31962500000003,170 L 190.49162500000006,170 L 190.66362500000005,170 L 190.83562500000005,170 L 191.00762500000005,170 L 191.17962500000004,170 L 191.35162500000004,170 L 191.52362500000007,170 L 191.69562500000006,170 L 191.86762500000006,170 L 192.03962500000006,170 L 192.21162500000005,170 L 192.38362500000005,170 L 192.55562500000008,170 L 192.72762500000005,170 L 192.89962500000007,170 L 193.07162500000004,170 L 193.24362500000007,170 L 193.41562500000003,170 L 193.58762500000006,170 L 193.75962500000003,170 L 193.93162500000005,170 L 194.10362500000005,170 L 194.27562500000008,170 L 194.44762500000004,170 L 194.61962500000007,170 L 194.79162500000004,170 L 194.96362500000006,170 L 195.13562500000003,170 L 195.3076250000001,170 L 195.47962500000006,170 L 195.65162500000008,170 L 195.82362500000005,170 L 195.99562500000008,170 L 196.16762500000004,170 L 196.33962500000007,170 L 196.51162500000007,170 L 196.68362500000006,170 L 196.85562500000006,170 L 197.02762500000006,170 L 197.19962500000008,170 L 197.37162500000005,170 L 197.54362500000008,170 L 197.71562500000007,170 L 197.88762500000007,170 L 198.05962500000007,170 L 198.23162500000007,170 L 198.40362500000006,170 L 198.57562500000006,170 L 198.74762500000006,170 L 198.91962500000005,170 L 199.09162500000008,170 L 199.26362500000008,170 L 199.43562500000007,170 L 199.60762500000007,170 L 199.77962500000007,170 L 199.95162500000006,170 L 200.12362500000006,170 L 200.29562500000006,170 L 200.46762500000006,170 L 200.63962500000008,170 L 200.81162500000005,170 L 200.98362500000007,170 L 201.15562500000007,170 L 201.32762500000007,170 L 201.49962500000007,170 L 201.67162500000006,170 L 201.84362500000006,170 L 202.01562500000006,170 L 202.18762500000005,170 L 202.35962500000005,170 L 202.53162500000008,170 L 202.70362500000005,170 L 202.87562500000007,170 L 203.04762500000004,170 L 203.21962500000006,170 L 203.39162500000003,170 L 203.56362500000006,170 L 203.73562500000008,170 L 203.90762500000005,170 L 204.07962500000008,170 L 204.25162500000005,170 L 204.42362500000007,170 L 204.59562500000004,170 L 204.76762500000007,170 L 204.93962500000006,170 L 205.11162500000006,170 L 205.28362500000006,170 L 205.45562500000005,170 L 205.62762500000005,170 L 205.79962500000008,170 L 205.97162500000005,170 L 206.14362500000007,170 L 206.31562500000007,170 L 206.48762500000007,170 L 206.65962500000006,170 L 206.83162500000006,170 L 207.00362500000006,170 L 207.17562500000008,170 L 207.34762500000005,170 L 207.51962500000008,170 L 207.69162500000004,170 L 207.86362500000007,170 L 208.03562500000004,170 L 208.20762500000006,170 L 208.37962500000006,170 L 208.55162500000006,170 L 208.72362500000006,170 L 208.89562500000005,170 L 209.06762500000005,170 L 209.23962500000007,170 L 209.41162500000004,170 L 209.58362500000007,170 L 209.75562500000007,170 L 209.92762500000006,170 L 210.09962500000006,170 L 210.27162500000006,170 L 210.44362500000008,170 L 210.61562500000008,170 L 210.78762500000008,170 L 210.95962500000007,170 L 211.13162500000007,170 L 211.30362500000007,170 L 211.4756250000001,170 L 211.64762500000006,170 L 211.8196250000001,170 L 211.99162500000006,170 L 212.16362500000008,170 L 212.33562500000005,170 L 212.50762500000008,170 L 212.67962500000004,170 L 212.85162500000007,170 L 213.02362500000007,170 L 213.19562500000006,170 L 213.36762500000006,170 L 213.53962500000006,170 L 213.71162500000005,170 L 213.88362500000008,170 L 214.05562500000008,170 L 214.22762500000007,170 L 214.39962500000007,170 L 214.57162500000007,170 L 214.74362500000007,170 L 214.91562500000006,170 L 215.08762500000006,170 L 215.25962500000009,170 L 215.43162500000005,170 L 215.60362500000008,170 L 215.77562500000005,170 L 215.94762500000007,170 L 216.11962500000004,170 L 216.29162500000007,170 L 216.46362500000006,170 L 216.63562500000006,170 L 216.80762500000006,170 L 216.97962500000006,170 L 217.15162500000008,170 L 217.32362500000008,170 L 217.49562500000008,170 L 217.66762500000007,170 L 217.83962500000007,170 L 218.01162500000007,170 L 218.1836250000001,170 L 218.35562500000006,170 L 218.52762500000009,170 L 218.69962500000008,170 L 218.87162500000008,170 L 219.04362500000008,170 L 219.21562500000007,170 L 219.38762500000007,170 L 219.5596250000001,170 L 219.73162500000007,170 L 219.9036250000001,170 L 220.07562500000006,170 L 220.24762500000008,170 L 220.41962500000005,170 L 220.59162500000008,170 L 220.76362500000008,170 L 220.93562500000007,170 L 221.10762500000007,170 L 221.27962500000007,170 L 221.45162500000006,170 L 221.6236250000001,170 L 221.79562500000006,170 L 221.96762500000008,170 L 222.13962500000008,170 L 222.31162500000008,170 L 222.48362500000007,170 L 222.65562500000007,170 L 222.82762500000007,170 L 222.9996250000001,170 L 223.17162500000006,170 L 223.3436250000001,170 L 223.51562500000009,170 L 223.68762500000008,170 L 223.8596250000001,170 L 224.03162500000008,170 L 224.2036250000001,170 L 224.37562500000007,170 L 224.5476250000001,170 L 224.71962500000006,170 L 224.8916250000001,170 L 225.06362500000006,170 L 225.23562500000008,170 L 225.40762500000008,170 L 225.57962500000008,170 L 225.75162500000008,170 L 225.92362500000007,170 L 226.09562500000007,170 L 226.2676250000001,170 L 226.43962500000006,170 L 226.6116250000001,170 L 226.7836250000001,170 L 226.95562500000008,170 L 227.12762500000008,170 L 227.29962500000008,170 L 227.47162500000007,170 L 227.6436250000001,170 L 227.81562500000007,170 L 227.9876250000001,170 L 228.15962500000006,170 L 228.3316250000001,170 L 228.50362500000006,170 L 228.67562500000008,170 L 228.84762500000008,170 L 229.01962500000008,170 L 229.19162500000007,170 L 229.36362500000007,170 L 229.53562500000007,170 L 229.7076250000001,170 L 229.87962500000006,170 L 230.0516250000001,170 L 230.22362500000008,170 L 230.39562500000008,170 L 230.5676250000001,170 L 230.73962500000007,170 L 230.9116250000001,170 L 231.0836250000001,170 L 231.2556250000001,170 L 231.4276250000001,170 L 231.5996250000001,170 L 231.77162500000009,170 L 231.9436250000001,170 L 232.11562500000008,170 L 232.2876250000001,170 L 232.45962500000007,170 L 232.6316250000001,170 L 232.80362500000007,170 L 232.9756250000001,170 L 233.14762500000006,170 L 233.3196250000001,170 L 233.49162500000008,170 L 233.66362500000008,170 L 233.83562500000008,170 L 234.00762500000008,170 L 234.17962500000007,170 L 234.3516250000001,170 L 234.52362500000007,170 L 234.6956250000001,170 L 234.8676250000001,170 L 235.0396250000001,170 L 235.21162500000008,170 L 235.38362500000008,170 L 235.55562500000008,170 L 235.7276250000001,170 L 235.89962500000007,170 L 236.0716250000001,170 L 236.24362500000007,170 L 236.4156250000001,170 L 236.58762500000006,170 L 236.75962500000009,170 L 236.9316250000001,170 L 237.10362500000008,170 L 237.2756250000001,170 L 237.44762500000007,170 L 237.6196250000001,170 L 237.7916250000001,170 L 237.9636250000001,170 L 238.1356250000001,170 L 238.3076250000001,170 L 238.47962500000008,170 L 238.6516250000001,170 L 238.82362500000008,170 L 238.9956250000001,170 L 239.1676250000001,170 L 239.3396250000001,170 L 239.5116250000001,170 L 239.6836250000001,170 L 239.8556250000001,170 L 240.0276250000001,170 L 240.19962500000008,170 L 240.3716250000001,170 L 240.54362500000008,170 L 240.7156250000001,170 L 240.88762500000007,170 L 241.0596250000001,170 L 241.2316250000001,170 L 241.4036250000001,170 L 241.5756250000001,170 L 241.74762500000008,170 L 241.91962500000008,170 L 242.0916250000001,170 L 242.26362500000008,170 L 242.4356250000001,170 L 242.60762500000007,170 L 242.7796250000001,170 L 242.9516250000001,170 L 243.1236250000001,170 L 243.2956250000001,170 L 243.46762500000008,170 L 243.6396250000001,170 L 243.8116250000001,170 L 243.9836250000001,170 L 244.1556250000001,170 L 244.3276250000001,170 L 244.4996250000001,170 L 244.67162500000012,170 L 244.8436250000001,170 L 245.0156250000001,170 L 245.18762500000008,170 L 245.3596250000001,170 L 245.53162500000008,170 L 245.7036250000001,170 L 245.8756250000001,170 L 246.0476250000001,170 L 246.2196250000001,170 L 246.3916250000001,170 L 246.5636250000001,170 L 246.7356250000001,170 L 246.90762500000008,170 L 247.0796250000001,170 L 247.2516250000001,170 L 247.4236250000001,170 L 247.5956250000001,170 L 247.7676250000001,170 L 247.9396250000001,170 L 248.11162500000012,170 L 248.2836250000001,170 L 248.4556250000001,170 L 248.62762500000008,170 L 248.7996250000001,170 L 248.97162500000007,170 L 249.1436250000001,170 L 249.3156250000001,170 L 249.4876250000001,170 L 249.6596250000001,170 L 249.8316250000001,170 L 250.0036250000001,170 L 250.1756250000001,170 L 250.3476250000001,170 L 250.5196250000001,170 L 250.6916250000001,170 L 250.8636250000001,170 L 251.03562500000012,170 L 251.2076250000001,170 L 251.37962500000012,170 L 251.5516250000001,170 L 251.7236250000001,170 L 251.8956250000001,170 L 252.0676250000001,170 L 252.2396250000001,170 L 252.4116250000001,170 L 252.5836250000001,170 L 252.75562500000012,170 L 252.9276250000001,170 L 253.09962500000012,170 L 253.27162500000009,170 L 253.4436250000001,170 L 253.61562500000008,170 L 253.7876250000001,170 L 253.9596250000001,170 L 254.1316250000001,170 L 254.3036250000001,170 L 254.4756250000001,170 L 254.6476250000001,170 L 254.81962500000012,170 L 254.99162500000008,170 L 255.1636250000001,170 L 255.3356250000001,170 L 255.5076250000001,170 L 255.6796250000001,170 L 255.8516250000001,170 L 256.0236250000001,170 L 256.1956250000001,170 L 256.3676250000001,170 L 256.5396250000001,170 L 256.71162500000014,170 L 256.8836250000001,170 L 257.05562500000013,170 L 257.2276250000001,170 L 257.3996250000001,170 L 257.5716250000001,170 L 257.7436250000001,170 L 257.9156250000001,170 L 258.0876250000001,170 L 258.2596250000001,170 L 258.4316250000001,170 L 258.6036250000001,170 L 258.7756250000001,170 L 258.94762500000013,170 L 259.1196250000001,170 L 259.2916250000001,170 L 259.4636250000001,170 L 259.6356250000001,170 L 259.80762500000014,170 L 259.9796250000001,170 L 260.15162500000014,170 L 260.3236250000001,170 L 260.49562500000013,170 L 260.6676250000001,170 L 260.8396250000001,170 L 261.0116250000001,170 L 261.1836250000001,170 L 261.3556250000001,170 L 261.5276250000001,170 L 261.6996250000001,170 L 261.8716250000001,170 L 262.0436250000001,170 L 262.2156250000001,170 L 262.38762500000007,170 L 262.5596250000001,170 L 262.7316250000001,170 L 262.9036250000001,170 L 263.0756250000001,170 L 263.2476250000001,170 L 263.4196250000001,170 L 263.59162500000014,170 L 263.7636250000001,170 L 263.93562500000013,170 L 264.1076250000001,170 L 264.2796250000001,170 L 264.45162500000015,170 L 264.6236250000001,170 L 264.79562500000014,170 L 264.9676250000001,170 L 265.13962500000014,170 L 265.3116250000001,170 L 265.48362500000013,170 L 265.6556250000001,170 L 265.8276250000001,170 L 265.9996250000001,170 L 266.1716250000001,170 L 266.3436250000001,170 L 266.5156250000001,170 L 266.6876250000001,170 L 266.8596250000001,170 L 267.03162500000013,170 L 267.2036250000001,170 L 267.3756250000001,170 L 267.5476250000001,170 L 267.7196250000001,170 L 267.89162500000015,170 L 268.0636250000001,170 L 268.23562500000014,170 L 268.4076250000001,170 L 268.57962500000014,170 L 268.7516250000001,170 L 268.92362500000013,170 L 269.09562500000015,170 L 269.26762500000007,170 L 269.4396250000001,170 L 269.6116250000001,170 L 269.78362500000014,170 L 269.95562500000017,170 L 270.1276250000001,170 L 270.2996250000001,170 L 270.47162500000013,170 L 270.64362500000016,170 L 270.8156250000001,170 L 270.9876250000001,170 L 271.1596250000001,170 L 271.33162500000014,170 L 271.5036250000001,170 L 271.67562500000014,170 L 271.8476250000001,170 L 272.01962500000013,170 L 272.1916250000001,170 L 272.3636250000001,170 L 272.53562500000015,170 L 272.7076250000001,170 L 272.8796250000001,170 L 273.0516250000001,170 L 273.22362500000014,170 L 273.39562500000017,170 L 273.5676250000001,170 L 273.7396250000001,170 L 273.91162500000013,170 L 274.08362500000015,170 L 274.2556250000001,170 L 274.4276250000001,170 L 274.5996250000001,170 L 274.77162500000014,170 L 274.9436250000001,170 L 275.11562500000014,170 L 275.2876250000001,170 L 275.45962500000013,170 L 275.6316250000001,170 L 275.8036250000001,170 L 275.97562500000015,170 L 276.1476250000001,170 L 276.3196250000001,170 L 276.4916250000001,170 L 276.66362500000014,170 L 276.83562500000016,170 L 277.00762500000013,170 L 277.1796250000001,170 L 277.3516250000001,170 L 277.52362500000015,170 L 277.6956250000002,170 L 277.8676250000001,170 L 278.0396250000001,170 L 278.21162500000014,170 L 278.38362500000017,170 L 278.55562500000013,170 L 278.7276250000001,170 L 278.8996250000001,170 L 279.07162500000015,170 L 279.2436250000001,170 L 279.4156250000001,170 L 279.5876250000001,170 L 279.75962500000014,170 L 279.9316250000001,170 L 280.10362500000014,170 L 280.2756250000001,170 L 280.44762500000013,170 L 280.6196250000001,170 L 280.7916250000001,170 L 280.96362500000015,170 L 281.1356250000001,170 L 281.3076250000001,170 L 281.4796250000001,170 L 281.65162500000014,170 L 281.82362500000016,170 L 281.9956250000001,170 L 282.1676250000001,170 L 282.3396250000001,170 L 282.51162500000015,170 L 282.6836250000001,170 L 282.8556250000001,170 L 283.0276250000001,170 L 283.19962500000014,170 L 283.37162500000017,170 L 283.54362500000013,170 L 283.7156250000001,170 L 283.8876250000001,170 L 284.05962500000015,170 L 284.2316250000001,170 L 284.40362500000015,170 L 284.5756250000001,170 L 284.74762500000014,170 L 284.9196250000001,170 L 285.09162500000014,170 L 285.26362500000016,170 L 285.43562500000013,170 L 285.6076250000001,170 L 285.7796250000001,170 L 285.95162500000015,170 L 286.1236250000002,170 L 286.2956250000001,170 L 286.4676250000001,170 L 286.63962500000014,170 L 286.81162500000016,170 L 286.98362500000013,170 L 287.1556250000001,170 L 287.3276250000001,170 L 287.49962500000015,170 L 287.6716250000001,170 L 287.84362500000015,170" stroke="black" fill="none" stroke-width="5"/><path d="M 0,0 L 0,0" stroke="black" fill="none" stroke-width="5"/><path d="M 0,0 L 0,0" stroke="black" fill="none" stroke-width="5"/><path d="M 0,0 L 0,0" stroke="black" fill="none" stroke-width="5"/></svg>