<?xml version="1.0" standalone="no"?>
<svg xmlns="http://www.w3.org/2000/svg" width="400" height="400" viewBox="0 0 400 400"><path d="M 202.015625,58 L 202.015625,58 L 202.015625,58.23 L 202.015625,58.46 L 202.015625,58.69 L 202.015625,58.92 L 202.015625,59.15 L 202.015625,59.38 L 202.015625,59.61 L 202.015625,59.84 L 202.015625,60.07 L 202.015625,60.300000000000004 L 202.01562499999997,60.53 L 202.015625,60.760000000000005 L 202.015625,60.99 L 202.015625,61.220000000000006 L 202.015625,61.45 L 202.015625,61.68000000000001 L 202.015625,61.91 L 202.015625,62.14 L 202.015625,62.37 L 202.015625,62.6 L 202.015625,62.83 L 202.015625,63.06 L 202.015625,63.29 L 202.015625,63.52 L 202.015625,63.75 L 202.015625,63.980000000000004 L 202.015625,64.21000000000001 L 202.015625,64.44 L 202.015625,64.67 L 202.015625,64.9 L 202.015625,65.13000000000001 L 202.015625,65.36 L 202.015625,65.59 L 202.015625,65.82000000000001 L 202.015625,66.05000000000001 L 202.015625,66.28 L 202.015625,66.51 L 202.015625,66.74000000000001 L 202.015625,66.97000000000001 L 202.015625,67.2 L 202.015625,67.43 L 202.015625,67.66000000000001 L 202.015625,67.89000000000001 L 202.015625,68.12 L 202.015625,68.35000000000001 L 202.015625,68.58000000000001 L 202.015625,68.81000000000002 L 202.015625,69.04 L 202.015625,69.27000000000001 L 202.015625,69.5 L 202.015625,69.73 L 202.015625,69.96000000000001 L 202.015625,70.19000000000001 L 202.015625,70.42 L 202.015625,70.65 L 202.015625,70.88000000000001 L 202.015625,71.11000000000001 L 202.015625,71.34 L 202.015625,71.57000000000001 L 202.015625,71.80000000000001 L 202.015625,72.03 L 202.015625,72.26 L 202.015625,72.49000000000001 L 202.015625,72.72000000000001 L 202.015625,72.95000000000002 L 202.015625,73.18 L 202.015625,73.41000000000001 L 202.015625,73.64000000000001 L 202.015625,73.87 L 202.015625,74.10000000000001 L 202.015625,74.33000000000001 L 202.015625,74.56000000000002 L 202.015625,74.79000000000002 L 202.015625,75.02000000000001 L 202.015625,75.25000000000001 L 202.015625,75.48000000000002 L 202.015625,75.71000000000001 L 202.015625,75.94000000000001 L 202.015625,76.17000000000002 L 202.015625,76.40000000000002 L 202.015625,76.63000000000001 L 202.015625,76.86000000000001 L 202.015625,77.09 L 202.015625,77.32000000000001 L 202.015625,77.55000000000001 L 202.015625,77.78000000000002 L 202.015625,78.01000000000002 L 202.015625,78.24000000000001 L 202.015625,78.47000000000001 L 202.015625,78.70000000000002 L 202.015625,78.93 L 202.015625,79.16000000000001 L 202.015625,79.39000000000001 L 202.015625,79.62000000000002 L 202.015625,79.85000000000002 L 202.015625,80.08000000000001 L 202.015625,80.31000000000002 L 202.015625,80.54000000000002 L 202.015625,80.77000000000001 L 202.015625,81.00000000000001 L 202.015625,81.23000000000002 L 202.015625,81.46000000000002 L 202.015625,81.69000000000003 L 202.015625,81.92000000000002 L 202.015625,82.15000000000002 L 202.015625,82.38000000000002 L 202.015625,82.61000000000001 L 202.015625,82.84000000000002 L 202.015625,83.07000000000002 L 202.015625,83.30000000000003 L 202.015625,83.53000000000003 L 202.015625,83.76000000000002 L 202.015625,83.99000000000001 L 202.015625,84.22000000000001 L 202.015625,84.45000000000002 L 202.015625,84.68 L 202.015625,84.91000000000003 L 202.015625,85.14000000000001 L 202.015625,85.37000000000002 L 202.015625,85.60000000000002 L 202.015625,85.83000000000001 L 202.015625,86.06000000000002 L 202.015625,86.29000000000002 L 202.015625,86.52000000000001 L 202.015625,86.75000000000001 L 202.015625,86.98000000000002 L 202.015625,87.21000000000001 L 202.015625,87.44000000000003 L 202.01562499999997,87.67000000000002 L 202.01562499999997,87.90000000000002 L 202.01562499999997,88.13000000000002 L 202.015625,88.36000000000001 L 202.015625,88.59000000000002 L 202.015625,88.82000000000002 L 202.015625,89.05000000000001 L 202.015625,89.28000000000003 L 202.015625,89.51000000000002 L 202.015625,89.74000000000002 L 202.015625,89.97000000000003 L 202.015625,90.20000000000002 L 202.015625,90.43000000000002 L 202.015625,90.66000000000003 L 202.015625,90.89000000000001 L 202.015625,91.12000000000003 L 202.015625,91.35000000000002 L 202.015625,91.58000000000001 L 202.015625,91.81000000000002 L 202.015625,92.04000000000002 L 202.015625,92.27000000000001 L 202.015625,92.50000000000003 L 202.015625,92.73000000000002 L 202.015625,92.96000000000002 L 202.01562499999997,93.19000000000003 L 202.01562499999997,93.42000000000002 L 202.01562499999997,93.65000000000002 L 202.015625,93.88000000000002 L 202.015625,94.11000000000001 L 202.015625,94.34000000000003 L 202.015625,94.57000000000002 L 202.015625,94.80000000000003 L 202.015625,95.03000000000003 L 202.015625,95.26000000000002 L 202.015625,95.49000000000002 L 202.015625,95.72000000000003 L 202.015625,95.95000000000002 L 202.015625,96.18000000000004 L 202.015625,96.41000000000003 L 202.015625,96.64000000000003 L 202.015625,96.87000000000003 L 202.015625,97.10000000000002 L 202.015625,97.33000000000003 L 202.015625,97.56000000000003 L 202.015625,97.79000000000002 L 202.015625,98.02000000000004 L 202.015625,98.25000000000003 L 202.015625,98.48000000000002 L 202.015625,98.71000000000002 L 202.015625,98.94000000000003 L 202.01562499999997,99.17000000000002 L 202.015625,99.40000000000003 L 202.015625,99.63000000000002 L 202.015625,99.86000000000003 L 202.015625,100.09000000000003 L 202.015625,100.32000000000002 L 202.015625,100.55000000000003 L 202.015625,100.78000000000003 L 202.015625,101.01000000000002 L 202.015625,101.24000000000004 L 202.015625,101.47000000000003 L 202.015625,101.70000000000003 L 202.015625,101.93000000000004 L 202.015625,102.16000000000003 L 202.015625,102.39000000000003 L 202.015625,102.62000000000003 L 202.015625,102.85000000000002 L 202.015625,103.08000000000004 L 202.015625,103.31000000000003 L 202.015625,103.54000000000003 L 202.015625,103.77000000000004 L 202.015625,104.00000000000003 L 202.015625,104.23000000000003 L 202.015625,104.46000000000004 L 202.01562499999997,104.69000000000003 L 202.015625,104.92000000000004 L 202.015625,105.15000000000003 L 202.015625,105.38000000000004 L 202.015625,105.61000000000004 L 202.015625,105.84000000000003 L 202.015625,106.07000000000002 L 202.015625,106.30000000000004 L 202.015625,106.53000000000003 L 202.015625,106.76000000000003 L 202.015625,106.99000000000004 L 202.015625,107.22000000000003 L 202.015625,107.45000000000003 L 202.015625,107.68000000000004 L 202.015625,107.91000000000003 L 202.015625,108.14000000000004 L 202.015625,108.37000000000003 L 202.015625,108.60000000000004 L 202.015625,108.83000000000004 L 202.015625,109.06000000000003 L 202.015625,109.29000000000003 L 202.015625,109.52000000000004 L 202.015625,109.75000000000004 L 202.015625,109.98000000000005 L 202.01562499999997,110.21000000000004 L 202.015625,110.44000000000003 L 202.015625,110.67000000000004 L 202.015625,110.90000000000003 L 202.015625,111.13000000000004 L 202.015625,111.36000000000004 L 202.015625,111.59000000000005 L 202.015625,111.82000000000005 L 202.015625,112.05000000000004 L 202.015625,112.28000000000003 L 202.015625,112.51000000000005 L 202.015625,112.74000000000004 L 202.015625,112.97000000000004 L 202.015625,113.20000000000003 L 202.015625,113.43000000000004 L 202.015625,113.66000000000004 L 202.015625,113.89000000000004 L 202.015625,114.12000000000003 L 202.015625,114.35000000000005 L 202.015625,114.58000000000004 L 202.015625,114.81000000000003 L 202.015625,115.04000000000003 L 202.015625,115.27000000000004 L 202.01562499999997,115.50000000000003 L 202.015625,115.73000000000005 L 202.015625,115.96000000000004 L 202.015625,116.19000000000004 L 202.015625,116.42000000000003 L 202.015625,116.65000000000005 L 202.015625,116.88000000000004 L 202.01562500000003,117.11000000000004 L 202.015625,117.34000000000003 L 202.01562500000003,117.57000000000005 L 202.015625,117.80000000000004 L 202.01562500000003,118.03000000000004 L 202.015625,118.26000000000003 L 202.01562500000003,118.49000000000005 L 202.015625,118.72000000000004 L 202.015625,118.95000000000005 L 202.015625,119.18000000000004 L 202.015625,119.41000000000005 L 202.015625,119.64000000000004 L 202.015625,119.87000000000005 L 202.01562499999997,120.10000000000004 L 202.015625,120.33000000000004 L 202.01562499999997,120.56000000000004 L 202.015625,120.79000000000005 L 202.01562499999997,121.02000000000004 L 202.015625,121.25000000000006 L 202.015625,121.48000000000005 L 202.015625,121.71000000000004 L 202.015625,121.94000000000003 L 202.015625,122.17000000000004 L 202.015625,122.40000000000003 L 202.01562500000003,122.63000000000005 L 202.015625,122.86000000000004 L 202.01562500000003,123.09000000000006 L 202.015625,123.32000000000005 L 202.01562500000003,123.55000000000004 L 202.015625,123.78000000000003 L 202.01562500000003,124.01000000000005 L 202.015625,124.24000000000004 L 202.015625,124.47000000000006 L 202.015625,124.70000000000005 L 202.015625,124.93000000000006 L 202.015625,125.16000000000005 L 202.015625,125.39000000000004 L 202.01562499999997,125.62000000000003 L 202.015625,125.85000000000005 L 202.01562499999997,126.08000000000004 L 202.015625,126.31000000000006 L 202.01562499999997,126.54000000000005 L 202.015625,126.77000000000007 L 202.015625,127.00000000000006 L 202.015625,127.23000000000005 L 202.015625,127.46000000000004 L 202.015625,127.69000000000005 L 202.015625,127.92000000000004 L 202.01562500000003,128.15000000000003 L 202.015625,128.38000000000005 L 202.01562500000003,128.61000000000007 L 202.015625,128.84000000000003 L 202.01562500000003,129.07000000000005 L 202.015625,129.30000000000004 L 202.01562500000003,129.53000000000006 L 202.015625,129.76000000000005 L 202.015625,129.99000000000007 L 202.015625,130.22000000000003 L 202.015625,130.45000000000005 L 202.015625,130.68000000000006 L 202.015625,130.91000000000005 L 202.015625,131.14000000000004 L 202.015625,131.37000000000006 L 202.015625,131.60000000000005 L 202.015625,131.83000000000004 L 202.01562499999997,132.06000000000006 L 202.015625,132.29000000000008 L 202.015625,132.52000000000004 L 202.015625,132.75000000000006 L 202.015625,132.98000000000005 L 202.015625,133.21000000000006 L 202.015625,133.44000000000005 L 202.01562500000003,133.67000000000007 L 202.015625,133.90000000000003 L 202.01562500000003,134.13000000000005 L 202.015625,134.36000000000007 L 202.015625,134.59000000000006 L 202.015625,134.82000000000005 L 202.015625,135.05000000000007 L 202.015625,135.28000000000006 L 202.015625,135.51000000000005 L 202.015625,135.74000000000004 L 202.015625,135.97000000000006 L 202.015625,136.20000000000005 L 202.015625,136.43000000000006 L 202.015625,136.66000000000005 L 202.015625,136.89000000000007 L 202.015625,137.12000000000006 L 202.015625,137.35000000000005 L 202.01562499999997,137.58000000000004 L 202.015625,137.81000000000006 L 202.015625,138.04000000000005 L 202.015625,138.27000000000007 L 202.015625,138.50000000000006 L 202.015625,138.73000000000008 L 202.015625,138.96000000000006 L 202.01562500000003,139.19000000000005 L 202.015625,139.42000000000004 L 202.01562500000003,139.65000000000006 L 202.015625,139.88000000000005 L 202.015625,140.11000000000007 L 202.015625,140.34000000000006 L 202.015625,140.57000000000008 L 202.015625,140.80000000000007 L 202.015625,141.03000000000006 L 202.015625,141.26000000000005 L 202.015625,141.49000000000007 L 202.015625,141.72000000000006 L 202.015625,141.95000000000005 L 202.015625,142.18000000000006 L 202.015625,142.41000000000008 L 202.015625,142.64000000000004 L 202.015625,142.87000000000006 L 202.015625,143.10000000000005 L 202.015625,143.33000000000007 L 202.015625,143.56000000000006 L 202.015625,143.79000000000008 L 202.015625,144.02000000000004 L 202.015625,144.25000000000006 L 202.015625,144.48000000000008 L 202.015625,144.71000000000006 L 202.015625,144.94000000000005 L 202.015625,145.17000000000007 L 202.015625,145.40000000000006 L 202.015625,145.63000000000005 L 202.015625,145.86000000000007 L 202.015625,146.0900000000001 L 202.015625,146.32000000000005 L 202.015625,146.55000000000007 L 202.015625,146.78000000000006 L 202.015625,147.01000000000008 L 202.015625,147.24000000000007 L 202.015625,147.47000000000008 L 202.015625,147.70000000000005 L 202.015625,147.93000000000006 L 202.015625,148.16000000000008 L 202.015625,148.39000000000007 L 202.015625,148.62000000000006 L 202.015625,148.85000000000008 L 202.015625,149.08000000000007 L 202.015625,149.31000000000006 L 202.015625,149.54000000000008 L 202.015625,149.77000000000007 L 202.015625,150.00000000000006 L 202.015625,150.23000000000008 L 202.015625,150.46000000000006 L 202.015625,150.69000000000008 L 202.015625,150.92000000000007 L 202.015625,151.15000000000006 L 202.015625,151.38000000000005 L 202.015625,151.61000000000007 L 202.015625,151.84000000000006 L 202.015625,152.07000000000008 L 202.015625,152.30000000000007 L 202.015625,152.5300000000001 L 202.015625,152.76000000000008 L 202.015625,152.99000000000007 L 202.015625,153.22000000000006 L 202.015625,153.45000000000007 L 202.015625,153.68000000000006 L 202.015625,153.91000000000008 L 202.015625,154.14000000000007 L 202.015625,154.3700000000001 L 202.015625,154.60000000000008 L 202.015625,154.83000000000007 L 202.015625,155.06000000000006 L 202.015625,155.29000000000008 L 202.015625,155.52000000000007 L 202.015625,155.75000000000009 L 202.015625,155.98000000000008 L 202.015625,156.2100000000001 L 202.015625,156.44000000000008 L 202.015625,156.67000000000007 L 202.015625,156.90000000000006 L 202.015625,157.13000000000008 L 202.015625,157.36000000000007 L 202.015625,157.5900000000001 L 202.015625,157.82000000000005 L 202.015625,158.05000000000007 L 202.015625,158.2800000000001 L 202.015625,158.51000000000008 L 202.015625,158.74000000000007 L 202.015625,158.97000000000008 L 202.015625,159.20000000000007 L 202.015625,159.43000000000006 L 202.015625,159.66000000000008 L 202.015625,159.8900000000001 L 202.015625,160.12000000000006 L 202.015625,160.35000000000008 L 202.015625,160.58000000000007 L 202.015625,160.8100000000001 L 202.015625,161.04000000000008 L 202.015625,161.2700000000001 L 202.015625,161.50000000000009 L 202.015625,161.73000000000008 L 202.015625,161.9600000000001 L 202.015625,162.1900000000001 L 202.015625,162.42000000000007 L 202.015625,162.6500000000001 L 202.015625,162.88000000000005 L 202.015625,163.11000000000007 L 202.015625,163.3400000000001 L 202.015625,163.57000000000008 L 202.015625,163.80000000000007 L 202.015625,164.0300000000001 L 202.015625,164.26000000000008 L 202.015625,164.4900000000001 L 202.015625,164.72000000000006 L 202.015625,164.95000000000007 L 202.015625,165.1800000000001 L 202.015625,165.41000000000008 L 202.015625,165.64000000000007 L 202.015625,165.8700000000001 L 202.015625,166.10000000000008 L 202.015625,166.3300000000001 L 202.015625,166.56000000000006 L 202.015625,166.79000000000008 L 202.015625,167.0200000000001 L 202.015625,167.25000000000009 L 202.015625,167.48000000000008 L 202.015625,167.7100000000001 L 202.015625,167.94000000000008 L 202.015625,168.1700000000001 L 202.015625,168.40000000000006 L 202.015625,168.63000000000008 L 202.015625,168.8600000000001 L 202.015625,169.0900000000001 L 202.015625,169.32000000000008 L 202.015625,169.5500000000001 L 202.015625,169.7800000000001 L 202.015625,170.0100000000001 L 202.015625,170.24000000000007 L 202.015625,170.47000000000008 L 202.015625,170.7000000000001 L 202.015625,170.9300000000001 L 202.015625,171.16000000000008 L 202.015625,171.3900000000001 L 202.015625,171.6200000000001 L 202.015625,171.8500000000001 L 202.015625,172.08000000000007 L 202.015625,172.3100000000001 L 202.015625,172.5400000000001 L 202.015625,172.7700000000001 L 202.015625,173.00000000000006 L 202.015625,173.23000000000008 L 202.015625,173.4600000000001 L 202.015625,173.69000000000005 L 202.015625,173.92000000000007 L 202.015625,174.1500000000001 L 202.015625,174.38000000000008 L 202.015625,174.61000000000007 L 202.015625,174.84000000000006 L 202.015625,175.07000000000008 L 202.015625,175.3000000000001 L 202.015625,175.5300000000001 L 202.015625,175.76000000000008 L 202.015625,175.99000000000007 L 202.015625,176.22000000000008 L 202.015625,176.4500000000001 L 202.015625,176.68000000000006 L 202.015625,176.91000000000008 L 202.015625,177.1400000000001 L 202.015625,177.37000000000006 L 202.015625,177.60000000000008 L 202.015625,177.8300000000001 L 202.015625,178.0600000000001 L 202.015625,178.29000000000008 L 202.015625,178.52000000000007 L 202.015625,178.75000000000009 L 202.015625,178.9800000000001 L 202.015625,179.21000000000006 L 202.015625,179.44000000000008 L 202.015625,179.67000000000007 L 202.015625,179.9000000000001 L 202.015625,180.13000000000008 L 202.015625,180.36000000000007 L 202.015625,180.5900000000001 L 202.015625,180.8200000000001 L 202.015625,181.05000000000007 L 202.015625,181.2800000000001 L 202.015625,181.5100000000001 L 202.015625,181.74000000000007 L 202.015625,181.97000000000008 L 202.015625,182.20000000000007 L 202.015625,182.4300000000001 L 202.015625,182.66000000000008 L 202.015625,182.89000000000007 L 202.015625,183.1200000000001 L 202.015625,183.35000000000008 L 202.015625,183.5800000000001 L 202.015625,183.8100000000001 L 202.015625,184.04000000000008 L 202.015625,184.2700000000001 L 202.015625,184.50000000000009 L 202.015625,184.73000000000008 L 202.015625,184.9600000000001 L 202.015625,185.1900000000001 L 202.015625,185.42000000000007 L 202.015625,185.6500000000001 L 202.015625,185.88000000000008 L 202.015625,186.1100000000001 L 202.015625,186.3400000000001 L 202.015625,186.57000000000008 L 202.015625,186.8000000000001 L 202.015625,187.0300000000001 L 202.015625,187.26000000000008 L 202.015625,187.4900000000001 L 202.015625,187.72000000000008 L 202.015625,187.9500000000001 L 202.015625,188.1800000000001 L 202.015625,188.41000000000008 L 202.015625,188.6400000000001 L 202.015625,188.87000000000012 L 202.015625,189.10000000000008 L 202.015625,189.3300000000001 L 202.015625,189.5600000000001 L 202.015625,189.79000000000008 L 202.015625,190.0200000000001 L 202.015625,190.25000000000009 L 202.015625,190.4800000000001 L 202.015625,190.7100000000001 L 202.015625,190.94000000000008 L 202.015625,191.1700000000001 L 202.015625,191.4000000000001 L 202.015625,191.6300000000001 L 202.015625,191.8600000000001 L 202.015625,192.0900000000001 L 202.015625,192.3200000000001 L 202.015625,192.5500000000001 L 202.015625,192.7800000000001 L 202.015625,193.0100000000001 L 202.015625,193.2400000000001 L 202.015625,193.47000000000008 L 202.015625,193.7000000000001 L 202.015625,193.9300000000001 L 202.015625,194.1600000000001 L 202.015625,194.39000000000007 L 202.015625,194.6200000000001 L 202.015625,194.8500000000001 L 202.015625,195.0800000000001 L 202.015625,195.3100000000001 L 202.015625,195.5400000000001 L 202.015625,195.7700000000001 L 202.015625,196.0000000000001 L 202.015625,196.2300000000001 L 202.015625,196.4600000000001 L 202.015625,196.6900000000001 L 202.015625,196.92000000000007 L 202.015625,197.1500000000001 L 202.015625,197.3800000000001 L 202.015625,197.6100000000001 L 202.015625,197.8400000000001 L 202.015625,198.07000000000008 L 202.015625,198.3000000000001 L 202.015625,198.53000000000011 L 202.015625,198.7600000000001 L 202.015625,198.9900000000001 L 202.015625,199.2200000000001 L 202.015625,199.4500000000001 L 202.015625,199.6800000000001 L 202.015625,199.9100000000001 L 202.015625,200.1400000000001 L 202.015625,200.37000000000012 L 202.015625,200.60000000000008 L 202.015625,200.8300000000001 L 202.015625,201.06000000000012 L 202.015625,201.2900000000001 L 202.015625,201.5200000000001 L 202.015625,201.75000000000009 L 202.015625,201.9800000000001 L 202.015625,202.21000000000012 L 202.015625,202.44000000000008 L 202.015625,202.6700000000001 L 202.015625,202.90000000000012 L 202.015625,203.1300000000001 L 202.015625,203.3600000000001 L 202.015625,203.59000000000012 L 202.015625,203.8200000000001 L 202.015625,204.05000000000013 L 202.015625,204.2800000000001 L 202.015625,204.5100000000001 L 202.015625,204.74000000000012 L 202.015625,204.97000000000008 L 202.015625,205.2000000000001 L 202.015625,205.4300000000001 L 202.015625,205.6600000000001 L 202.015625,205.8900000000001 L 202.015625,206.1200000000001 L 202.015625,206.3500000000001 L 202.015625,206.58000000000013 L 202.015625,206.8100000000001 L 202.015625,207.0400000000001 L 202.015625,207.27000000000012 L 202.015625,207.5000000000001 L 202.015625,207.7300000000001 L 202.015625,207.9600000000001 L 202.015625,208.1900000000001 L 202.015625,208.42000000000013 L 202.015625,208.6500000000001 L 202.015625,208.8800000000001 L 202.015625,209.1100000000001 L 202.015625,209.34000000000012 L 202.015625,209.5700000000001 L 202.015625,209.8000000000001 L 202.015625,210.03000000000011 L 202.015625,210.2600000000001 L 202.015625,210.4900000000001 L 202.015625,210.7200000000001 L 202.015625,210.95000000000013 L 202.015625,211.18000000000012 L 202.015625,211.4100000000001 L 202.015625,211.6400000000001 L 202.015625,211.87000000000012 L 202.015625,212.10000000000014 L 202.015625,212.3300000000001 L 202.015625,212.56000000000012 L 202.015625,212.7900000000001 L 202.015625,213.0200000000001 L 202.015625,213.2500000000001 L 202.015625,213.4800000000001 L 202.015625,213.71000000000012 L 202.015625,213.9400000000001 L 202.015625,214.1700000000001 L 202.015625,214.40000000000012 L 202.015625,214.63000000000014 L 202.015625,214.8600000000001 L 202.015625,215.09000000000012 L 202.015625,215.3200000000001 L 202.015625,215.55000000000013 L 202.015625,215.78000000000011 L 202.015625,216.0100000000001 L 202.015625,216.24000000000012 L 202.015625,216.4700000000001 L 202.015625,216.7000000000001 L 202.015625,216.93000000000012 L 202.015625,217.1600000000001 L 202.015625,217.3900000000001 L 202.015625,217.62000000000012 L 202.015625,217.8500000000001 L 202.015625,218.08000000000013 L 202.015625,218.31000000000012 L 202.015625,218.5400000000001 L 202.015625,218.77000000000012 L 202.015625,219.0000000000001 L 202.015625,219.23000000000013 L 202.015625,219.46000000000012 L 202.015625,219.6900000000001 L 202.015625,219.92000000000013 L 202.015625,220.1500000000001 L 202.015625,220.3800000000001 L 202.015625,220.61000000000013 L 202.015625,220.84000000000012 L 202.015625,221.0700000000001 L 202.015625,221.30000000000013 L 202.015625,221.53000000000011 L 202.015625,221.76000000000013 L 202.015625,221.99000000000012 L 202.015625,222.2200000000001 L 202.015625,222.45000000000013 L 202.015625,222.68000000000012 L 202.015625,222.9100000000001 L 202.015625,223.14000000000013 L 202.015625,223.37000000000012 L 202.015625,223.60000000000014 L 202.015625,223.8300000000001 L 202.015625,224.06000000000012 L 202.015625,224.29000000000013 L 202.015625,224.52000000000012 L 202.015625,224.7500000000001 L 202.015625,224.98000000000013 L 202.015625,225.21000000000012 L 202.015625,225.44000000000014 L 202.015625,225.67000000000013 L 202.015625,225.90000000000012 L 202.015625,226.13000000000014 L 202.015625,226.36000000000013 L 202.015625,226.59000000000012 L 202.015625,226.82000000000014 L 202.015625,227.05000000000013 L 202.015625,227.28000000000014 L 202.015625,227.5100000000001 L 202.015625,227.74000000000012 L 202.015625,227.97000000000014 L 202.015625,228.2000000000001 L 202.015625,228.43000000000012 L 202.015625,228.66000000000014 L 202.015625,228.89000000000013 L 202.015625,229.12000000000012 L 202.015625,229.35000000000014 L 202.015625,229.58000000000013 L 202.015625,229.81000000000014 L 202.015625,230.0400000000001 L 202.015625,230.27000000000012 L 202.015625,230.50000000000014 L 202.015625,230.73000000000013 L 202.015625,230.96000000000012 L 202.015625,231.1900000000001 L 202.015625,231.42000000000013 L 202.015625,231.65000000000015 L 202.015625,231.8800000000001 L 202.015625,232.11000000000013 L 202.015625,232.34000000000015 L 202.015625,232.57000000000014 L 202.015625,232.80000000000013 L 202.015625,233.03000000000014 L 202.015625,233.26000000000013 L 202.015625,233.49000000000012 L 202.015625,233.7200000000001 L 202.015625,233.95000000000013 L 202.015625,234.18000000000015 L 202.015625,234.41000000000014 L 202.015625,234.64000000000013 L 202.015625,234.87000000000012 L 202.015625,235.10000000000014 L 202.015625,235.33000000000013 L 202.015625,235.56000000000012 L 202.015625,235.79000000000013 L 202.015625,236.02000000000015 L 202.015625,236.2500000000001 L 202.015625,236.48000000000013 L 202.015625,236.71000000000015 L 202.015625,236.94000000000014 L 202.015625,237.17000000000013 L 202.015625,237.40000000000012 L 202.015625,237.63000000000014 L 202.015625,237.86000000000016 L 202.015625,238.09000000000012 L 202.015625,238.32000000000014 L 202.015625,238.55000000000013 L 202.015625,238.78000000000014 L 202.015625,239.01000000000013 L 202.015625,239.24000000000012 L 202.015625,239.47000000000014 L 202.015625,239.70000000000016 L 202.015625,239.93000000000012 L 202.015625,240.16000000000014 L 202.015625,240.39000000000016 L 202.015625,240.62000000000012 L 202.015625,240.85000000000014 L 202.015625,241.08000000000013 L 202.015625,241.31000000000014 L 202.015625,241.54000000000013 L 202.015625,241.77000000000012 L 202.015625,242.00000000000014 L 202.015625,242.23000000000013 L 202.015625,242.46000000000012 L 202.015625,242.69000000000014 L 202.015625,242.92000000000013 L 202.015625,243.15000000000015 L 202.015625,243.38000000000014 L 202.015625,243.61000000000013 L 202.015625,243.84000000000015 L 202.015625,244.07000000000016 L 202.015625,244.30000000000013 L 202.015625,244.53000000000014 L 202.015625,244.76000000000013 L 202.015625,244.99000000000015 L 202.015625,245.22000000000014 L 202.015625,245.45000000000013 L 202.015625,245.68000000000015 L 202.015625,245.91000000000014 L 202.015625,246.14000000000013 L 202.015625,246.37000000000015 L 202.015625,246.60000000000014 L 202.015625,246.83000000000015 L 202.015625,247.06000000000014 L 202.015625,247.29000000000013 L 202.015625,247.52000000000015 L 202.015625,247.75000000000017 L 202.015625,247.98000000000013 L 202.015625,248.21000000000015 L 202.015625,248.44000000000014 L 202.015625,248.67000000000013 L 202.015625,248.90000000000015 L 202.015625,249.13000000000014 L 202.015625,249.36000000000016 L 202.015625,249.59000000000015 L 202.015625,249.82000000000014 L 202.015625,250.05000000000015 L 202.015625,250.28000000000014 L 202.015625,250.51000000000013 L 202.015625,250.74000000000015 L 202.015625,250.97000000000014 L 202.015625,251.20000000000016 L 202.015625,251.43000000000015 L 202.015625,251.66000000000014 L 202.015625,251.89000000000016 L 202.015625,252.12000000000015 L 202.015625,252.35000000000014 L 202.015625,252.58000000000015 L 202.015625,252.81000000000014 L 202.015625,253.04000000000016 L 202.015625,253.27000000000012 L 202.015625,253.50000000000014 L 202.015625,253.73000000000016 L 202.015625,253.96000000000015 L 202.015625,254.19000000000014 L 202.015625,254.42000000000016 L 202.015625,254.65000000000015 L 202.015625,254.88000000000017 L 202.015625,255.11000000000016 L 202.015625,255.34000000000015 L 202.015625,255.57000000000016 L 202.015625,255.80000000000013 L 202.015625,256.03000000000014 L 202.015625,256.26000000000016 L 202.015625,256.4900000000001 L 202.015625,256.72000000000014 L 202.015625,256.95000000000016 L 202.015625,257.1800000000001 L 202.015625,257.41000000000014 L 202.015625,257.64000000000016 L 202.015625,257.8700000000002 L 202.015625,258.10000000000014 L 202.015625,258.33000000000015 L 202.015625,258.5600000000002 L 202.015625,258.7900000000002 L 202.015625,259.02000000000015 L 202.015625,259.25000000000017 L 202.015625,259.48000000000013 L 202.015625,259.71000000000015 L 202.015625,259.94000000000017 L 202.015625,260.17000000000013 L 202.015625,260.40000000000015 L 202.015625,260.63000000000017 L 202.015625,260.8600000000001 L 202.015625,261.09000000000015 L 202.015625,261.32000000000016 L 202.015625,261.5500000000002 L 202.015625,261.78000000000014 L 202.015625,262.01000000000016 L 202.015625,262.2400000000002 L 202.015625,262.4700000000002 L 202.015625,262.70000000000016 L 202.015625,262.9300000000001 L 202.015625,263.16000000000014 L 202.015625,263.39000000000016 L 202.015625,263.6200000000002 L 202.015625,263.8500000000002 L 202.015625,264.08000000000015 L 202.015625,264.3100000000001 L 202.015625,264.54000000000013 L 202.015625,264.77000000000015 L 202.015625,265.00000000000017 L 202.015625,265.23000000000013 L 202.015625,265.46000000000015 L 202.015625,265.69000000000017 L 202.015625,265.9200000000002 L 202.015625,266.15000000000015 L 202.015625,266.38000000000017 L 202.015625,266.6100000000001 L 202.015625,266.84000000000015 L 202.015625,267.07000000000016 L 202.015625,267.3000000000002 L 202.015625,267.5300000000002 L 202.015625,267.76000000000016 L 202.015625,267.9900000000001 L 202.015625,268.22000000000014 L 202.015625,268.45000000000016 L 202.015625,268.6800000000002 L 202.015625,268.9100000000002 L 202.015625,269.14000000000016 L 202.015625,269.3700000000002 L 202.015625,269.6000000000002 L 202.015625,269.83000000000015 L 202.015625,270.0600000000002 L 202.015625,270.29000000000013 L 202.015625,270.52000000000015 L 202.015625,270.75000000000017 L 202.015625,270.9800000000002 L 202.015625,271.2100000000002 L 202.015625,271.4400000000001 L 202.015625,271.67000000000013 L 202.015625,271.90000000000015 L 202.015625,272.13000000000017 L 202.015625,272.3600000000002 L 202.015625,272.59000000000015 L 202.015625,272.82000000000016 L 202.015625,273.0500000000002 L 202.015625,273.28000000000014 L 202.015625,273.51000000000016 L 202.015625,273.7400000000002 L 202.015625,273.97000000000014 L 202.015625,274.20000000000016 L 202.015625,274.4300000000002 L 202.015625,274.6600000000002 L 202.015625,274.8900000000002 L 202.015625,275.1200000000001 L 202.015625,275.35000000000014 L 202.015625,275.58000000000015 L 202.015625,275.8100000000002 L 202.015625,276.0400000000002 L 202.015625,276.2700000000002 L 202.015625,276.50000000000017 L 202.015625,276.7300000000002 L 202.015625,276.96000000000015 L 202.015625,277.19000000000017 L 202.015625,277.4200000000002 L 202.015625,277.65000000000015 L 202.015625,277.88000000000017 L 202.015625,278.1100000000002 L 202.015625,278.3400000000002 L 202.015625,278.57000000000016 L 202.015625,278.8000000000001 L 202.015625,279.03000000000014 L 202.015625,279.26000000000016 L 202.015625,279.4900000000002 L 202.015625,279.7200000000002 L 202.015625,279.95000000000016 L 202.015625,280.1800000000002 L 202.015625,280.41000000000014 L 202.015625,280.64000000000016 L 202.015625,280.8700000000002 L 202.015625,281.1000000000002 L 202.015625,281.33000000000015 L 202.015625,281.5600000000002 L 202.015625,281.7900000000002 L 202.015625,282.0200000000002 L 202.015625,282.25000000000017 L 202.015625,282.48000000000013 L 202.015625,282.71000000000015 L 202.015625,282.94000000000017 L 202.015625,283.1700000000002 L 202.015625,283.4000000000002 L 202.015625,283.6300000000002 L 202.015625,283.8600000000002 L 202.015625,284.09000000000015 L 202.015625,284.32000000000016 L 202.015625,284.5500000000002 L 202.015625,284.7800000000002 L 202.015625,285.01000000000016 L 202.015625,285.2400000000002 L 202.015625,285.4700000000002 L 202.015625,285.70000000000016 L 202.015625,285.9300000000002 L 202.015625,286.16000000000014 L 202.015625,286.39000000000016 L 202.015625,286.6200000000002 L 202.015625,286.8500000000002 L 202.015625,287.0800000000002 L 202.015625,287.3100000000002 L 202.015625,287.54000000000013 L 202.015625,287.77000000000015" stroke="black" fill="none" stroke-width="5"/><path d="M 0,0 L 0,0" stroke="black" fill="none" stroke-width="5"/><path d="M 0,0 L 0,0" stroke="black" fill="none" stroke-width="5"/><path d="M 0,0 L 0,0" stroke="black" fill="none" stroke-width="5"/><path d="M 0,0 L 0,0" stroke="black" fill="none" stroke-width="5"/><path d="M 0,0 L 0,0" stroke="black" fill="none" stroke-width="5"/></svg>