<?xml version="1.0" standalone="no"?>
<svg xmlns="http://www.w3.org/2000/svg" width="400" height="400" viewBox="0 0 400 400"><path d="M 287.015625,57 L 287.015625,57 L 287.014625,57.229 L 287.013625,57.458000000000006 L 287.012625,57.687 L 287.01162500000004,57.916 L 287.010625,58.144999999999996 L 287.009625,58.374 L 287.008625,58.603 L 287.00762499999996,58.831999999999994 L 287.006625,59.061 L 287.005625,59.29 L 287.004625,59.519 L 287.003625,59.748000000000005 L 287.002625,59.977000000000004 L 287.001625,60.206 L 287.000625,60.434999999999995 L 286.99962500000004,60.664 L 286.998625,60.893 L 286.997625,61.122 L 286.99662500000005,61.351000000000006 L 286.99562499999996,61.580000000000005 L 286.994625,61.809 L 286.993625,62.038000000000004 L 286.992625,62.267 L 286.991625,62.496 L 286.99062499999997,62.725 L 286.989625,62.95400000000001 L 286.988625,63.18300000000001 L 286.987625,63.412 L 286.986625,63.641000000000005 L 286.985625,63.870000000000005 L 286.984625,64.099 L 286.983625,64.328 L 286.982625,64.557 L 286.98162499999995,64.786 L 286.980625,65.015 L 286.979625,65.244 L 286.97862499999997,65.47300000000001 L 286.977625,65.702 L 286.976625,65.93100000000001 L 286.975625,66.16000000000001 L 286.974625,66.38900000000001 L 286.973625,66.61800000000001 L 286.972625,66.84700000000001 L 286.971625,67.07600000000001 L 286.97062500000004,67.305 L 286.96962499999995,67.534 L 286.968625,67.763 L 286.967625,67.992 L 286.96662499999996,68.221 L 286.965625,68.45000000000002 L 286.964625,68.679 L 286.963625,68.908 L 286.962625,69.13700000000001 L 286.961625,69.36600000000001 L 286.960625,69.59500000000001 L 286.959625,69.82400000000001 L 286.95862500000004,70.05300000000001 L 286.957625,70.28200000000001 L 286.95662500000003,70.51100000000001 L 286.955625,70.74000000000001 L 286.95462499999996,70.96900000000001 L 286.953625,71.19800000000001 L 286.952625,71.427 L 286.951625,71.656 L 286.950625,71.885 L 286.949625,72.114 L 286.948625,72.34300000000002 L 286.947625,72.572 L 286.94662500000004,72.801 L 286.945625,73.03000000000002 L 286.94462500000003,73.25900000000001 L 286.943625,73.488 L 286.94262499999996,73.71700000000001 L 286.941625,73.94600000000001 L 286.94062499999995,74.17500000000001 L 286.939625,74.40400000000001 L 286.938625,74.63300000000001 L 286.93762499999997,74.86200000000001 L 286.936625,75.09100000000001 L 286.935625,75.32000000000002 L 286.934625,75.549 L 286.933625,75.778 L 286.93262500000003,76.00700000000002 L 286.931625,76.23600000000002 L 286.93062499999996,76.465 L 286.929625,76.69400000000002 L 286.92862499999995,76.92300000000002 L 286.927625,77.15200000000002 L 286.926625,77.38100000000001 L 286.92562499999997,77.61000000000001 L 286.924625,77.83900000000001 L 286.923625,78.06800000000001 L 286.922625,78.29700000000003 L 286.921625,78.52600000000001 L 286.92062500000003,78.75500000000001 L 286.919625,78.98400000000001 L 286.918625,79.21300000000002 L 286.91762500000004,79.44200000000001 L 286.91662499999995,79.67100000000002 L 286.915625,79.90000000000002 L 286.914625,80.12900000000002 L 286.91362499999997,80.35800000000002 L 286.912625,80.58700000000002 L 286.911625,80.81600000000002 L 286.910625,81.04500000000002 L 286.909625,81.27400000000002 L 286.90862500000003,81.50300000000001 L 286.907625,81.73200000000001 L 286.906625,81.96100000000001 L 286.905625,82.19000000000003 L 286.904625,82.41900000000001 L 286.90362500000003,82.64800000000002 L 286.902625,82.87700000000002 L 286.90162499999997,83.10600000000002 L 286.900625,83.33500000000001 L 286.899625,83.56400000000002 L 286.898625,83.79300000000002 L 286.897625,84.02200000000002 L 286.896625,84.25100000000002 L 286.895625,84.48000000000002 L 286.894625,84.70900000000003 L 286.893625,84.93800000000002 L 286.892625,85.16700000000003 L 286.89162500000003,85.39600000000002 L 286.890625,85.62500000000001 L 286.88962499999997,85.85400000000001 L 286.888625,86.08300000000003 L 286.887625,86.31200000000001 L 286.886625,86.54100000000003 L 286.885625,86.77000000000002 L 286.884625,86.99900000000002 L 286.883625,87.22800000000001 L 286.88262499999996,87.45700000000002 L 286.881625,87.68600000000002 L 286.880625,87.91500000000002 L 286.879625,88.14400000000002 L 286.878625,88.37300000000002 L 286.87762499999997,88.60200000000002 L 286.876625,88.83100000000002 L 286.875625,89.06000000000003 L 286.874625,89.28900000000002 L 286.873625,89.51800000000003 L 286.87262499999997,89.74700000000001 L 286.871625,89.97600000000003 L 286.87062499999996,90.20500000000001 L 286.869625,90.43400000000003 L 286.868625,90.66300000000003 L 286.867625,90.89200000000002 L 286.866625,91.12100000000002 L 286.865625,91.35000000000002 L 286.864625,91.57900000000002 L 286.86362499999996,91.80800000000002 L 286.862625,92.03700000000002 L 286.861625,92.26600000000002 L 286.86062499999997,92.49500000000003 L 286.859625,92.72400000000002 L 286.85862499999996,92.95300000000003 L 286.857625,93.18200000000002 L 286.856625,93.41100000000003 L 286.855625,93.64000000000003 L 286.854625,93.86900000000003 L 286.853625,94.09800000000003 L 286.852625,94.32700000000003 L 286.851625,94.55600000000003 L 286.850625,94.78500000000003 L 286.849625,95.01400000000002 L 286.84862499999997,95.24300000000002 L 286.847625,95.47200000000004 L 286.846625,95.70100000000002 L 286.845625,95.93000000000002 L 286.844625,96.15900000000002 L 286.843625,96.38800000000003 L 286.842625,96.61700000000002 L 286.841625,96.84600000000003 L 286.840625,97.07500000000003 L 286.839625,97.30400000000003 L 286.838625,97.53300000000003 L 286.837625,97.76200000000003 L 286.83662499999997,97.99100000000003 L 286.835625,98.22000000000003 L 286.834625,98.44900000000004 L 286.833625,98.67800000000003 L 286.832625,98.90700000000002 L 286.83162500000003,99.13600000000002 L 286.830625,99.36500000000004 L 286.82962499999996,99.59400000000002 L 286.828625,99.82300000000004 L 286.827625,100.05200000000004 L 286.826625,100.28100000000003 L 286.825625,100.51000000000002 L 286.82462499999997,100.73900000000003 L 286.823625,100.96800000000003 L 286.822625,101.19700000000003 L 286.821625,101.42600000000004 L 286.820625,101.65500000000003 L 286.819625,101.88400000000003 L 286.818625,102.11300000000003 L 286.81762499999996,102.34200000000004 L 286.816625,102.57100000000003 L 286.815625,102.80000000000004 L 286.814625,103.02900000000002 L 286.813625,103.25800000000004 L 286.812625,103.48700000000002 L 286.811625,103.71600000000004 L 286.81062499999996,103.94500000000004 L 286.809625,104.17400000000004 L 286.808625,104.40300000000003 L 286.807625,104.63200000000003 L 286.806625,104.86100000000003 L 286.80562499999996,105.09000000000003 L 286.804625,105.31900000000005 L 286.803625,105.54800000000003 L 286.802625,105.77700000000004 L 286.801625,106.00600000000003 L 286.800625,106.23500000000004 L 286.799625,106.46400000000003 L 286.798625,106.69300000000004 L 286.797625,106.92200000000004 L 286.796625,107.15100000000004 L 286.795625,107.38000000000004 L 286.794625,107.60900000000004 L 286.793625,107.83800000000004 L 286.792625,108.06700000000004 L 286.79162499999995,108.29600000000003 L 286.790625,108.52500000000003 L 286.789625,108.75400000000005 L 286.78862499999997,108.98300000000003 L 286.787625,109.21200000000005 L 286.78662499999996,109.44100000000005 L 286.785625,109.67000000000003 L 286.784625,109.89900000000003 L 286.783625,110.12800000000004 L 286.782625,110.35700000000003 L 286.781625,110.58600000000004 L 286.780625,110.81500000000004 L 286.779625,111.04400000000004 L 286.77862500000003,111.27300000000004 L 286.777625,111.50200000000004 L 286.77662499999997,111.73100000000005 L 286.775625,111.96000000000004 L 286.774625,112.18900000000005 L 286.773625,112.41800000000005 L 286.772625,112.64700000000003 L 286.771625,112.87600000000003 L 286.770625,113.10500000000005 L 286.76962499999996,113.33400000000003 L 286.768625,113.56300000000005 L 286.767625,113.79200000000004 L 286.766625,114.02100000000004 L 286.765625,114.25000000000003 L 286.764625,114.47900000000004 L 286.763625,114.70800000000003 L 286.762625,114.93700000000004 L 286.761625,115.16600000000003 L 286.760625,115.39500000000004 L 286.759625,115.62400000000004 L 286.758625,115.85300000000004 L 286.75762499999996,116.08200000000005 L 286.75662500000004,116.31100000000005 L 286.755625,116.54000000000005 L 286.75462500000003,116.76900000000003 L 286.753625,116.99800000000003 L 286.752625,117.22700000000003 L 286.751625,117.45600000000003 L 286.750625,117.68500000000004 L 286.749625,117.91400000000004 L 286.748625,118.14300000000004 L 286.74762499999997,118.37200000000004 L 286.746625,118.60100000000006 L 286.74562499999996,118.83000000000004 L 286.74462500000004,119.05900000000005 L 286.743625,119.28800000000004 L 286.742625,119.51700000000005 L 286.741625,119.74600000000004 L 286.740625,119.97500000000005 L 286.739625,120.20400000000004 L 286.738625,120.43300000000005 L 286.737625,120.66200000000003 L 286.736625,120.89100000000005 L 286.73562499999997,121.12000000000003 L 286.73462500000005,121.34900000000005 L 286.73362499999996,121.57800000000005 L 286.732625,121.80700000000004 L 286.731625,122.03600000000004 L 286.73062500000003,122.26500000000006 L 286.72962499999994,122.49400000000006 L 286.728625,122.72300000000004 L 286.727625,122.95200000000004 L 286.726625,123.18100000000004 L 286.725625,123.41000000000004 L 286.724625,123.63900000000004 L 286.72362499999997,123.86800000000005 L 286.722625,124.09700000000005 L 286.721625,124.32600000000005 L 286.72062500000004,124.55500000000005 L 286.71962499999995,124.78400000000005 L 286.71862500000003,125.01300000000006 L 286.717625,125.24200000000005 L 286.716625,125.47100000000006 L 286.715625,125.70000000000005 L 286.714625,125.92900000000004 L 286.713625,126.15800000000004 L 286.712625,126.38700000000006 L 286.71162499999997,126.61600000000004 L 286.710625,126.84500000000006 L 286.70962499999996,127.07400000000004 L 286.708625,127.30300000000005 L 286.707625,127.53200000000004 L 286.70662500000003,127.76100000000005 L 286.705625,127.99000000000005 L 286.704625,128.21900000000005 L 286.703625,128.44800000000006 L 286.702625,128.67700000000005 L 286.701625,128.90600000000003 L 286.70062500000006,129.13500000000005 L 286.69962499999997,129.36400000000003 L 286.698625,129.59300000000005 L 286.69762499999996,129.82200000000006 L 286.69662500000004,130.05100000000004 L 286.69562499999995,130.28000000000006 L 286.69462500000003,130.50900000000007 L 286.693625,130.73800000000006 L 286.692625,130.96700000000007 L 286.691625,131.19600000000005 L 286.690625,131.42500000000004 L 286.689625,131.65400000000005 L 286.688625,131.88300000000004 L 286.687625,132.11200000000005 L 286.686625,132.34100000000007 L 286.68562499999996,132.57000000000005 L 286.68462500000004,132.79900000000006 L 286.683625,133.02800000000005 L 286.68262500000003,133.25700000000006 L 286.681625,133.48600000000005 L 286.680625,133.71500000000006 L 286.679625,133.94400000000007 L 286.678625,134.17300000000006 L 286.677625,134.40200000000004 L 286.676625,134.63100000000006 L 286.67562499999997,134.86000000000004 L 286.674625,135.08900000000006 L 286.673625,135.31800000000004 L 286.67262500000004,135.54700000000005 L 286.671625,135.77600000000007 L 286.67062500000003,136.00500000000005 L 286.669625,136.23400000000007 L 286.668625,136.46300000000008 L 286.667625,136.69200000000006 L 286.666625,136.92100000000005 L 286.665625,137.15000000000006 L 286.664625,137.37900000000005 L 286.66362499999997,137.60800000000006 L 286.66262500000005,137.83700000000005 L 286.66162499999996,138.06600000000006 L 286.660625,138.29500000000007 L 286.659625,138.52400000000006 L 286.65862500000003,138.75300000000007 L 286.657625,138.98200000000006 L 286.656625,139.21100000000007 L 286.655625,139.44000000000005 L 286.654625,139.66900000000007 L 286.653625,139.89800000000005 L 286.652625,140.12700000000007 L 286.65162499999997,140.35600000000005 L 286.65062500000005,140.58500000000006 L 286.649625,140.81400000000005 L 286.64862500000004,141.04300000000006 L 286.64762499999995,141.27200000000005 L 286.64662500000003,141.50100000000006 L 286.645625,141.73000000000008 L 286.644625,141.95900000000006 L 286.643625,142.18800000000005 L 286.642625,142.4170000000001 L 286.641625,142.64600000000007 L 286.640625,142.87500000000006 L 286.63962499999997,143.10400000000007 L 286.638625,143.33300000000006 L 286.637625,143.56200000000007 L 286.636625,143.79100000000005 L 286.635625,144.02000000000007 L 286.634625,144.24900000000008 L 286.633625,144.47800000000007 L 286.632625,144.70700000000008 L 286.631625,144.93600000000006 L 286.630625,145.16500000000008 L 286.629625,145.39400000000006 L 286.62862500000006,145.62300000000008 L 286.62762499999997,145.85200000000006 L 286.626625,146.08100000000007 L 286.62562499999996,146.31000000000006 L 286.62462500000004,146.53900000000007 L 286.62362499999995,146.76800000000006 L 286.622625,146.99700000000007 L 286.621625,147.22600000000006 L 286.620625,147.45500000000007 L 286.619625,147.68400000000008 L 286.618625,147.91300000000007 L 286.617625,148.14200000000005 L 286.616625,148.37100000000007 L 286.615625,148.60000000000008 L 286.61462500000005,148.82900000000006 L 286.61362499999996,149.05800000000005 L 286.61262500000004,149.28700000000006 L 286.611625,149.51600000000008 L 286.610625,149.74500000000006 L 286.609625,149.97400000000007 L 286.608625,150.2030000000001 L 286.607625,150.43200000000007 L 286.606625,150.66100000000006 L 286.605625,150.89000000000007 L 286.604625,151.11900000000009 L 286.60362499999997,151.34800000000007 L 286.602625,151.57700000000008 L 286.601625,151.80600000000007 L 286.60062500000004,152.03500000000008 L 286.599625,152.26400000000007 L 286.598625,152.49300000000008 L 286.597625,152.72200000000007 L 286.596625,152.95100000000008 L 286.595625,153.18000000000006 L 286.594625,153.40900000000008 L 286.593625,153.63800000000006 L 286.592625,153.86700000000008 L 286.59162499999996,154.09600000000006 L 286.59062500000005,154.32500000000007 L 286.58962499999996,154.5540000000001 L 286.588625,154.78300000000007 L 286.587625,155.01200000000006 L 286.586625,155.24100000000007 L 286.585625,155.47000000000008 L 286.584625,155.69900000000007 L 286.583625,155.92800000000005 L 286.582625,156.15700000000007 L 286.581625,156.38600000000008 L 286.580625,156.61500000000007 L 286.57962499999996,156.84400000000008 L 286.57862500000005,157.0730000000001 L 286.577625,157.30200000000008 L 286.57662500000004,157.5310000000001 L 286.57562499999995,157.76000000000008 L 286.574625,157.9890000000001 L 286.573625,158.21800000000007 L 286.572625,158.4470000000001 L 286.571625,158.67600000000007 L 286.570625,158.9050000000001 L 286.569625,159.13400000000007 L 286.568625,159.36300000000008 L 286.567625,159.59200000000007 L 286.56662500000004,159.82100000000008 L 286.56562499999995,160.05000000000007 L 286.564625,160.27900000000008 L 286.563625,160.5080000000001 L 286.562625,160.73700000000008 L 286.561625,160.9660000000001 L 286.560625,161.1950000000001 L 286.559625,161.4240000000001 L 286.558625,161.6530000000001 L 286.557625,161.8820000000001 L 286.55662500000005,162.1110000000001 L 286.55562499999996,162.34000000000006 L 286.554625,162.56900000000007 L 286.553625,162.79800000000006 L 286.55262500000003,163.02700000000007 L 286.55162499999994,163.25600000000009 L 286.55062499999997,163.48500000000007 L 286.549625,163.71400000000008 L 286.548625,163.94300000000007 L 286.547625,164.17200000000008 L 286.54662500000006,164.40100000000007 L 286.545625,164.63000000000008 L 286.544625,164.8590000000001 L 286.543625,165.08800000000008 L 286.54262500000004,165.3170000000001 L 286.54162499999995,165.54600000000008 L 286.54062500000003,165.7750000000001 L 286.539625,166.00400000000008 L 286.538625,166.2330000000001 L 286.53762499999993,166.4620000000001 L 286.536625,166.6910000000001 L 286.535625,166.9200000000001 L 286.534625,167.1490000000001 L 286.53362500000003,167.3780000000001 L 286.532625,167.6070000000001 L 286.53162499999996,167.8360000000001 L 286.530625,168.06500000000008 L 286.529625,168.29400000000007 L 286.52862500000003,168.52300000000008 L 286.527625,168.75200000000007 L 286.526625,168.98100000000008 L 286.525625,169.21000000000006 L 286.524625,169.43900000000008 L 286.523625,169.66800000000006 L 286.522625,169.89700000000008 L 286.521625,170.1260000000001 L 286.520625,170.35500000000008 L 286.519625,170.5840000000001 L 286.51862500000004,170.8130000000001 L 286.51762499999995,171.0420000000001 L 286.516625,171.2710000000001 L 286.515625,171.50000000000006 L 286.514625,171.72900000000007 L 286.513625,171.95800000000008 L 286.512625,172.18700000000007 L 286.511625,172.41600000000008 L 286.510625,172.64500000000007 L 286.509625,172.87400000000008 L 286.508625,173.10300000000007 L 286.50762499999996,173.33200000000008 L 286.506625,173.5610000000001 L 286.505625,173.79000000000008 L 286.50462500000003,174.0190000000001 L 286.503625,174.24800000000008 L 286.50262499999997,174.4770000000001 L 286.501625,174.70600000000007 L 286.500625,174.9350000000001 L 286.49962500000004,175.1640000000001 L 286.498625,175.3930000000001 L 286.49762499999997,175.6220000000001 L 286.496625,175.85100000000008 L 286.495625,176.0800000000001 L 286.494625,176.30900000000008 L 286.493625,176.53800000000007 L 286.492625,176.76700000000005 L 286.491625,176.99600000000007 L 286.490625,177.22500000000008 L 286.489625,177.45400000000006 L 286.48862499999996,177.68300000000008 L 286.487625,177.91200000000006 L 286.486625,178.14100000000008 L 286.485625,178.37000000000006 L 286.48462500000005,178.59900000000007 L 286.483625,178.8280000000001 L 286.482625,179.05700000000007 L 286.481625,179.2860000000001 L 286.48062500000003,179.51500000000007 L 286.479625,179.74400000000009 L 286.47862499999997,179.9730000000001 L 286.477625,180.20200000000008 L 286.476625,180.4310000000001 L 286.475625,180.66000000000008 L 286.474625,180.8890000000001 L 286.47362499999997,181.1180000000001 L 286.472625,181.3470000000001 L 286.471625,181.5760000000001 L 286.47062500000004,181.8050000000001 L 286.46962499999995,182.0340000000001 L 286.468625,182.2630000000001 L 286.467625,182.49200000000008 L 286.466625,182.72100000000006 L 286.46562500000005,182.95000000000007 L 286.464625,183.1790000000001 L 286.463625,183.40800000000007 L 286.462625,183.63700000000009 L 286.461625,183.86600000000007 L 286.460625,184.09500000000008 L 286.459625,184.32400000000007 L 286.458625,184.55300000000008 L 286.457625,184.7820000000001 L 286.456625,185.01100000000008 L 286.455625,185.2400000000001 L 286.45462499999996,185.46900000000008 L 286.453625,185.6980000000001 L 286.452625,185.92700000000008 L 286.45162500000004,186.1560000000001 L 286.450625,186.3850000000001 L 286.44962499999997,186.6140000000001 L 286.448625,186.8430000000001 L 286.447625,187.0720000000001 L 286.446625,187.3010000000001 L 286.445625,187.5300000000001 L 286.44462500000003,187.7590000000001 L 286.443625,187.9880000000001 L 286.442625,188.21700000000007 L 286.441625,188.44600000000008 L 286.440625,188.67500000000007 L 286.439625,188.90400000000008 L 286.438625,189.1330000000001 L 286.437625,189.36200000000008 L 286.436625,189.5910000000001 L 286.43562499999996,189.82000000000008 L 286.434625,190.0490000000001 L 286.433625,190.27800000000008 L 286.43262500000003,190.5070000000001 L 286.431625,190.7360000000001 L 286.430625,190.9650000000001 L 286.429625,191.1940000000001 L 286.428625,191.4230000000001 L 286.427625,191.6520000000001 L 286.426625,191.88100000000009 L 286.425625,192.1100000000001 L 286.424625,192.3390000000001 L 286.423625,192.5680000000001 L 286.422625,192.7970000000001 L 286.421625,193.0260000000001 L 286.420625,193.2550000000001 L 286.419625,193.4840000000001 L 286.418625,193.7130000000001 L 286.41762500000004,193.94200000000012 L 286.41662499999995,194.17100000000008 L 286.415625,194.4000000000001 L 286.414625,194.62900000000008 L 286.413625,194.8580000000001 L 286.412625,195.0870000000001 L 286.411625,195.3160000000001 L 286.410625,195.5450000000001 L 286.409625,195.7740000000001 L 286.40862500000003,196.0030000000001 L 286.407625,196.23200000000008 L 286.406625,196.4610000000001 L 286.405625,196.6900000000001 L 286.404625,196.9190000000001 L 286.403625,197.1480000000001 L 286.402625,197.3770000000001 L 286.40162499999997,197.6060000000001 L 286.400625,197.8350000000001 L 286.399625,198.0640000000001 L 286.39862500000004,198.29300000000012 L 286.397625,198.5220000000001 L 286.396625,198.75100000000012 L 286.395625,198.9800000000001 L 286.394625,199.20900000000012 L 286.393625,199.4380000000001 L 286.392625,199.66700000000012 L 286.391625,199.89600000000013 L 286.390625,200.12500000000009 L 286.389625,200.3540000000001 L 286.388625,200.58300000000008 L 286.387625,200.8120000000001 L 286.386625,201.04100000000008 L 286.385625,201.2700000000001 L 286.384625,201.49900000000008 L 286.383625,201.7280000000001 L 286.38262499999996,201.9570000000001 L 286.381625,202.1860000000001 L 286.380625,202.4150000000001 L 286.37962500000003,202.6440000000001 L 286.378625,202.8730000000001 L 286.377625,203.10200000000012 L 286.376625,203.3310000000001 L 286.375625,203.56000000000012 L 286.374625,203.7890000000001 L 286.373625,204.01800000000011 L 286.372625,204.24700000000013 L 286.371625,204.4760000000001 L 286.370625,204.70500000000013 L 286.369625,204.9340000000001 L 286.368625,205.16300000000012 L 286.367625,205.3920000000001 L 286.366625,205.62100000000012 L 286.365625,205.85000000000008 L 286.36462500000005,206.0790000000001 L 286.36362499999996,206.3080000000001 L 286.362625,206.5370000000001 L 286.361625,206.7660000000001 L 286.360625,206.9950000000001 L 286.359625,207.2240000000001 L 286.358625,207.4530000000001 L 286.357625,207.6820000000001 L 286.356625,207.91100000000012 L 286.355625,208.1400000000001 L 286.354625,208.3690000000001 L 286.353625,208.5980000000001 L 286.352625,208.8270000000001 L 286.351625,209.0560000000001 L 286.350625,209.2850000000001 L 286.349625,209.51400000000012 L 286.34862499999997,209.7430000000001 L 286.347625,209.97200000000012 L 286.346625,210.2010000000001 L 286.34562500000004,210.43000000000012 L 286.344625,210.6590000000001 L 286.343625,210.88800000000012 L 286.342625,211.11700000000013 L 286.341625,211.34600000000012 L 286.340625,211.57500000000013 L 286.339625,211.8040000000001 L 286.338625,212.0330000000001 L 286.337625,212.2620000000001 L 286.33662499999997,212.4910000000001 L 286.335625,212.7200000000001 L 286.334625,212.9490000000001 L 286.333625,213.1780000000001 L 286.332625,213.4070000000001 L 286.33162500000003,213.6360000000001 L 286.330625,213.86500000000012 L 286.32962499999996,214.0940000000001 L 286.328625,214.32300000000012 L 286.327625,214.5520000000001 L 286.32662500000004,214.78100000000012 L 286.325625,215.0100000000001 L 286.32462499999997,215.23900000000012 L 286.323625,215.46800000000013 L 286.322625,215.69700000000012 L 286.321625,215.92600000000013 L 286.320625,216.15500000000011 L 286.319625,216.38400000000013 L 286.318625,216.6130000000001 L 286.317625,216.84200000000013 L 286.316625,217.07100000000014 L 286.315625,217.30000000000013 L 286.314625,217.52900000000014 L 286.313625,217.7580000000001 L 286.312625,217.9870000000001 L 286.311625,218.21600000000012 L 286.31062499999996,218.4450000000001 L 286.309625,218.67400000000012 L 286.308625,218.9030000000001 L 286.30762500000003,219.13200000000012 L 286.306625,219.3610000000001 L 286.305625,219.59000000000012 L 286.304625,219.81900000000013 L 286.303625,220.04800000000012 L 286.302625,220.27700000000013 L 286.301625,220.5060000000001 L 286.30062499999997,220.73500000000013 L 286.299625,220.9640000000001 L 286.298625,221.19300000000013 L 286.297625,221.42200000000014 L 286.296625,221.65100000000012 L 286.295625,221.88000000000014 L 286.294625,222.10900000000012 L 286.293625,222.33800000000014 L 286.29262500000004,222.56700000000012 L 286.291625,222.79600000000013 L 286.290625,223.02500000000015 L 286.289625,223.25400000000013 L 286.288625,223.48300000000012 L 286.287625,223.7120000000001 L 286.286625,223.94100000000012 L 286.285625,224.1700000000001 L 286.284625,224.39900000000011 L 286.283625,224.62800000000013 L 286.282625,224.8570000000001 L 286.281625,225.08600000000013 L 286.280625,225.3150000000001 L 286.279625,225.54400000000012 L 286.27862500000003,225.7730000000001 L 286.277625,226.00200000000012 L 286.27662499999997,226.23100000000014 L 286.275625,226.46000000000012 L 286.274625,226.68900000000014 L 286.27362500000004,226.91800000000012 L 286.272625,227.14700000000013 L 286.271625,227.37600000000012 L 286.270625,227.60500000000013 L 286.269625,227.83400000000015 L 286.268625,228.06300000000013 L 286.267625,228.29200000000014 L 286.266625,228.52100000000013 L 286.265625,228.75000000000014 L 286.26462499999997,228.97900000000013 L 286.263625,229.20800000000014 L 286.262625,229.43700000000013 L 286.261625,229.6660000000001 L 286.260625,229.89500000000012 L 286.259625,230.1240000000001 L 286.258625,230.35300000000012 L 286.25762499999996,230.5820000000001 L 286.256625,230.81100000000012 L 286.255625,231.04000000000013 L 286.25462500000003,231.26900000000012 L 286.253625,231.49800000000013 L 286.252625,231.72700000000012 L 286.251625,231.95600000000013 L 286.250625,232.18500000000012 L 286.249625,232.41400000000013 L 286.248625,232.64300000000014 L 286.24762499999997,232.87200000000013 L 286.246625,233.10100000000014 L 286.245625,233.33000000000013 L 286.244625,233.55900000000014 L 286.243625,233.78800000000012 L 286.242625,234.01700000000014 L 286.241625,234.24600000000015 L 286.240625,234.47500000000014 L 286.239625,234.70400000000015 L 286.238625,234.93300000000013 L 286.237625,235.16200000000012 L 286.236625,235.39100000000013 L 286.235625,235.62000000000012 L 286.234625,235.84900000000013 L 286.233625,236.07800000000012 L 286.232625,236.30700000000013 L 286.231625,236.53600000000012 L 286.230625,236.76500000000013 L 286.229625,236.99400000000014 L 286.228625,237.22300000000013 L 286.227625,237.45200000000014 L 286.226625,237.68100000000013 L 286.22562500000004,237.91000000000014 L 286.224625,238.13900000000012 L 286.22362499999997,238.36800000000014 L 286.222625,238.59700000000015 L 286.221625,238.82600000000014 L 286.220625,239.05500000000015 L 286.219625,239.28400000000013 L 286.218625,239.51300000000015 L 286.217625,239.74200000000013 L 286.216625,239.97100000000015 L 286.215625,240.20000000000016 L 286.214625,240.42900000000014 L 286.213625,240.65800000000016 L 286.212625,240.88700000000014 L 286.21162499999997,241.11600000000013 L 286.210625,241.34500000000014 L 286.209625,241.57400000000013 L 286.208625,241.80300000000014 L 286.207625,242.03200000000012 L 286.20662500000003,242.26100000000014 L 286.205625,242.49000000000012 L 286.20462499999996,242.71900000000014 L 286.203625,242.94800000000015 L 286.202625,243.17700000000013 L 286.201625,243.40600000000015 L 286.200625,243.63500000000013 L 286.199625,243.86400000000015 L 286.198625,244.09300000000013 L 286.197625,244.32200000000014 L 286.196625,244.55100000000016 L 286.195625,244.78000000000014 L 286.194625,245.00900000000016 L 286.193625,245.23800000000014 L 286.192625,245.46700000000016 L 286.191625,245.69600000000014 L 286.190625,245.92500000000015 L 286.189625,246.15400000000017 L 286.188625,246.38300000000015 L 286.187625,246.61200000000017 L 286.186625,246.84100000000012 L 286.185625,247.07000000000014 L 286.184625,247.29900000000012 L 286.183625,247.52800000000013 L 286.182625,247.75700000000015 L 286.181625,247.98600000000013 L 286.180625,248.21500000000015 L 286.179625,248.44400000000013 L 286.178625,248.67300000000014 L 286.177625,248.90200000000013 L 286.176625,249.13100000000014 L 286.17562499999997,249.36000000000016 L 286.174625,249.58900000000014 L 286.173625,249.81800000000015 L 286.17262500000004,250.04700000000014 L 286.171625,250.27600000000015 L 286.170625,250.50500000000014 L 286.169625,250.73400000000015 L 286.168625,250.96300000000016 L 286.167625,251.19200000000015 L 286.166625,251.42100000000016 L 286.165625,251.65000000000015 L 286.164625,251.87900000000016 L 286.163625,252.10800000000015 L 286.162625,252.33700000000016 L 286.161625,252.56600000000017 L 286.160625,252.79500000000013 L 286.159625,253.02400000000014 L 286.158625,253.25300000000013 L 286.157625,253.48200000000014 L 286.156625,253.71100000000013 L 286.155625,253.94000000000014 L 286.154625,254.16900000000015 L 286.15362500000003,254.39800000000014 L 286.152625,254.62700000000015 L 286.15162499999997,254.85600000000014 L 286.150625,255.08500000000015 L 286.149625,255.31400000000014 L 286.148625,255.54300000000015 L 286.147625,255.77200000000016 L 286.14662500000003,256.00100000000015 L 286.145625,256.23000000000013 L 286.144625,256.4590000000002 L 286.143625,256.68800000000016 L 286.142625,256.91700000000014 L 286.141625,257.1460000000002 L 286.140625,257.37500000000017 L 286.139625,257.60400000000016 L 286.138625,257.83300000000014 L 286.137625,258.0620000000002 L 286.136625,258.29100000000017 L 286.135625,258.52000000000015 L 286.134625,258.74900000000014 L 286.133625,258.9780000000001 L 286.13262499999996,259.20700000000016 L 286.131625,259.43600000000015 L 286.130625,259.66500000000013 L 286.129625,259.8940000000001 L 286.128625,260.12300000000016 L 286.127625,260.35200000000015 L 286.126625,260.58100000000013 L 286.125625,260.8100000000002 L 286.124625,261.03900000000016 L 286.123625,261.26800000000014 L 286.12262499999997,261.4970000000002 L 286.121625,261.72600000000017 L 286.120625,261.95500000000015 L 286.11962500000004,262.18400000000014 L 286.118625,262.4130000000002 L 286.11762500000003,262.64200000000017 L 286.116625,262.87100000000015 L 286.11562499999997,263.1000000000002 L 286.114625,263.3290000000002 L 286.11362499999996,263.55800000000016 L 286.112625,263.78700000000015 L 286.111625,264.0160000000002 L 286.11062499999997,264.2450000000002 L 286.109625,264.47400000000016 L 286.108625,264.7030000000002 L 286.107625,264.9320000000002 L 286.106625,265.1610000000002 L 286.10562500000003,265.39000000000016 L 286.104625,265.6190000000002 L 286.103625,265.8480000000002 L 286.102625,266.07700000000017 L 286.10162499999996,266.3060000000002 L 286.100625,266.5350000000002 L 286.099625,266.7640000000002 L 286.09862499999997,266.99300000000017 L 286.097625,267.2220000000002 L 286.096625,267.45100000000014 L 286.095625,267.6800000000001 L 286.094625,267.90900000000016 L 286.09362500000003,268.13800000000015 L 286.092625,268.36700000000013 L 286.091625,268.5960000000001 L 286.09062500000005,268.82500000000016 L 286.08962499999996,269.05400000000014 L 286.088625,269.28300000000013 L 286.087625,269.51200000000017 L 286.08662499999997,269.74100000000016 L 286.085625,269.97000000000014 L 286.084625,270.1990000000001 L 286.083625,270.42800000000017 L 286.082625,270.65700000000015 L 286.08162500000003,270.88600000000014 L 286.080625,271.1150000000002 L 286.079625,271.34400000000016 L 286.078625,271.57300000000015 L 286.077625,271.80200000000013 L 286.07662500000004,272.0310000000002 L 286.07562499999995,272.26000000000016 L 286.07462499999997,272.48900000000015 L 286.073625,272.7180000000002 L 286.072625,272.9470000000002 L 286.071625,273.17600000000016 L 286.070625,273.40500000000014 L 286.069625,273.6340000000002 L 286.068625,273.86300000000017 L 286.067625,274.09200000000016 L 286.066625,274.3210000000002 L 286.065625,274.5500000000002 L 286.06462500000004,274.77900000000017 L 286.063625,275.00800000000015 L 286.06262499999997,275.2370000000002 L 286.061625,275.4660000000002 L 286.06062499999996,275.69500000000016 L 286.059625,275.9240000000002 L 286.058625,276.1530000000002 L 286.057625,276.3820000000002 L 286.056625,276.61100000000016 L 286.055625,276.8400000000002 L 286.054625,277.0690000000002 L 286.053625,277.2980000000002 L 286.05262500000003,277.5270000000002 L 286.051625,277.7560000000002 L 286.050625,277.9850000000002 L 286.049625,278.21400000000017 L 286.04862499999996,278.4430000000002 L 286.047625,278.6720000000002 L 286.046625,278.9010000000002 L 286.045625,279.13000000000017 L 286.044625,279.35900000000015 L 286.043625,279.58800000000014 L 286.042625,279.8170000000001 L 286.041625,280.04600000000016 L 286.04062500000003,280.27500000000015 L 286.039625,280.50400000000013 L 286.038625,280.7330000000002 L 286.03762500000005,280.96200000000016 L 286.03662499999996,281.19100000000014 L 286.035625,281.42000000000013 L 286.034625,281.64900000000017 L 286.033625,281.87800000000016 L 286.032625,282.10700000000014 L 286.031625,282.3360000000002 L 286.030625,282.56500000000017 L 286.029625,282.79400000000015 L 286.02862500000003,283.02300000000014 L 286.027625,283.2520000000002 L 286.026625,283.48100000000017 L 286.025625,283.71000000000015 L 286.024625,283.9390000000002 L 286.02362500000004,284.1680000000002 L 286.02262499999995,284.39700000000016 L 286.021625,284.62600000000015 L 286.020625,284.8550000000002 L 286.01962499999996,285.0840000000002 L 286.018625,285.31300000000016 L 286.017625,285.5420000000002 L 286.016625,285.7710000000002" stroke="black" fill="none" stroke-width="5"/><path d="M 287.015625,285 L 287.015625,285 L 286.84062500000005,285 L 286.665625,285 L 286.490625,285 L 286.315625,285 L 286.140625,285 L 285.965625,285 L 285.79062500000003,285 L 285.61562499999997,284.99999999999994 L 285.440625,285 L 285.265625,285 L 285.090625,285 L 284.915625,285 L 284.740625,285 L 284.565625,285 L 284.390625,285 L 284.21562500000005,285 L 284.040625,285 L 283.865625,285 L 283.690625,285 L 283.515625,285 L 283.340625,285 L 283.16562500000003,285 L 282.99062499999997,285 L 282.815625,285 L 282.64062499999994,285 L 282.465625,285 L 282.29062500000003,285 L 282.11562499999997,285 L 281.940625,285 L 281.765625,285 L 281.590625,285 L 281.415625,285 L 281.240625,285 L 281.06562499999995,285 L 280.890625,285 L 280.715625,285 L 280.540625,285 L 280.36562499999997,285 L 280.190625,285 L 280.015625,285 L 279.840625,285 L 279.66562500000003,285 L 279.49062499999997,285 L 279.315625,285 L 279.140625,285 L 278.965625,285 L 278.790625,285 L 278.615625,285 L 278.44062499999995,285 L 278.265625,285 L 278.090625,285 L 277.915625,285 L 277.74062499999997,285 L 277.565625,285 L 277.390625,285 L 277.215625,285 L 277.04062500000003,285 L 276.86562499999997,285 L 276.690625,285 L 276.515625,285 L 276.340625,285 L 276.165625,285 L 275.990625,285 L 275.81562499999995,285 L 275.640625,285 L 275.465625,285 L 275.290625,285 L 275.115625,285 L 274.940625,285 L 274.765625,284.99999999999994 L 274.590625,285 L 274.415625,285 L 274.24062499999997,285 L 274.065625,285 L 273.89062499999994,285 L 273.715625,285 L 273.540625,285 L 273.36562499999997,285 L 273.19062499999995,285 L 273.015625,285 L 272.840625,285 L 272.665625,285 L 272.490625,285 L 272.31562499999995,285 L 272.140625,285 L 271.965625,285 L 271.790625,285 L 271.61562499999997,285 L 271.440625,285 L 271.26562499999994,285 L 271.090625,285 L 270.915625,285 L 270.74062499999997,285 L 270.565625,285 L 270.390625,285 L 270.215625,285 L 270.040625,285 L 269.865625,285 L 269.69062499999995,285 L 269.515625,285 L 269.340625,285 L 269.165625,285 L 268.99062499999997,285 L 268.815625,285 L 268.64062499999994,285 L 268.465625,285 L 268.290625,285 L 268.11562499999997,285 L 267.940625,285 L 267.765625,285 L 267.590625,285 L 267.415625,285 L 267.24062499999997,285 L 267.06562499999995,285 L 266.890625,285 L 266.715625,285 L 266.540625,285 L 266.36562499999997,285 L 266.19062499999995,285 L 266.015625,285 L 265.840625,285 L 265.665625,285 L 265.49062499999997,285 L 265.315625,285 L 265.140625,285 L 264.965625,285 L 264.790625,285 L 264.61562499999997,285 L 264.44062499999995,285 L 264.26562499999994,285 L 264.090625,285 L 263.915625,285 L 263.74062499999997,285 L 263.56562499999995,285 L 263.390625,285 L 263.215625,285 L 263.040625,285 L 262.86562499999997,285 L 262.69062499999995,285 L 262.515625,285 L 262.340625,285 L 262.165625,285 L 261.99062499999997,285 L 261.81562499999995,285 L 261.64062499999994,285 L 261.465625,285 L 261.290625,285 L 261.11562499999997,285 L 260.940625,285 L 260.765625,285 L 260.590625,285 L 260.415625,285 L 260.24062499999997,285 L 260.06562499999995,285 L 259.89062499999994,285 L 259.715625,285 L 259.540625,285 L 259.36562499999997,285 L 259.19062499999995,285 L 259.015625,285 L 258.84062499999993,285 L 258.665625,285 L 258.49062499999997,285 L 258.31562499999995,285 L 258.140625,285 L 257.965625,285 L 257.790625,285 L 257.61562499999997,285 L 257.44062499999995,285 L 257.26562499999994,285 L 257.090625,285 L 256.915625,285 L 256.74062499999997,285 L 256.56562499999995,285 L 256.390625,285 L 256.215625,285 L 256.040625,285 L 255.86562499999997,285 L 255.69062499999995,285 L 255.51562499999994,285 L 255.340625,285 L 255.16562499999998,285 L 254.99062499999997,285 L 254.81562499999998,285 L 254.64062499999997,285 L 254.46562499999996,285 L 254.29062499999998,285 L 254.11562499999997,285 L 253.94062499999995,285 L 253.76562499999997,285 L 253.59062499999996,285 L 253.41562499999995,285 L 253.24062499999997,285 L 253.06562499999995,285 L 252.89062499999997,285 L 252.715625,285 L 252.54062499999998,285 L 252.36562499999997,285 L 252.19062499999995,285 L 252.01562499999997,285 L 251.84062499999996,285 L 251.66562499999995,285 L 251.49062499999997,285 L 251.31562499999995,285 L 251.14062499999994,285 L 250.965625,285 L 250.79062499999998,285 L 250.61562499999997,285 L 250.44062499999998,285 L 250.26562499999997,285 L 250.09062499999996,285 L 249.91562499999998,285 L 249.74062499999997,285 L 249.56562499999995,285 L 249.39062499999997,285 L 249.21562499999996,285 L 249.04062499999995,285 L 248.86562499999997,285 L 248.69062499999995,285 L 248.51562499999994,285 L 248.340625,285 L 248.16562499999998,285 L 247.99062499999997,285 L 247.81562499999995,285 L 247.64062499999997,285 L 247.46562499999996,285 L 247.29062499999995,285 L 247.11562499999997,285 L 246.94062499999995,285 L 246.76562499999994,285 L 246.59062499999996,285 L 246.41562499999995,285 L 246.24062499999997,285 L 246.06562499999995,285 L 245.89062499999997,285 L 245.71562499999996,285 L 245.54062499999998,285 L 245.36562499999997,285 L 245.19062499999995,285 L 245.01562499999997,285 L 244.84062499999996,285 L 244.66562499999995,285 L 244.49062499999997,285 L 244.31562499999995,285 L 244.14062499999994,285 L 243.96562499999993,285 L 243.79062499999998,285 L 243.61562499999997,285 L 243.44062499999995,285 L 243.26562499999997,285 L 243.090625,285 L 242.91562499999995,285 L 242.740625,285 L 242.56562499999995,285 L 242.39062499999997,285 L 242.21562499999996,285 L 242.04062499999998,285 L 241.86562499999994,285 L 241.69062499999998,285 L 241.51562499999994,285 L 241.340625,285 L 241.16562499999998,285 L 240.990625,285 L 240.81562499999995,285 L 240.640625,285 L 240.46562499999996,285 L 240.29062499999998,285 L 240.11562499999997,285 L 239.94062499999998,285 L 239.76562499999994,285 L 239.590625,285 L 239.41562499999995,285 L 239.24062499999997,285 L 239.06562499999995,285 L 238.890625,285 L 238.71562499999996,285 L 238.54062499999998,285 L 238.36562499999997,285 L 238.19062499999998,285 L 238.01562499999994,285 L 237.840625,285 L 237.66562499999995,285 L 237.49062499999997,285 L 237.31562499999995,285 L 237.14062499999997,285 L 236.96562499999993,285 L 236.79062499999998,285 L 236.61562499999997,285 L 236.44062499999995,285 L 236.26562499999997,285 L 236.090625,285 L 235.91562499999995,285 L 235.740625,285 L 235.56562499999995,285 L 235.39062499999997,285 L 235.21562499999993,285 L 235.04062499999998,285 L 234.86562499999994,285 L 234.69062499999998,285 L 234.51562499999994,285 L 234.340625,285 L 234.16562499999992,285 L 233.990625,285 L 233.81562499999995,285 L 233.64062499999997,285 L 233.46562499999996,285 L 233.29062499999998,285 L 233.11562499999994,285 L 232.94062499999998,285 L 232.76562499999994,285 L 232.59062499999996,285 L 232.41562499999995,285 L 232.24062499999997,285 L 232.06562499999995,285 L 231.890625,285 L 231.71562499999996,285 L 231.54062499999998,285 L 231.36562499999994,285 L 231.19062499999998,285 L 231.01562499999994,285 L 230.840625,285 L 230.66562499999995,285 L 230.49062499999997,285 L 230.31562499999993,285 L 230.14062499999997,285 L 229.96562499999993,285 L 229.79062499999998,285 L 229.61562499999997,285 L 229.44062499999995,285 L 229.26562499999994,285 L 229.090625,285 L 228.91562499999995,285 L 228.74062499999997,285 L 228.56562499999995,285 L 228.39062499999997,285 L 228.21562499999993,285 L 228.04062499999998,285 L 227.86562499999994,285 L 227.69062499999995,285 L 227.51562499999994,285 L 227.340625,285 L 227.16562499999992,285 L 226.990625,285 L 226.81562499999995,285 L 226.64062499999997,285 L 226.46562499999993,285 L 226.29062499999998,285 L 226.11562499999994,285 L 225.94062499999995,285 L 225.76562499999994,285 L 225.59062499999996,285 L 225.41562499999992,285 L 225.24062499999997,285 L 225.06562499999995,285 L 224.89062499999994,285 L 224.71562499999996,285 L 224.54062499999998,285 L 224.36562499999994,285 L 224.19062499999998,285 L 224.01562499999994,285 L 223.84062499999996,285 L 223.66562499999992,285 L 223.49062499999997,285 L 223.31562499999993,285 L 223.14062499999997,285 L 222.96562499999993,285 L 222.79062499999998,285 L 222.6156249999999,285 L 222.44062499999998,285 L 222.26562499999994,285 L 222.09062499999996,285 L 221.91562499999995,285 L 221.74062499999997,285 L 221.56562499999993,285 L 221.39062499999997,285 L 221.21562499999993,285 L 221.04062499999995,285 L 220.86562499999994,285 L 220.69062499999995,285 L 220.51562499999994,285 L 220.340625,285 L 220.16562499999992,285 L 219.99062499999997,285 L 219.81562499999995,285 L 219.64062499999997,285 L 219.46562499999993,285 L 219.29062499999998,285 L 219.11562499999994,285 L 218.94062499999995,285 L 218.76562499999991,285 L 218.59062499999996,285 L 218.41562499999992,285 L 218.24062499999997,285 L 218.06562499999995,285 L 217.89062499999994,285 L 217.71562499999993,285 L 217.54062499999998,285 L 217.36562499999994,285 L 217.19062499999995,285 L 217.01562499999994,285 L 216.84062499999996,285 L 216.66562499999992,285 L 216.49062499999997,285 L 216.31562499999993,285 L 216.14062499999994,285 L 215.96562499999993,285 L 215.79062499999998,285 L 215.6156249999999,285 L 215.44062499999998,285 L 215.26562499999994,285 L 215.09062499999996,285 L 214.91562499999992,285 L 214.74062499999997,285 L 214.56562499999993,285 L 214.39062499999997,285 L 214.21562499999993,285 L 214.04062499999995,285 L 213.8656249999999,285 L 213.69062499999995,285 L 213.51562499999994,285 L 213.34062499999993,285 L 213.16562499999995,285 L 212.99062499999997,285 L 212.81562499999993,285 L 212.64062499999997,285 L 212.46562499999993,285 L 212.29062499999995,285 L 212.11562499999994,285 L 211.94062499999995,285 L 211.76562499999991,285 L 211.59062499999996,285 L 211.41562499999992,285 L 211.24062499999997,285 L 211.0656249999999,285 L 210.89062499999994,285 L 210.71562499999993,285 L 210.54062499999998,285 L 210.36562499999994,285 L 210.19062499999995,285 L 210.01562499999991,285 L 209.84062499999996,285 L 209.66562499999992,285 L 209.49062499999994,285 L 209.31562499999993,285 L 209.14062499999994,285 L 208.96562499999993,285 L 208.79062499999998,285 L 208.6156249999999,285 L 208.44062499999995,285 L 208.26562499999994,285 L 208.09062499999996,285 L 207.91562499999992,285 L 207.74062499999997,285 L 207.56562499999993,285 L 207.39062499999994,285 L 207.2156249999999,285 L 207.04062499999995,285 L 206.8656249999999,285 L 206.69062499999995,285 L 206.51562499999994,285 L 206.34062499999993,285 L 206.16562499999992,285 L 205.99062499999997,285 L 205.81562499999993,285 L 205.64062499999994,285 L 205.46562499999993,285 L 205.29062499999995,285 L 205.1156249999999,285 L 204.94062499999995,285 L 204.76562499999991,285 L 204.59062499999993,285 L 204.41562499999992,285 L 204.24062499999997,285 L 204.0656249999999,285 L 203.89062499999997,285 L 203.71562499999993,285 L 203.54062499999995,285 L 203.3656249999999,285 L 203.19062499999995,285 L 203.01562499999991,285 L 202.84062499999996,285 L 202.66562499999992,285 L 202.49062499999994,285 L 202.3156249999999,285 L 202.14062499999994,285 L 201.96562499999993,285 L 201.79062499999992,285 L 201.61562499999994,285 L 201.44062499999995,285 L 201.26562499999991,285 L 201.09062499999996,285 L 200.91562499999992,285 L 200.74062499999994,285 L 200.56562499999993,285 L 200.39062499999994,285 L 200.2156249999999,285 L 200.04062499999995,285 L 199.8656249999999,285 L 199.69062499999995,285 L 199.51562499999994,285 L 199.34062499999993,285 L 199.16562499999992,285 L 198.99062499999997,285 L 198.81562499999995,285 L 198.64062499999994,285 L 198.46562499999996,285 L 198.29062499999995,285 L 198.11562499999994,285 L 197.94062499999995,285 L 197.76562499999994,285 L 197.59062499999993,285 L 197.41562499999992,285 L 197.24062499999994,285 L 197.06562499999993,285 L 196.89062499999994,285 L 196.71562499999993,285 L 196.54062499999992,285 L 196.36562499999994,285 L 196.19062499999995,285 L 196.01562499999994,285 L 195.84062499999993,285 L 195.66562499999995,285 L 195.49062499999994,285 L 195.31562499999993,285 L 195.14062499999994,285 L 194.96562499999993,285 L 194.79062499999992,285 L 194.61562499999997,285 L 194.44062499999995,285 L 194.26562499999994,285 L 194.09062499999996,285 L 193.91562499999995,285 L 193.74062499999994,285 L 193.56562499999993,285 L 193.39062499999994,285 L 193.21562499999993,285 L 193.04062499999992,285 L 192.86562499999994,285 L 192.69062499999993,285 L 192.51562499999991,285 L 192.34062499999993,285 L 192.16562499999992,285 L 191.9906249999999,285 L 191.81562499999995,285 L 191.64062499999994,285 L 191.46562499999993,285 L 191.29062499999995,285 L 191.11562499999994,285 L 190.94062499999993,285 L 190.76562499999994,285 L 190.59062499999993,285 L 190.41562499999992,285 L 190.24062499999994,285 L 190.06562499999995,285 L 189.89062499999994,285 L 189.71562499999993,285 L 189.54062499999992,285 L 189.36562499999994,285 L 189.19062499999993,285 L 189.01562499999994,285 L 188.84062499999993,285 L 188.66562499999992,285 L 188.4906249999999,285 L 188.31562499999993,285 L 188.14062499999994,285 L 187.96562499999993,285 L 187.79062499999992,285 L 187.61562499999994,285 L 187.44062499999993,285 L 187.26562499999994,285 L 187.09062499999993,285 L 186.91562499999992,285 L 186.74062499999994,285 L 186.56562499999993,285 L 186.39062499999994,285 L 186.21562499999993,285 L 186.04062499999992,285 L 185.8656249999999,285 L 185.69062499999995,285 L 185.51562499999994,285 L 185.34062499999993,285 L 185.16562499999992,285 L 184.9906249999999,285 L 184.81562499999993,285 L 184.64062499999994,285 L 184.46562499999993,285 L 184.29062499999992,285 L 184.1156249999999,285 L 183.94062499999993,285 L 183.76562499999994,285 L 183.59062499999993,285 L 183.41562499999992,285 L 183.24062499999994,285 L 183.06562499999993,285 L 182.89062499999994,285 L 182.71562499999993,285 L 182.54062499999992,285 L 182.3656249999999,285 L 182.19062499999993,285 L 182.01562499999994,285 L 181.84062499999993,285 L 181.66562499999992,285 L 181.4906249999999,285 L 181.31562499999993,285 L 181.14062499999991,285 L 180.96562499999993,285 L 180.79062499999992,285 L 180.6156249999999,285 L 180.44062499999993,285 L 180.26562499999991,285 L 180.09062499999993,285 L 179.91562499999992,285 L 179.7406249999999,285 L 179.56562499999993,285 L 179.39062499999994,285 L 179.21562499999993,285 L 179.04062499999992,285 L 178.8656249999999,285 L 178.69062499999993,285 L 178.51562499999994,285 L 178.34062499999993,285 L 178.16562499999992,285 L 177.9906249999999,285 L 177.8156249999999,285 L 177.64062499999994,285 L 177.46562499999993,285 L 177.29062499999992,285 L 177.1156249999999,285 L 176.94062499999993,285 L 176.76562499999991,285 L 176.59062499999993,285 L 176.41562499999992,285 L 176.2406249999999,285 L 176.06562499999993,285 L 175.89062499999991,285 L 175.71562499999993,285 L 175.54062499999992,285 L 175.3656249999999,285 L 175.19062499999993,285 L 175.01562499999994,285 L 174.84062499999993,285 L 174.66562499999992,285 L 174.4906249999999,285 L 174.3156249999999,285 L 174.14062499999994,285 L 173.96562499999993,285 L 173.79062499999992,285 L 173.6156249999999,285 L 173.4406249999999,285 L 173.26562499999991,285 L 173.09062499999993,285 L 172.91562499999992,285 L 172.7406249999999,285 L 172.56562499999993,285 L 172.39062499999991,285 L 172.21562499999993,285 L 172.04062499999992,285 L 171.8656249999999,285 L 171.69062499999993,285 L 171.51562499999991,285 L 171.34062499999993,285 L 171.16562499999992,285 L 170.9906249999999,285 L 170.8156249999999,285 L 170.64062499999994,285 L 170.46562499999993,285 L 170.29062499999992,285 L 170.1156249999999,285 L 169.9406249999999,285 L 169.76562499999991,285 L 169.5906249999999,285 L 169.41562499999992,285 L 169.2406249999999,285 L 169.0656249999999,285 L 168.89062499999991,285 L 168.71562499999993,285 L 168.54062499999992,285 L 168.3656249999999,285 L 168.1906249999999,285 L 168.01562499999991,285 L 167.84062499999993,285 L 167.66562499999992,285 L 167.4906249999999,285 L 167.3156249999999,285 L 167.14062499999991,285 L 166.96562499999993,285 L 166.79062499999992,285 L 166.6156249999999,285 L 166.4406249999999,285 L 166.26562499999991,285 L 166.0906249999999,285 L 165.91562499999992,285 L 165.7406249999999,285 L 165.5656249999999,285 L 165.39062499999991,285 L 165.2156249999999,285 L 165.04062499999992,285 L 164.8656249999999,285 L 164.6906249999999,285 L 164.51562499999991,285 L 164.34062499999993,285 L 164.16562499999992,285 L 163.9906249999999,285 L 163.8156249999999,285 L 163.64062499999991,285 L 163.46562499999993,285 L 163.29062499999992,285 L 163.1156249999999,285 L 162.9406249999999,285 L 162.7656249999999,285 L 162.5906249999999,285 L 162.41562499999992,285 L 162.2406249999999,285 L 162.0656249999999,285 L 161.8906249999999,285 L 161.7156249999999,285 L 161.54062499999992,285 L 161.3656249999999,285 L 161.1906249999999,285 L 161.01562499999991,285 L 160.8406249999999,285 L 160.66562499999992,285 L 160.4906249999999,285 L 160.3156249999999,285 L 160.14062499999991,285 L 159.9656249999999,285 L 159.79062499999992,285 L 159.6156249999999,285 L 159.4406249999999,285 L 159.2656249999999,285 L 159.09062499999993,285 L 158.91562499999992,285 L 158.7406249999999,285 L 158.5656249999999,285 L 158.3906249999999,285 L 158.2156249999999,285 L 158.0406249999999,285 L 157.8656249999999,285 L 157.6906249999999,285 L 157.5156249999999,285 L 157.3406249999999,285 L 157.16562499999992,285 L 156.9906249999999,285 L 156.8156249999999,285 L 156.64062499999991,285 L 156.4656249999999,285 L 156.29062499999992,285 L 156.1156249999999,285 L 155.9406249999999,285 L 155.7656249999999,285 L 155.5906249999999,285 L 155.41562499999992,285 L 155.2406249999999,285 L 155.0656249999999,285 L 154.8906249999999,285 L 154.7156249999999,285 L 154.5406249999999,285 L 154.3656249999999,285 L 154.1906249999999,285 L 154.0156249999999,285 L 153.8406249999999,285 L 153.6656249999999,285 L 153.4906249999999,285 L 153.3156249999999,285 L 153.1406249999999,285 L 152.9656249999999,285 L 152.79062499999992,285 L 152.6156249999999,285 L 152.4406249999999,285 L 152.2656249999999,285 L 152.0906249999999,285 L 151.91562499999992,285 L 151.7406249999999,285 L 151.5656249999999,285 L 151.3906249999999,285 L 151.21562499999987,285 L 151.0406249999999,285 L 150.8656249999999,285 L 150.6906249999999,285 L 150.5156249999999,285 L 150.3406249999999,285 L 150.1656249999999,285 L 149.9906249999999,285 L 149.8156249999999,285 L 149.6406249999999,285 L 149.4656249999999,285 L 149.2906249999999,285 L 149.1156249999999,285 L 148.9406249999999,285 L 148.7656249999999,285 L 148.5906249999999,285 L 148.4156249999999,285 L 148.2406249999999,285 L 148.0656249999999,285 L 147.8906249999999,285 L 147.71562499999987,285 L 147.5406249999999,285 L 147.3656249999999,285 L 147.1906249999999,285 L 147.0156249999999,285 L 146.8406249999999,285 L 146.6656249999999,285 L 146.49062499999988,285 L 146.3156249999999,285 L 146.1406249999999,285 L 145.9656249999999,285 L 145.7906249999999,285 L 145.6156249999999,285 L 145.4406249999999,285 L 145.2656249999999,285 L 145.0906249999999,285 L 144.9156249999999,285 L 144.7406249999999,285 L 144.5656249999999,285 L 144.3906249999999,285 L 144.21562499999987,285 L 144.0406249999999,285 L 143.8656249999999,285 L 143.6906249999999,285 L 143.5156249999999,285 L 143.34062499999987,285 L 143.1656249999999,285 L 142.99062499999988,285 L 142.8156249999999,285 L 142.6406249999999,285 L 142.4656249999999,285 L 142.2906249999999,285 L 142.11562499999988,285 L 141.9406249999999,285 L 141.7656249999999,285 L 141.5906249999999,285 L 141.4156249999999,285 L 141.24062499999988,285 L 141.0656249999999,285 L 140.8906249999999,285 L 140.71562499999987,285 L 140.5406249999999,285 L 140.3656249999999,285 L 140.1906249999999,285 L 140.0156249999999,285 L 139.84062499999987,285 L 139.6656249999999,285 L 139.49062499999988,285 L 139.3156249999999,285 L 139.1406249999999,285 L 138.96562499999987,285 L 138.7906249999999,285 L 138.61562499999988,285 L 138.4406249999999,285 L 138.2656249999999,285 L 138.09062499999987,285 L 137.9156249999999,285 L 137.74062499999988,285 L 137.5656249999999,285 L 137.3906249999999,285 L 137.21562499999987,285 L 137.0406249999999,285 L 136.86562499999988,285 L 136.6906249999999,285 L 136.5156249999999,285 L 136.34062499999987,285 L 136.1656249999999,285 L 135.99062499999988,285 L 135.8156249999999,285 L 135.6406249999999,285 L 135.46562499999987,285 L 135.2906249999999,285 L 135.11562499999988,285 L 134.94062499999987,285 L 134.7656249999999,285 L 134.59062499999987,285 L 134.4156249999999,285 L 134.24062499999988,285 L 134.0656249999999,285 L 133.8906249999999,285 L 133.71562499999987,285 L 133.5406249999999,285 L 133.36562499999988,285 L 133.1906249999999,285 L 133.0156249999999,285 L 132.84062499999987,285 L 132.66562499999986,285 L 132.49062499999988,285 L 132.3156249999999,285 L 132.1406249999999,285 L 131.96562499999987,285 L 131.79062499999986,285 L 131.61562499999988,285 L 131.44062499999987,285 L 131.2656249999999,285 L 131.09062499999987,285 L 130.9156249999999,285 L 130.74062499999988,285 L 130.56562499999987,285 L 130.3906249999999,285 L 130.21562499999987,285 L 130.0406249999999,285 L 129.86562499999988,285 L 129.69062499999987,285 L 129.5156249999999,285 L 129.34062499999987,285 L 129.16562499999986,285 L 128.99062499999988,285 L 128.8156249999999,285 L 128.6406249999999,285 L 128.46562499999987,285 L 128.29062499999986,285 L 128.11562499999988,285 L 127.94062499999987,285 L 127.76562499999989,285 L 127.59062499999987,285 L 127.41562499999988,285 L 127.24062499999988,285 L 127.06562499999987,285 L 126.89062499999987,285 L 126.71562499999987,285 L 126.54062499999988,285 L 126.36562499999988,285 L 126.19062499999987,285 L 126.01562499999987,285 L 125.84062499999987,285 L 125.66562499999986,285 L 125.49062499999987,285 L 125.31562499999988,285 L 125.14062499999989,285 L 124.96562499999987,285 L 124.79062499999988,285 L 124.61562499999987,285 L 124.44062499999987,285 L 124.26562499999989,285 L 124.09062499999987,285 L 123.91562499999988,285 L 123.74062499999988,285 L 123.56562499999987,285 L 123.39062499999987,285 L 123.21562499999987,285 L 123.04062499999988,285 L 122.86562499999988,285 L 122.69062499999987,285 L 122.51562499999987,285 L 122.34062499999987,285 L 122.16562499999986,285 L 121.99062499999988,285 L 121.81562499999987,285 L 121.64062499999987,285 L 121.46562499999987,285 L 121.29062499999986,285 L 121.11562499999987,285 L 120.94062499999987,285 L 120.76562499999987,285 L 120.59062499999987,285 L 120.41562499999988,285 L 120.24062499999987,285 L 120.06562499999987,285 L 119.89062499999987,285 L 119.71562499999986,285 L 119.54062499999988,285 L 119.36562499999988,285 L 119.19062499999987,285 L 119.01562499999987,285 L 118.84062499999986,285 L 118.66562499999986,285 L 118.49062499999988,285 L 118.31562499999987,285 L 118.14062499999987,285 L 117.96562499999987,285 L 117.79062499999986,285 L 117.61562499999987,285 L 117.44062499999987,285 L 117.26562499999987,285 L 117.09062499999987,285 L 116.91562499999986,285 L 116.74062499999987,285 L 116.56562499999987,285 L 116.39062499999986,285 L 116.21562499999987,285 L 116.04062499999988,285 L 115.86562499999987,285 L 115.69062499999987,285 L 115.51562499999987,285 L 115.34062499999986,285 L 115.16562499999986,285 L 114.99062499999987,285 L 114.81562499999987,285 L 114.64062499999987,285 L 114.46562499999986,285 L 114.29062499999986,285 L 114.11562499999987,285 L 113.94062499999986,285 L 113.76562499999987,285 L 113.59062499999987,285 L 113.41562499999986,285 L 113.24062499999987,285 L 113.06562499999986,285 L 112.89062499999986,285 L 112.71562499999987,285 L 112.54062499999986,285 L 112.36562499999987,285 L 112.19062499999987,285" stroke="black" fill="none" stroke-width="5"/><path d="M 115.015625,285 L 115.015625,285 L 115.015625,284.94399999999996 L 115.015625,284.88800000000003 L 115.015625,284.832 L 115.015625,284.776 L 115.015625,284.71999999999997 L 115.015625,284.66400000000004 L 115.015625,284.608 L 115.015625,284.55199999999996 L 115.015625,284.496 L 115.015625,284.44 L 115.015625,284.384 L 115.015625,284.328 L 115.015625,284.272 L 115.015625,284.216 L 115.015625,284.16 L 115.015625,284.104 L 115.015625,284.048 L 115.015625,283.992 L 115.015625,283.936 L 115.015625,283.88 L 115.015625,283.824 L 115.015625,283.76800000000003 L 115.015625,283.712 L 115.015625,283.65599999999995 L 115.015625,283.6 L 115.015625,283.544 L 115.015625,283.488 L 115.015625,283.43199999999996 L 115.015625,283.37600000000003 L 115.015625,283.32 L 115.015625,283.264 L 115.015625,283.208 L 115.015625,283.152 L 115.015625,283.096 L 115.015625,283.03999999999996 L 115.015625,282.98400000000004 L 115.015625,282.928 L 115.015625,282.872 L 115.015625,282.816 L 115.015625,282.76 L 115.015625,282.704 L 115.015625,282.64799999999997 L 115.015625,282.592 L 115.015625,282.536 L 115.015625,282.48 L 115.015625,282.424 L 115.015625,282.368 L 115.015625,282.312 L 115.015625,282.256 L 115.015625,282.2 L 115.015625,282.144 L 115.015625,282.088 L 115.015625,282.032 L 115.015625,281.976 L 115.015625,281.92 L 115.015625,281.864 L 115.015625,281.808 L 115.015625,281.75199999999995 L 115.015625,281.696 L 115.015625,281.64 L 115.015625,281.584 L 115.015625,281.528 L 115.015625,281.472 L 115.015625,281.416 L 115.015625,281.35999999999996 L 115.015625,281.30400000000003 L 115.015625,281.248 L 115.015625,281.192 L 115.015625,281.13599999999997 L 115.015625,281.08 L 115.015625,281.024 L 115.015625,280.96799999999996 L 115.015625,280.91200000000003 L 115.015625,280.856 L 115.015625,280.8 L 115.015625,280.74399999999997 L 115.015625,280.68800000000005 L 115.015625,280.632 L 115.015625,280.57599999999996 L 115.015625,280.52 L 115.015625,280.464 L 115.015625,280.408 L 115.015625,280.352 L 115.015625,280.296 L 115.015625,280.24 L 115.015625,280.18399999999997 L 115.015625,280.128 L 115.015625,280.072 L 115.015625,280.016 L 115.015625,279.96 L 115.015625,279.904 L 115.015625,279.848 L 115.015625,279.79200000000003 L 115.015625,279.736 L 115.015625,279.67999999999995 L 115.015625,279.624 L 115.015625,279.568 L 115.015625,279.512 L 115.015625,279.45599999999996 L 115.015625,279.40000000000003 L 115.015625,279.344 L 115.015625,279.288 L 115.015625,279.23199999999997 L 115.015625,279.176 L 115.015625,279.12 L 115.015625,279.06399999999996 L 115.015625,279.008 L 115.015625,278.952 L 115.015625,278.896 L 115.015625,278.84 L 115.015625,278.784 L 115.015625,278.728 L 115.015625,278.67199999999997 L 115.015625,278.616 L 115.015625,278.56 L 115.015625,278.504 L 115.015625,278.448 L 115.015625,278.392 L 115.015625,278.336 L 115.015625,278.28000000000003 L 115.015625,278.224 L 115.015625,278.168 L 115.015625,278.11199999999997 L 115.015625,278.056 L 115.015625,278 L 115.015625,277.944 L 115.015625,277.888 L 115.015625,277.832 L 115.015625,277.77599999999995 L 115.01562499999999,277.71999999999997 L 115.015625,277.664 L 115.015625,277.608 L 115.015625,277.552 L 115.015625,277.496 L 115.015625,277.44 L 115.015625,277.38399999999996 L 115.01562499999999,277.328 L 115.015625,277.272 L 115.015625,277.216 L 115.015625,277.15999999999997 L 115.015625,277.104 L 115.015625,277.048 L 115.015625,276.992 L 115.015625,276.936 L 115.015625,276.88 L 115.015625,276.82399999999996 L 115.015625,276.768 L 115.015625,276.712 L 115.015625,276.656 L 115.015625,276.6 L 115.015625,276.544 L 115.015625,276.48799999999994 L 115.015625,276.43199999999996 L 115.015625,276.376 L 115.015625,276.32 L 115.015625,276.264 L 115.015625,276.20799999999997 L 115.015625,276.152 L 115.015625,276.096 L 115.015625,276.03999999999996 L 115.015625,275.984 L 115.015625,275.928 L 115.015625,275.87199999999996 L 115.015625,275.816 L 115.015625,275.76 L 115.015625,275.704 L 115.015625,275.64799999999997 L 115.015625,275.592 L 115.015625,275.536 L 115.015625,275.47999999999996 L 115.015625,275.424 L 115.015625,275.368 L 115.015625,275.312 L 115.015625,275.256 L 115.015625,275.2 L 115.015625,275.144 L 115.015625,275.08799999999997 L 115.015625,275.032 L 115.015625,274.976 L 115.015625,274.91999999999996 L 115.015625,274.864 L 115.015625,274.808 L 115.015625,274.75199999999995 L 115.015625,274.69599999999997 L 115.015625,274.64 L 115.015625,274.584 L 115.015625,274.52799999999996 L 115.015625,274.472 L 115.015625,274.416 L 115.015625,274.36 L 115.015625,274.304 L 115.015625,274.248 L 115.015625,274.192 L 115.015625,274.13599999999997 L 115.015625,274.08 L 115.015625,274.024 L 115.015625,273.968 L 115.015625,273.912 L 115.015625,273.856 L 115.015625,273.79999999999995 L 115.015625,273.74399999999997 L 115.015625,273.688 L 115.015625,273.632 L 115.015625,273.576 L 115.015625,273.52 L 115.015625,273.46399999999994 L 115.015625,273.40799999999996 L 115.015625,273.352 L 115.015625,273.296 L 115.015625,273.24 L 115.015625,273.18399999999997 L 115.015625,273.128 L 115.015625,273.072 L 115.015625,273.01599999999996 L 115.015625,272.96 L 115.015625,272.904 L 115.015625,272.84799999999996 L 115.015625,272.792 L 115.015625,272.736 L 115.01562499999999,272.68 L 115.015625,272.624 L 115.015625,272.568 L 115.015625,272.51199999999994 L 115.015625,272.45599999999996 L 115.015625,272.4 L 115.015625,272.344 L 115.01562499999999,272.288 L 115.015625,272.23199999999997 L 115.015625,272.176 L 115.015625,272.11999999999995 L 115.015625,272.06399999999996 L 115.015625,272.008 L 115.015625,271.952 L 115.01562499999999,271.89599999999996 L 115.015625,271.84 L 115.015625,271.784 L 115.015625,271.72799999999995 L 115.015625,271.67199999999997 L 115.015625,271.616 L 115.015625,271.56 L 115.01562499999999,271.50399999999996 L 115.015625,271.448 L 115.015625,271.392 L 115.015625,271.336 L 115.015625,271.28 L 115.015625,271.224 L 115.015625,271.168 L 115.01562499999999,271.11199999999997 L 115.015625,271.056 L 115.01562499999999,271 L 115.015625,270.944 L 115.015625,270.888 L 115.01562500000001,270.832 L 115.015625,270.77599999999995 L 115.015625,270.72 L 115.01562499999999,270.664 L 115.015625,270.608 L 115.015625,270.55199999999996 L 115.01562500000001,270.49600000000004 L 115.015625,270.43999999999994 L 115.01562500000001,270.384 L 115.01562499999999,270.328 L 115.015625,270.272 L 115.01562499999999,270.21599999999995 L 115.015625,270.16 L 115.015625,270.104 L 115.01562500000001,270.048 L 115.015625,269.99199999999996 L 115.015625,269.936 L 115.01562499999999,269.88 L 115.015625,269.824 L 115.015625,269.768 L 115.01562500000001,269.712 L 115.015625,269.656 L 115.01562500000001,269.6 L 115.01562499999999,269.544 L 115.015625,269.488 L 115.01562499999999,269.43199999999996 L 115.015625,269.376 L 115.015625,269.32 L 115.01562500000001,269.264 L 115.015625,269.20799999999997 L 115.015625,269.15200000000004 L 115.01562499999999,269.09599999999995 L 115.015625,269.03999999999996 L 115.015625,268.984 L 115.015625,268.928 L 115.015625,268.87199999999996 L 115.01562500000001,268.81600000000003 L 115.01562499999999,268.76 L 115.015625,268.704 L 115.015625,268.64799999999997 L 115.015625,268.592 L 115.015625,268.53599999999994 L 115.01562500000001,268.48 L 115.015625,268.424 L 115.015625,268.368 L 115.01562499999999,268.312 L 115.015625,268.25600000000003 L 115.015625,268.19999999999993 L 115.015625,268.144 L 115.015625,268.08799999999997 L 115.01562500000001,268.032 L 115.01562499999999,267.976 L 115.015625,267.92 L 115.015625,267.864 L 115.015625,267.808 L 115.015625,267.75199999999995 L 115.01562500000001,267.696 L 115.015625,267.64 L 115.015625,267.584 L 115.01562499999999,267.52799999999996 L 115.015625,267.472 L 115.015625,267.416 L 115.015625,267.36 L 115.015625,267.304 L 115.01562500000001,267.248 L 115.01562499999999,267.19199999999995 L 115.015625,267.136 L 115.015625,267.08 L 115.015625,267.024 L 115.015625,266.96799999999996 L 115.01562500000001,266.912 L 115.015625,266.856 L 115.015625,266.8 L 115.01562499999999,266.74399999999997 L 115.015625,266.688 L 115.015625,266.63199999999995 L 115.015625,266.576 L 115.015625,266.52 L 115.01562500000001,266.464 L 115.01562499999999,266.40799999999996 L 115.015625,266.352 L 115.015625,266.296 L 115.015625,266.24 L 115.015625,266.18399999999997 L 115.01562500000001,266.12800000000004 L 115.015625,266.07199999999995 L 115.015625,266.01599999999996 L 115.01562499999999,265.96 L 115.015625,265.904 L 115.015625,265.84799999999996 L 115.015625,265.79200000000003 L 115.015625,265.736 L 115.015625,265.68 L 115.01562499999999,265.62399999999997 L 115.015625,265.568 L 115.015625,265.51199999999994 L 115.015625,265.456 L 115.015625,265.4 L 115.01562500000001,265.344 L 115.015625,265.288 L 115.015625,265.232 L 115.01562499999999,265.17599999999993 L 115.015625,265.12 L 115.015625,265.06399999999996 L 115.015625,265.008 L 115.015625,264.952 L 115.015625,264.896 L 115.01562499999999,264.84 L 115.015625,264.784 L 115.015625,264.72799999999995 L 115.015625,264.672 L 115.015625,264.616 L 115.01562500000001,264.56 L 115.015625,264.50399999999996 L 115.015625,264.448 L 115.01562499999999,264.392 L 115.015625,264.336 L 115.015625,264.28 L 115.015625,264.224 L 115.015625,264.16799999999995 L 115.015625,264.11199999999997 L 115.01562499999999,264.056 L 115.015625,264 L 115.015625,263.94399999999996 L 115.015625,263.88800000000003 L 115.015625,263.832 L 115.01562500000001,263.776 L 115.015625,263.71999999999997 L 115.015625,263.664 L 115.01562499999999,263.60799999999995 L 115.015625,263.552 L 115.015625,263.496 L 115.015625,263.44 L 115.015625,263.38399999999996 L 115.015625,263.328 L 115.01562499999999,263.27199999999993 L 115.015625,263.216 L 115.015625,263.15999999999997 L 115.015625,263.10400000000004 L 115.015625,263.04799999999994 L 115.01562500000001,262.99199999999996 L 115.015625,262.936 L 115.015625,262.88 L 115.015625,262.82399999999996 L 115.015625,262.76800000000003 L 115.015625,262.712 L 115.015625,262.656 L 115.015625,262.59999999999997 L 115.015625,262.544 L 115.01562499999999,262.48799999999994 L 115.015625,262.432 L 115.015625,262.376 L 115.015625,262.32 L 115.015625,262.264 L 115.01562500000001,262.208 L 115.015625,262.15199999999993 L 115.015625,262.096 L 115.015625,262.03999999999996 L 115.015625,261.984 L 115.015625,261.928 L 115.015625,261.872 L 115.015625,261.816 L 115.015625,261.76 L 115.01562499999999,261.70399999999995 L 115.015625,261.64799999999997 L 115.015625,261.592 L 115.015625,261.536 L 115.015625,261.47999999999996 L 115.01562500000001,261.424 L 115.015625,261.368 L 115.015625,261.312 L 115.015625,261.256 L 115.015625,261.2 L 115.015625,261.14399999999995 L 115.015625,261.08799999999997 L 115.015625,261.032 L 115.015625,260.976 L 115.01562499999999,260.91999999999996 L 115.015625,260.86400000000003 L 115.015625,260.80799999999994 L 115.015625,260.752 L 115.015625,260.69599999999997 L 115.01562500000001,260.64 L 115.015625,260.58399999999995 L 115.015625,260.528 L 115.015625,260.472 L 115.015625,260.416 L 115.015625,260.35999999999996 L 115.015625,260.304 L 115.015625,260.24799999999993 L 115.015625,260.192 L 115.015625,260.13599999999997 L 115.015625,260.08 L 115.015625,260.024 L 115.015625,259.96799999999996 L 115.015625,259.912 L 115.015625,259.856 L 115.015625,259.79999999999995 L 115.015625,259.744 L 115.015625,259.688 L 115.015625,259.632 L 115.015625,259.57599999999996 L 115.015625,259.52 L 115.015625,259.46399999999994 L 115.015625,259.408 L 115.015625,259.352 L 115.015625,259.296 L 115.015625,259.23999999999995 L 115.015625,259.184 L 115.015625,259.12799999999993 L 115.015625,259.072 L 115.015625,259.01599999999996 L 115.015625,258.96 L 115.015625,258.904 L 115.015625,258.848 L 115.015625,258.792 L 115.015625,258.736 L 115.015625,258.67999999999995 L 115.015625,258.62399999999997 L 115.015625,258.568 L 115.015625,258.512 L 115.015625,258.45599999999996 L 115.015625,258.4 L 115.015625,258.344 L 115.015625,258.288 L 115.015625,258.23199999999997 L 115.015625,258.176 L 115.015625,258.11999999999995 L 115.015625,258.06399999999996 L 115.015625,258.008 L 115.015625,257.952 L 115.015625,257.89599999999996 L 115.015625,257.84000000000003 L 115.015625,257.78399999999993 L 115.015625,257.72799999999995 L 115.015625,257.67199999999997 L 115.015625,257.616 L 115.015625,257.55999999999995 L 115.015625,257.504 L 115.015625,257.448 L 115.015625,257.392 L 115.015625,257.33599999999996 L 115.015625,257.28 L 115.015625,257.22399999999993 L 115.015625,257.168 L 115.015625,257.11199999999997 L 115.015625,257.056 L 115.015625,257 L 115.015625,256.94399999999996 L 115.015625,256.888 L 115.015625,256.832 L 115.015625,256.77599999999995 L 115.015625,256.71999999999997 L 115.015625,256.664 L 115.015625,256.608 L 115.015625,256.552 L 115.015625,256.496 L 115.015625,256.43999999999994 L 115.015625,256.38399999999996 L 115.015625,256.328 L 115.015625,256.272 L 115.015625,256.216 L 115.015625,256.15999999999997 L 115.015625,256.104 L 115.015625,256.048 L 115.015625,255.99199999999996 L 115.015625,255.93599999999998 L 115.015625,255.88 L 115.015625,255.82399999999998 L 115.015625,255.76799999999997 L 115.015625,255.712 L 115.015625,255.656 L 115.015625,255.59999999999997 L 115.015625,255.54399999999998 L 115.015625,255.48799999999997 L 115.015625,255.43199999999996 L 115.015625,255.37599999999998 L 115.015625,255.32 L 115.015625,255.264 L 115.015625,255.208 L 115.015625,255.152 L 115.015625,255.09599999999998 L 115.015625,255.03999999999996 L 115.015625,254.98399999999998 L 115.015625,254.928 L 115.015625,254.87199999999999 L 115.015625,254.81599999999997 L 115.015625,254.76 L 115.015625,254.70399999999995 L 115.015625,254.64799999999997 L 115.015625,254.59199999999998 L 115.015625,254.53599999999997 L 115.015625,254.48 L 115.015625,254.42399999999998 L 115.015625,254.368 L 115.015625,254.31199999999995 L 115.015625,254.25599999999997 L 115.015625,254.2 L 115.015625,254.14399999999998 L 115.015625,254.08799999999997 L 115.015625,254.03199999999998 L 115.015625,253.97599999999997 L 115.015625,253.91999999999996 L 115.015625,253.86399999999998 L 115.015625,253.808 L 115.015625,253.75199999999995 L 115.015625,253.69599999999997 L 115.015625,253.64 L 115.015625,253.58399999999997 L 115.015625,253.52799999999996 L 115.015625,253.47199999999998 L 115.015625,253.416 L 115.015625,253.35999999999996 L 115.015625,253.30399999999997 L 115.015625,253.248 L 115.015625,253.19199999999998 L 115.015625,253.136 L 115.015625,253.07999999999998 L 115.015625,253.024 L 115.015625,252.96799999999996 L 115.015625,252.91199999999998 L 115.015625,252.85599999999997 L 115.015625,252.79999999999998 L 115.015625,252.74399999999997 L 115.015625,252.688 L 115.015625,252.63199999999995 L 115.015625,252.57599999999996 L 115.015625,252.51999999999998 L 115.015625,252.46399999999997 L 115.015625,252.408 L 115.015625,252.35199999999998 L 115.015625,252.296 L 115.015625,252.23999999999995 L 115.015625,252.18399999999997 L 115.015625,252.128 L 115.015625,252.072 L 115.015625,252.01599999999996 L 115.015625,251.95999999999998 L 115.015625,251.90399999999997 L 115.015625,251.84799999999998 L 115.015625,251.79199999999997 L 115.015625,251.736 L 115.015625,251.68 L 115.015625,251.62399999999997 L 115.015625,251.56799999999998 L 115.015625,251.51199999999997 L 115.015625,251.456 L 115.015625,251.39999999999998 L 115.015625,251.344 L 115.015625,251.28799999999995 L 115.015625,251.23199999999997 L 115.015625,251.176 L 115.015625,251.11999999999998 L 115.015625,251.06399999999996 L 115.015625,251.00799999999998 L 115.015625,250.95199999999994 L 115.015625,250.89599999999996 L 115.015625,250.83999999999997 L 115.015625,250.784 L 115.015625,250.72799999999998 L 115.015625,250.67199999999997 L 115.015625,250.61599999999999 L 115.015625,250.55999999999997 L 115.015625,250.50399999999996 L 115.015625,250.44799999999998 L 115.015625,250.392 L 115.015625,250.33599999999996 L 115.015625,250.27999999999997 L 115.015625,250.22399999999996 L 115.015625,250.16799999999998 L 115.015625,250.112 L 115.015625,250.05599999999998 L 115.015625,250 L 115.015625,249.94399999999996 L 115.015625,249.88799999999998 L 115.015625,249.83199999999997 L 115.015625,249.77599999999998 L 115.015625,249.71999999999997 L 115.015625,249.664 L 115.015625,249.60799999999995 L 115.015625,249.55199999999996 L 115.015625,249.49599999999998 L 115.015625,249.44 L 115.015625,249.38399999999996 L 115.015625,249.32799999999997 L 115.015625,249.272 L 115.015625,249.21599999999995 L 115.015625,249.15999999999997 L 115.015625,249.10399999999998 L 115.015625,249.048 L 115.015625,248.99199999999996 L 115.015625,248.93599999999998 L 115.015625,248.87999999999997 L 115.015625,248.82399999999998 L 115.015625,248.76799999999997 L 115.015625,248.712 L 115.015625,248.65599999999995 L 115.015625,248.59999999999997 L 115.015625,248.54399999999995 L 115.015625,248.48799999999997 L 115.015625,248.432 L 115.015625,248.37599999999998 L 115.015625,248.32 L 115.015625,248.26399999999995 L 115.015625,248.20799999999997 L 115.015625,248.152 L 115.015625,248.09599999999998 L 115.015625,248.03999999999996 L 115.015625,247.98399999999998 L 115.015625,247.92799999999997 L 115.015625,247.87199999999996 L 115.015625,247.81599999999997 L 115.015625,247.76 L 115.015625,247.704 L 115.015625,247.64799999999997 L 115.015625,247.59199999999998 L 115.015625,247.53599999999997 L 115.015625,247.47999999999996 L 115.015625,247.42399999999998 L 115.015625,247.368 L 115.015625,247.31199999999995 L 115.015625,247.25599999999997 L 115.015625,247.19999999999996 L 115.015625,247.14399999999998 L 115.015625,247.08799999999997 L 115.015625,247.03199999999998 L 115.015625,246.97599999999994 L 115.015625,246.91999999999996 L 115.015625,246.86399999999998 L 115.015625,246.80799999999996 L 115.015625,246.75199999999998 L 115.015625,246.69599999999997 L 115.015625,246.64 L 115.015625,246.58399999999995 L 115.015625,246.52799999999996 L 115.015625,246.47199999999998 L 115.015625,246.416 L 115.015625,246.35999999999996 L 115.015625,246.30399999999997 L 115.015625,246.24799999999996 L 115.015625,246.19199999999998 L 115.015625,246.13599999999997 L 115.015625,246.07999999999998 L 115.015625,246.024 L 115.015625,245.96799999999996 L 115.015625,245.91199999999998 L 115.015625,245.85599999999997 L 115.015625,245.79999999999998 L 115.015625,245.74399999999997 L 115.015625,245.688 L 115.015625,245.63199999999995 L 115.015625,245.57599999999996 L 115.015625,245.51999999999995 L 115.015625,245.46399999999997 L 115.015625,245.40799999999996 L 115.015625,245.35199999999998 L 115.015625,245.296 L 115.015625,245.23999999999995 L 115.015625,245.18399999999997 L 115.015625,245.128 L 115.015625,245.07199999999997 L 115.015625,245.01599999999996 L 115.015625,244.95999999999998 L 115.015625,244.90399999999997 L 115.015625,244.84799999999996 L 115.015625,244.79199999999997 L 115.015625,244.736 L 115.015625,244.67999999999995 L 115.015625,244.62399999999997 L 115.015625,244.56799999999996 L 115.015625,244.51199999999997 L 115.015625,244.456 L 115.015625,244.39999999999998 L 115.015625,244.344 L 115.015625,244.28799999999995 L 115.015625,244.23199999999997 L 115.015625,244.17599999999996 L 115.015625,244.11999999999998 L 115.015625,244.06399999999996 L 115.015625,244.00799999999998 L 115.015625,243.95199999999994 L 115.015625,243.89599999999996 L 115.015625,243.83999999999997 L 115.015625,243.78399999999996 L 115.015625,243.72799999999998 L 115.015625,243.67199999999997 L 115.015625,243.61599999999999 L 115.015625,243.55999999999995 L 115.015625,243.50399999999996 L 115.015625,243.44799999999998 L 115.015625,243.392 L 115.015625,243.33599999999996 L 115.015625,243.27999999999997 L 115.015625,243.22399999999996 L 115.015625,243.16799999999998 L 115.015625,243.11199999999997 L 115.015625,243.05599999999998 L 115.015625,242.99999999999994 L 115.015625,242.94399999999996 L 115.015625,242.88799999999998 L 115.015625,242.83199999999997 L 115.015625,242.77599999999998 L 115.015625,242.71999999999997 L 115.015625,242.664 L 115.015625,242.60799999999995 L 115.015625,242.55199999999996 L 115.015625,242.49599999999998 L 115.015625,242.43999999999997 L 115.015625,242.38399999999996 L 115.015625,242.32799999999997 L 115.015625,242.27199999999996 L 115.015625,242.21599999999995 L 115.015625,242.15999999999997 L 115.015625,242.10399999999998 L 115.015625,242.04799999999997 L 115.015625,241.99199999999996 L 115.015625,241.93599999999998 L 115.015625,241.87999999999997 L 115.015625,241.82399999999996 L 115.015625,241.76799999999997 L 115.015625,241.712 L 115.015625,241.65599999999995 L 115.015625,241.59999999999997 L 115.015625,241.54399999999995 L 115.015625,241.48799999999997 L 115.015625,241.43199999999996 L 115.015625,241.37599999999998 L 115.015625,241.32 L 115.015625,241.26399999999995 L 115.015625,241.20799999999997 L 115.015625,241.15199999999996 L 115.015625,241.09599999999998 L 115.015625,241.03999999999996 L 115.015625,240.98399999999998 L 115.015625,240.92799999999997 L 115.015625,240.87199999999996 L 115.015625,240.81599999999997 L 115.015625,240.75999999999996 L 115.015625,240.70399999999995 L 115.015625,240.64799999999997 L 115.015625,240.59199999999996 L 115.015625,240.53599999999997 L 115.015625,240.48 L 115.015625,240.42399999999998 L 115.015625,240.368 L 115.015625,240.31199999999995 L 115.015625,240.25599999999997 L 115.015625,240.19999999999996 L 115.015625,240.14399999999998 L 115.015625,240.08799999999997 L 115.015625,240.03199999999998 L 115.015625,239.97599999999994 L 115.015625,239.91999999999996 L 115.015625,239.86399999999995 L 115.015625,239.80799999999996 L 115.015625,239.75199999999998 L 115.015625,239.69599999999997 L 115.015625,239.64 L 115.015625,239.58399999999995 L 115.015625,239.52799999999996 L 115.015625,239.47199999999995 L 115.015625,239.41599999999997 L 115.015625,239.35999999999996 L 115.015625,239.30399999999997 L 115.015625,239.24799999999996 L 115.015625,239.19199999999998 L 115.015625,239.13599999999997 L 115.015625,239.07999999999998 L 115.015625,239.02399999999994 L 115.015625,238.96799999999996 L 115.015625,238.91199999999998 L 115.015625,238.85599999999997 L 115.015625,238.79999999999998 L 115.015625,238.74399999999997 L 115.015625,238.688 L 115.015625,238.63199999999995 L 115.015625,238.57599999999996 L 115.015625,238.51999999999995 L 115.015625,238.46399999999997 L 115.015625,238.40799999999996 L 115.015625,238.35199999999998 L 115.015625,238.29599999999994 L 115.015625,238.23999999999995 L 115.015625,238.18399999999994 L 115.015625,238.12799999999996 L 115.015625,238.07199999999997 L 115.015625,238.01599999999996 L 115.015625,237.95999999999998 L 115.015625,237.90399999999997 L 115.015625,237.84799999999996 L 115.015625,237.79199999999997 L 115.015625,237.73599999999996 L 115.015625,237.67999999999995 L 115.015625,237.62399999999997 L 115.015625,237.56799999999996 L 115.015625,237.51199999999997 L 115.015625,237.45599999999996 L 115.015625,237.39999999999998 L 115.015625,237.344 L 115.015625,237.28799999999995 L 115.015625,237.23199999999997 L 115.015625,237.17599999999996 L 115.015625,237.11999999999998 L 115.015625,237.06399999999996 L 115.015625,237.00799999999998 L 115.015625,236.95199999999994 L 115.015625,236.89599999999996 L 115.015625,236.83999999999995 L 115.015625,236.78399999999996 L 115.015625,236.72799999999995 L 115.015625,236.67199999999997 L 115.015625,236.61599999999996 L 115.015625,236.55999999999995 L 115.015625,236.50399999999996 L 115.015625,236.44799999999995 L 115.015625,236.39199999999997 L 115.015625,236.33599999999996 L 115.015625,236.27999999999997 L 115.015625,236.22399999999996 L 115.015625,236.16799999999998 L 115.015625,236.11199999999997 L 115.015625,236.05599999999998 L 115.015625,235.99999999999994 L 115.015625,235.94399999999996 L 115.015625,235.88799999999995 L 115.015625,235.83199999999997 L 115.015625,235.77599999999998 L 115.015625,235.71999999999997 L 115.015625,235.664 L 115.015625,235.60799999999995 L 115.015625,235.55199999999996 L 115.015625,235.49599999999995 L 115.015625,235.43999999999997 L 115.015625,235.38399999999996 L 115.015625,235.32799999999997 L 115.015625,235.27199999999996 L 115.015625,235.21599999999995 L 115.015625,235.15999999999994 L 115.015625,235.10399999999996 L 115.015625,235.04799999999994 L 115.015625,234.99199999999996 L 115.015625,234.93599999999998 L 115.015625,234.87999999999997 L 115.015625,234.82399999999998 L 115.015625,234.76799999999997 L 115.015625,234.71199999999996 L 115.015625,234.65599999999995 L 115.015625,234.59999999999997 L 115.015625,234.54399999999995 L 115.015625,234.48799999999997 L 115.015625,234.43199999999996 L 115.015625,234.37599999999998 L 115.015625,234.31999999999994 L 115.015625,234.26399999999995 L 115.015625,234.20799999999994 L 115.015625,234.15199999999996 L 115.015625,234.09599999999998 L 115.015625,234.03999999999996 L 115.015625,233.98399999999998 L 115.015625,233.92799999999994 L 115.015625,233.87199999999996 L 115.015625,233.81599999999995 L 115.015625,233.75999999999996 L 115.015625,233.70399999999995 L 115.015625,233.64799999999997 L 115.015625,233.59199999999996 L 115.015625,233.53599999999997 L 115.015625,233.47999999999996 L 115.015625,233.42399999999995 L 115.015625,233.36799999999997 L 115.015625,233.31199999999995 L 115.015625,233.25599999999997 L 115.015625,233.19999999999996 L 115.015625,233.14399999999998 L 115.015625,233.08799999999997 L 115.015625,233.03199999999998 L 115.015625,232.97599999999994 L 115.015625,232.91999999999996 L 115.015625,232.86399999999995 L 115.015625,232.80799999999996 L 115.015625,232.75199999999995 L 115.015625,232.69599999999997 L 115.015625,232.63999999999996 L 115.015625,232.58399999999995 L 115.015625,232.52799999999996 L 115.015625,232.47199999999995 L 115.015625,232.41599999999997 L 115.015625,232.35999999999996 L 115.015625,232.30399999999997 L 115.015625,232.24799999999996 L 115.015625,232.19199999999995 L 115.015625,232.13599999999994 L 115.015625,232.07999999999996 L 115.015625,232.02399999999994 L 115.015625,231.96799999999996 L 115.015625,231.91199999999995 L 115.015625,231.85599999999997 L 115.015625,231.79999999999998 L 115.015625,231.74399999999997 L 115.015625,231.68799999999996 L 115.015625,231.63199999999995 L 115.015625,231.57599999999996 L 115.015625,231.51999999999995 L 115.015625,231.46399999999997 L 115.015625,231.40799999999996 L 115.015625,231.35199999999998 L 115.015625,231.29599999999994 L 115.015625,231.23999999999995 L 115.015625,231.18399999999994 L 115.015625,231.12799999999996 L 115.015625,231.07199999999995 L 115.015625,231.01599999999996 L 115.015625,230.95999999999998 L 115.015625,230.90399999999997 L 115.015625,230.84799999999996 L 115.015625,230.79199999999994 L 115.015625,230.73599999999996 L 115.015625,230.67999999999995 L 115.015625,230.62399999999997 L 115.015625,230.56799999999996 L 115.015625,230.51199999999997 L 115.015625,230.45599999999996 L 115.015625,230.39999999999995 L 115.015625,230.34399999999994 L 115.015625,230.28799999999995 L 115.015625,230.23199999999994 L 115.015625,230.17599999999996 L 115.015625,230.11999999999998 L 115.015625,230.06399999999996 L 115.015625,230.00799999999998 L 115.015625,229.95199999999994 L 115.015625,229.89599999999996 L 115.015625,229.83999999999995 L 115.015625,229.78399999999996 L 115.015625,229.72799999999995 L 115.015625,229.67199999999997 L 115.015625,229.61599999999996 L 115.015625,229.55999999999995 L 115.015625,229.50399999999993 L 115.015625,229.44799999999995 L 115.015625,229.39199999999997 L 115.015625,229.33599999999996 L 115.015625,229.27999999999997 L 115.015625,229.22399999999996 L 115.015625,229.16799999999998 L 115.015625,229.11199999999994 L 115.015625,229.05599999999995" stroke="black" fill="none" stroke-width="5"/><path d="M 0,0 L 0,0" stroke="black" fill="none" stroke-width="5"/><path d="M 0,0 L 0,0" stroke="black" fill="none" stroke-width="5"/><path d="M 0,0 L 0,0" stroke="black" fill="none" stroke-width="5"/></svg>